<?xml version="1.0" encoding="utf-8"?>
<!-- Generator: Adobe Illustrator 16.0.0, SVG Export Plug-In . SVG Version: 6.00 Build 0)  -->
<!DOCTYPE svg PUBLIC "-//W3C//DTD SVG 1.1//EN" "http://www.w3.org/Graphics/SVG/1.1/DTD/svg11.dtd">
<svg version="1.1" id="Ebene_1" xmlns="http://www.w3.org/2000/svg" xmlns:xlink="http://www.w3.org/1999/xlink" x="0px" y="0px"
	 width="144.771px" height="144.773px" viewBox="0 0 144.771 144.773" enable-background="new 0 0 144.771 144.773"
	 xml:space="preserve">
<circle fill="#16B3C1" cx="72.386" cy="72.386" r="72.386"/>
<g>
	<defs>
		<circle id="SVGID_1_" cx="72.386" cy="72.386" r="72.386"/>
	</defs>
	<clipPath id="SVGID_2_">
		<use xlink:href="#SVGID_1_"  overflow="visible"/>
	</clipPath>
	<g clip-path="url(#SVGID_2_)">
		<ellipse fill="#ED9B1D" cx="72.386" cy="62.721" rx="29.635" ry="29.828"/>
		<path fill="#F0C9A5" d="M107.052,116.94c-4.666-8.833-34.666-14.376-34.666-14.376s-30,5.543-34.666,14.376
			c-3.449,12.258-6.334,27.833-6.334,27.833h41h41C113.386,144.773,111.438,128.073,107.052,116.94z"/>
		<path fill="#E3B692" d="M72.386,102.564c0,0,30,5.543,34.666,14.376c4.386,11.133,6.334,27.833,6.334,27.833h-41V102.564z"/>
		<rect x="64.219" y="84.606" fill="#F0C9A5" width="16.334" height="27.336"/>
		<rect x="72.386" y="84.606" fill="#E3B692" width="8.167" height="27.336"/>
		<path opacity="0.1" fill="#DEAD8D" d="M64.219,97.273c1.469,4.217,7.397,6.634,11.751,6.634c1.575,0,3.107-0.264,4.583-0.747
			V84.606H64.219V97.273z"/>
		<path fill="#F0C9A5" d="M93.386,67.357c0-17.074-9.402-26.783-21-26.783s-21,9.709-21,26.783s9.402,30.917,21,30.917
			S93.386,84.432,93.386,67.357z"/>
		<path fill="#E3B692" d="M90.189,79.195c-3.807-0.424-6.377-4.783-5.732-9.732c0.637-4.953,4.242-8.63,8.051-8.209
			c3.805,0.422,6.371,4.779,5.729,9.732C97.598,75.939,93.996,79.613,90.189,79.195z"/>
		<path fill="#F0C9A5" d="M46.684,70.986c-0.643-4.953,1.924-9.311,5.727-9.732c3.811-0.421,7.416,3.256,8.055,8.209
			c0.643,4.949-1.93,9.309-5.734,9.732C50.924,79.613,47.322,75.939,46.684,70.986z"/>
		<path fill="#E3B692" d="M93.386,67.357c0-17.074-9.402-26.783-21-26.783v57.7C83.983,98.274,93.386,84.432,93.386,67.357z"/>
		<path fill="#EC632A" d="M107.052,116.94c-1.565-2.964-5.987-5.555-11.166-7.692c-2.604,10.561-12.136,18.394-23.5,18.394
			s-20.896-7.833-23.5-18.394c-5.179,2.138-9.601,4.729-11.166,7.692c-3.449,12.258-6.334,27.833-6.334,27.833h41h41
			C113.386,144.773,111.438,128.073,107.052,116.94z"/>
		<path fill="#ED9B1D" d="M72.386,37.698c0,0-28.662,2.166-23.334,26.922c0,0,27.048-4.97,31.302-15.38
			C84.607,59.65,95.72,64.62,95.72,64.62C101.048,39.864,72.386,37.698,72.386,37.698z"/>
		<path fill="#ED9B1D" d="M49.23,78.095c0,0-10.18,1.454-17.159,14.979c4.07,1.165,5.815,1.745,9.598,2.036
			c1.31,4.072,5.816,5.527,5.816,5.527s7.315-6.892,5.716-16.78"/>
		<path fill="#ED9B1D" d="M95.54,78.095c0,0,10.18,1.454,17.159,14.979c-4.07,1.165-5.815,1.745-9.598,2.036
			c-1.31,4.072-5.816,5.527-5.816,5.527s-7.315-6.892-5.716-16.78"/>
	</g>
</g>
<g>
</g>
<g>
</g>
<g>
</g>
<g>
</g>
<g>
</g>
<g>
</g>
</svg>
