<?xml version="1.0" encoding="UTF-8" standalone="no"?><!DOCTYPE svg PUBLIC "-//W3C//DTD SVG 1.1//EN" "http://www.w3.org/Graphics/SVG/1.1/DTD/svg11.dtd"><svg width="100%" height="100%" viewBox="0 0 531 531" version="1.1" xmlns="http://www.w3.org/2000/svg" xmlns:xlink="http://www.w3.org/1999/xlink" xml:space="preserve" xmlns:serif="http://www.serif.com/" style="fill-rule:evenodd;clip-rule:evenodd;stroke-linejoin:round;stroke-miterlimit:1.41421;"><path d="M531.244,265.628c0,-146.703 -118.922,-265.628 -265.619,-265.628c-146.7,0 -265.625,118.925 -265.625,265.628c0,146.694 118.925,265.616 265.625,265.616c146.697,0 265.619,-118.922 265.619,-265.616Z" style="fill:#9561e2;fill-rule:nonzero;"/><g><clipPath id="_clip1"><path d="M531.253,265.625c0,-146.7 -118.925,-265.628 -265.628,-265.628c-146.703,0 -265.625,118.928 -265.625,265.628c0,146.697 118.922,265.625 265.625,265.625c146.703,0 265.628,-118.928 265.628,-265.625Z"/></clipPath><g clip-path="url(#_clip1)"><rect x="226.731" y="332.616" width="77.794" height="85.297" style="fill:#d9a78c;fill-rule:nonzero;"/><path d="M217.291,383.441c0,0 -73.96,10.815 -84.882,22.193c-9.512,9.907 -29.284,104.791 -33.859,125.616c129.85,0 167.072,0 167.072,0l0,-143.788l-48.331,-4.021Z" style="fill:#c0d0d8;fill-rule:nonzero;"/><path d="M313.953,383.441c0,0 73.966,10.815 84.888,22.193c9.509,9.907 29.284,104.791 33.859,125.616c-129.85,0 -167.078,0 -167.078,0l0,-143.788l48.331,-4.021Z" style="fill:#a6bdc8;fill-rule:nonzero;"/><path d="M278.903,400.709l-13.278,13.275l-13.275,-13.275l13.275,-13.278l13.278,13.278Z" style="fill:#16a89a;fill-rule:nonzero;"/><path d="M265.625,88.544c37.769,0 97.5,21.468 97.5,122.081c0,58.094 -18.941,96.15 -27.191,106.678c-7.593,9.688 -50.281,30.322 -70.309,30.322c0,-101.678 0,-259.081 0,-259.081Z" style="fill:#b68c5d;fill-rule:nonzero;"/><path d="M381.912,234.616c1.666,-16.075 -5.993,-30.341 -17.103,-31.866c-11.118,-1.522 -21.475,10.272 -23.14,26.347c-1.669,16.072 5.994,30.337 17.109,31.862c11.106,1.522 21.466,-10.272 23.134,-26.343Z" style="fill:#d5a77b;fill-rule:nonzero;"/><path d="M265.625,88.544c-37.769,0 -97.497,21.468 -97.497,122.081c0,58.094 18.938,96.15 27.188,106.678c7.597,9.688 50.281,30.322 70.309,30.322c0,-101.678 0,-259.081 0,-259.081Z" style="fill:#d3a77c;fill-rule:nonzero;"/><path d="M149.338,234.616c-1.663,-16.075 5.996,-30.341 17.106,-31.866c11.115,-1.522 21.472,10.272 23.14,26.347c1.666,16.072 -5.996,30.337 -17.109,31.862c-11.113,1.522 -21.469,-10.272 -23.137,-26.343Z" style="fill:#d5a77b;fill-rule:nonzero;"/><path d="M265.622,387.462l-39.488,-15.881l-9.731,9.881l19.65,43.575l29.569,-37.575Z" style="fill:#fff;fill-rule:nonzero;"/><path d="M265.622,387.462l39.494,-15.881l9.731,9.881l-19.653,43.575l-29.572,-37.575Z" style="fill:#fff;fill-rule:nonzero;"/><rect x="180.056" y="487.95" width="49.284" height="10.872" style="fill:#7f98a4;fill-rule:nonzero;"/><rect x="301.944" y="487.95" width="49.284" height="10.872" style="fill:#7f98a4;fill-rule:nonzero;"/><path d="M181.106,236.381l6.735,0c0,0 -4.094,-26.203 7.915,-34.662c0,-13.103 0,-16.922 0,-16.922c0,0 -4.64,-0.547 -4.64,-20.469c0,-19.925 23.746,-34.119 74.509,-34.119c0,-28.384 0,-61.137 0,-61.137c0,0 -100.347,10.825 -100.347,83.653c0,30.256 0,50.084 0,50.084c0,0 7.322,-1.297 12.556,3.097c5.641,4.728 3.272,30.475 3.272,30.475Z" style="fill:#484746;fill-rule:nonzero;"/><path d="M349.191,236.381l-6.732,0c0,0 4.094,-26.203 -7.918,-34.662c0,-13.103 0,-16.922 0,-16.922c0,0 4.643,-0.547 4.643,-20.469c0,-19.925 -23.747,-34.119 -74.509,-34.119c0,-28.384 0,-61.137 0,-61.137c0,0 100.344,10.825 100.344,83.653c0,30.256 0,50.084 0,50.084c0,0 -7.319,-1.297 -12.553,3.097c-5.641,4.728 -3.275,30.475 -3.275,30.475Z" style="fill:#464646;fill-rule:nonzero;"/><path d="M265.625,304.297c17.606,0 31.878,-5.816 31.878,-12.988l-63.753,0c0,7.172 14.272,12.988 31.875,12.988Z" style="fill:#fff;fill-rule:nonzero;"/></g></g></svg>