<?xml version="1.0" encoding="UTF-8" standalone="no"?><!DOCTYPE svg PUBLIC "-//W3C//DTD SVG 1.1//EN" "http://www.w3.org/Graphics/SVG/1.1/DTD/svg11.dtd"><svg width="100%" height="100%" viewBox="0 0 531 531" version="1.1" xmlns="http://www.w3.org/2000/svg" xmlns:xlink="http://www.w3.org/1999/xlink" xml:space="preserve" xmlns:serif="http://www.serif.com/" style="fill-rule:evenodd;clip-rule:evenodd;stroke-linejoin:round;stroke-miterlimit:1.41421;"><path d="M531.253,265.622c0,-146.697 -118.925,-265.622 -265.628,-265.622c-146.7,0 -265.625,118.925 -265.625,265.622c0,146.703 118.925,265.625 265.625,265.625c146.703,0 265.628,-118.922 265.628,-265.625Z" style="fill:#9561e2;fill-rule:nonzero;"/><g><clipPath id="_clip1"><path d="M531.259,265.619c0,-146.697 -118.921,-265.622 -265.625,-265.622c-146.7,0 -265.621,118.925 -265.621,265.622c0,146.703 118.921,265.625 265.621,265.625c146.704,0 265.625,-118.922 265.625,-265.625Z"/></clipPath><g clip-path="url(#_clip1)"><path d="M381.891,172.275c0,-64.203 -52.047,-116.253 -116.257,-116.253c-64.206,0 -116.253,52.05 -116.253,116.253c0,64.206 52.047,116.253 116.253,116.253c64.21,0 116.257,-52.047 116.257,-116.253Z" style="fill:#482b1b;fill-rule:nonzero;"/><path d="M304.534,421.231l-39.39,110.488l-38.403,-110.488l0,-85.297l77.793,0l0,85.297Z" style="fill:#eac8ae;fill-rule:nonzero;"/><path d="M265.634,99.537c-37.768,0 -97.497,21.472 -97.497,122.082c0,58.09 22.644,85.481 30.894,96.009c7.597,9.684 46.575,40.994 66.603,40.994c0,-101.685 0,-259.085 0,-259.085Z" style="fill:#f3d8bc;fill-rule:nonzero;"/><path d="M149.347,245.609c-1.663,-16.075 5.997,-30.34 17.106,-31.865c11.116,-1.522 21.475,10.272 23.141,26.347c1.665,16.071 -5.997,30.337 -17.11,31.862c-11.109,1.522 -21.468,-10.272 -23.137,-26.344Z" style="fill:#f3d8bc;fill-rule:nonzero;"/><path d="M265.328,99.537c37.769,0 97.497,21.472 97.497,122.082c0,58.09 -22.641,85.481 -30.894,96.009c-7.594,9.684 -46.575,40.994 -66.603,40.994c0,-101.685 0,-259.085 0,-259.085Z" style="fill:#e9bfa7;fill-rule:nonzero;"/><path d="M381.925,245.609c1.663,-16.075 -5.997,-30.34 -17.106,-31.865c-11.116,-1.522 -21.475,10.272 -23.141,26.347c-1.666,16.071 5.997,30.337 17.11,31.862c11.112,1.522 21.468,-10.272 23.137,-26.344Z" style="fill:#e9bfa7;fill-rule:nonzero;"/><path d="M265.144,531.719l0,-106.25c0,0 -29.022,-7.194 -35.416,-30.697c-3.075,-11.3 -2.987,-20.366 -2.987,-20.366c0,0 -63.454,21.431 -77.619,43.566c-11.788,35.09 -15.019,113.747 -15.019,113.747l131.041,0Z" style="fill:#eac8ae;fill-rule:nonzero;"/><path d="M265.144,531.719l0,-106.25c0,0 29.018,-7.194 35.419,-30.697c3.071,-11.3 2.984,-20.366 2.984,-20.366c0,0 63.453,21.431 77.619,43.566c11.787,35.09 15.022,113.747 15.022,113.747l-131.044,0Z" style="fill:#eac8ae;fill-rule:nonzero;"/><path d="M265.144,531.719l0,-106.25c0,0 -29.022,-7.194 -35.416,-30.697c-3.075,-11.3 -2.987,-20.366 -2.987,-20.366c0,0 -63.454,21.431 -77.619,43.566c-11.788,35.09 -15.019,113.747 -15.019,113.747l131.041,0Z" style="fill:#eac8ae;fill-rule:nonzero;"/><path d="M265.144,531.719l0,-106.25c0,0 29.018,-7.194 35.419,-30.697c3.071,-11.3 2.984,-20.366 2.984,-20.366c0,0 63.453,21.431 77.619,43.566c11.787,35.09 15.022,113.747 15.022,113.747l-131.044,0Z" style="fill:#eac8ae;fill-rule:nonzero;"/><path d="M265.634,323.187c14.725,0 26.66,-9.037 26.66,-20.193l-53.316,0c0,11.156 11.935,20.193 26.656,20.193Z" style="fill:#fff;fill-rule:nonzero;"/><path d="M260.137,70.591c-69.009,0 -89.99,60.459 -89.99,88.303c-25.031,34.787 2.253,65.912 21.569,76.846c0,-6.471 0,-8.84 0,-17.118c0,-22.497 21.393,-43.328 53.522,-39.86c28.793,3.11 46.925,-13.162 62.243,-40.831c18.913,-37.047 -4.69,-67.34 -47.344,-67.34Z" style="fill:#482b1b;fill-rule:nonzero;"/><path d="M304.534,126.559c0,0 16.122,65.463 60.285,87.185c7.859,-58.85 12.503,-46.454 0,-77.444c-12.503,-30.991 -60.285,-54.01 -60.285,-54.01l0,44.269Z" style="fill:#482b1b;fill-rule:nonzero;"/><path d="M381.166,417.972c-11.816,-18.463 -57.9,-36.428 -72.869,-41.881c-0.888,23.075 -19.863,41.509 -43.153,41.509c-23.291,0 -42.263,-18.434 -43.153,-41.509c-14.969,5.453 -61.054,23.418 -72.869,41.881c-11.788,35.09 -15.019,113.747 -15.019,113.747l262.085,0c0,0 -3.235,-78.657 -15.022,-113.747Z" style="fill:#faa21e;fill-rule:nonzero;"/><path d="M396.188,531.719c0,0 -3.235,-78.657 -15.022,-113.747c-11.816,-18.463 -57.9,-36.428 -72.869,-41.881c-0.888,23.075 -19.863,41.509 -43.153,41.509l0,114.119l131.044,0Z" style="fill:#f78f20;fill-rule:nonzero;"/><path d="M207.759,381.597c4.313,27.815 28.36,49.109 57.385,49.109c29.025,0 53.072,-21.294 57.384,-49.109c-5.831,-2.385 -10.834,-4.269 -14.231,-5.506c-0.888,23.075 -19.863,41.509 -43.153,41.509c-23.291,0 -42.263,-18.434 -43.153,-41.509c-3.391,1.237 -8.397,3.121 -14.232,5.506Z" style="fill:#3bb54a;fill-rule:nonzero;"/><path d="M304.534,56.022c0,-21.481 -17.415,-38.897 -38.9,-38.897c-21.478,0 -38.893,17.416 -38.893,38.897c0,21.481 17.415,38.897 38.893,38.897c21.485,0 38.9,-17.416 38.9,-38.897Z" style="fill:#482b1b;fill-rule:nonzero;"/></g></g></svg>