<?xml version="1.0" encoding="UTF-8" standalone="no"?><!DOCTYPE svg PUBLIC "-//W3C//DTD SVG 1.1//EN" "http://www.w3.org/Graphics/SVG/1.1/DTD/svg11.dtd"><svg width="100%" height="100%" viewBox="0 0 382 82" version="1.1" xmlns="http://www.w3.org/2000/svg" xmlns:xlink="http://www.w3.org/1999/xlink" xml:space="preserve" xmlns:serif="http://www.serif.com/" style="fill-rule:evenodd;clip-rule:evenodd;stroke-linejoin:round;stroke-miterlimit:1.41421;"><g><path d="M183.785,67.792l0,-35.121c0,-2.583 -3.486,-3.323 -3.486,-3.323l-7.511,0l0,52.603l41.15,0c0,0 3.416,0.439 3.416,-3.628l0,-6.713l-29.278,0c-4.993,0 -4.291,-3.818 -4.291,-3.818Z" style="fill:#00467f;fill-rule:nonzero;"/><path d="M44.774,69.944c-1.389,1.465 -3.683,1.666 -5.742,1.666l-28.044,0l0,-11.801l24.59,0c6.108,0 8.13,1.192 8.793,1.91l0.237,0.226c0.248,0.223 1.507,1.462 1.507,4.223c0,2.201 -1.025,3.448 -1.341,3.776Zm-33.786,-27.645c0,-2.439 2.145,-2.737 4.112,-2.737l21.521,0c3.119,0 4.489,0.464 5.078,0.841c0.93,0.605 1.929,2.007 1.929,4.083c0,0.954 -0.155,2.208 -1.309,3.293c-1.618,1.495 -4.161,1.622 -6.418,1.622l-24.913,0c0,0 0,-5.334 0,-7.102Zm40.224,11.414c0.291,-0.306 0.588,-0.651 0.874,-1.017c1.738,-2.324 2.742,-5.435 2.742,-8.538c0,-4.404 -1.916,-8.485 -5.209,-11.17c-4.299,-3.64 -9.159,-3.64 -13.067,-3.64l-30.941,0c-5.029,0 -5.611,3.553 -5.611,3.553l0,49.05l39.168,0c5.402,0 9.619,-1.181 12.546,-3.516c3.467,-2.779 5.458,-7.274 5.458,-12.333c0,-5.17 -2.208,-9.672 -5.96,-12.389Z" style="fill:#00467f;fill-rule:nonzero;"/><path d="M232.146,59.68l34.022,0c2.908,0 2.616,-2.55 2.616,-2.55l0,-7.794l-36.638,0l0,-5.625l0,-0.367c0,-0.348 0,-0.663 0,-0.909c0,-2.434 2.138,-2.73 4.099,-2.73l1.357,0l0.919,-0.012l30.276,0c0,0 2.996,0.167 2.996,-2.838l0,-7.507l-45.713,0c-5.297,0 -4.932,3.652 -4.932,3.652l0,48.951l49.714,0c0,0 2.822,0.151 2.822,-2.853l0,-7.488l-41.538,0l0,-11.93Z" style="fill:#00467f;fill-rule:nonzero;"/><path d="M120.853,72.341c6.737,-0.013 16.992,-0.025 20.939,-0.025c0.41,0 0.923,-0.003 1.495,-0.028c4.118,-0.124 13.779,0.18 14.697,-5.185c0.063,-0.328 0.118,-0.574 0.094,-0.837c-0.18,-2.109 -1.173,-5.866 -15.355,-6.511c-7.803,-0.323 -13.354,-0.576 -18.074,-2.364c-5.685,-2.126 -8.656,-6.098 -8.831,-11.801l-0.042,-0.502c0,-9.712 7.999,-15.138 22.388,-15.759c0.813,-0.031 1.643,-0.059 2.499,-0.059l1.018,0.015l0.427,-0.015c6.667,0 13.198,0.04 24.429,0.066l0,6.647c0,3.579 -4.155,3.27 -4.155,3.27c-9.204,-0.017 -15.101,-0.034 -19.387,-0.034c-0.397,0 -0.917,0.008 -1.489,0.029l-0.588,-0.033c-0.671,0 -1.625,0.014 -2.735,0.089c-4.285,0.246 -11.169,0.869 -11.169,4.981c0,0.313 0.024,0.586 0.086,0.845c0.384,1.536 2.071,3.484 13.837,3.992l0.7,0.033c7.963,0.305 14.258,1.453 19.238,3.598c5.798,2.494 8.726,6.96 8.726,13.258c0,0.317 -0.006,0.665 -0.025,1.027l0,0.122l-0.069,0.557c-0.539,5.818 -3.38,13.725 -24.106,14.227l-0.092,0.056l-0.676,-0.019l-0.782,0.019c-7.178,0 -14.37,-0.035 -22.928,-0.046c0,0.003 -3.374,-6.826 -3.374,-6.826c0,0 -1.208,-2.765 3.304,-2.787Z" style="fill:#00467f;fill-rule:nonzero;"/><path d="M356.434,11.715c-4.829,-4.797 -11.149,-5.317 -11.149,-5.317c-12.552,5.355 -25.169,12.996 -25.169,12.996c0,0 18.905,-8.526 38.355,-4.562c0,0 -1.092,-2.176 -2.037,-3.117Z" style="fill:#f99d31;fill-rule:nonzero;"/><path d="M379.943,6.013c-5.54,-8.364 -20.505,-5.463 -30.102,-2.513c2.75,0.753 17.984,2.026 12.463,25.177c-3.282,13.749 -13.142,29.933 -12.714,30.745c0.596,1.122 40.032,-38.798 30.353,-53.409Z" style="fill:#00467f;fill-rule:nonzero;"/><path d="M289.167,50.966l0,-8.383c0,0 -0.397,-2.954 3.553,-2.954l20.763,0c2.252,0 4.385,0 5.912,1.18c0.843,0.625 1.829,2.102 1.829,4.195c0,1.559 -0.522,3.094 -1.359,3.997c-1.699,1.83 -4.886,1.965 -9.177,1.965l-21.521,0Zm30.677,9.692c2.375,-0.518 4.859,-1.435 7.016,-3.111c1.339,-1.054 2.444,-2.312 3.325,-3.723c0.055,-0.097 0.124,-0.199 0.179,-0.296c1.414,-2.398 2.17,-5.233 2.17,-8.329c0,-5.787 -2.852,-11.021 -7.477,-13.679c-3.939,-2.172 -8.424,-2.172 -11.698,-2.172l-30.977,0c-3.944,0 -4.149,3.098 -4.149,3.098l0,49.505l8.093,0c0,0 2.841,0.055 2.841,-3.323l0,-17.249l13.488,0c0,0 0.211,-0.006 0.539,0.032c0.101,0.002 1.072,0.02 2.51,0.025l14.314,16.289l0.023,-0.01c1.03,1.168 1.716,1.946 1.716,1.946c0,0 1.87,2.33 5.879,2.29l11.101,0l-18.893,-21.293Z" style="fill:#00467f;fill-rule:nonzero;"/><path d="M89.913,29.355l-3.373,0l-1.017,0c-4.658,0 -5.007,0.7 -6.457,3.764c-3.002,6.331 -9.346,17.646 -14.648,28.385c2.847,-2.243 7.379,-4.546 14.115,-4.913l6.927,-12.564l7.918,15.834l-15.676,0l0.018,-0.037c-9.277,0.768 -13.873,5.533 -15.435,7.591c-3.617,7.287 -6.302,12.701 -6.302,12.701c0,0 -1.079,1.841 1.223,1.841l9.668,0l4.037,-8.186c0,0 1.792,-3.771 6.45,-3.771l21.085,0c0,0 3.561,7.015 4.597,9.08c0.799,1.596 1.375,2.877 4.334,2.877l1.792,0c2.705,0 5.06,0.004 7.17,0.004l-26.426,-52.606Z" style="fill:#00467f;fill-rule:nonzero;"/></g></svg>