<?xml version="1.0" encoding="UTF-8" standalone="no"?><!DOCTYPE svg PUBLIC "-//W3C//DTD SVG 1.1//EN" "http://www.w3.org/Graphics/SVG/1.1/DTD/svg11.dtd"><svg width="100%" height="100%" viewBox="0 0 2366 580" version="1.1" xmlns="http://www.w3.org/2000/svg" xmlns:xlink="http://www.w3.org/1999/xlink" xml:space="preserve" xmlns:serif="http://www.serif.com/" style="fill-rule:evenodd;clip-rule:evenodd;stroke-linejoin:round;stroke-miterlimit:1.41421;"><g><path d="M146.475,376.777l-0.136,0c-38.848,0 -78.99,-0.944 -105.439,-12.233c-13.676,-5.805 -23.182,-13.606 -29.914,-24.548c-7.38,-12.045 -10.974,-27.586 -10.986,-47.513c0,-15.19 2.167,-33.04 6.441,-53.115c0.976,-4.555 23.895,-111.598 25.433,-117.272c6.05,-22.312 13.703,-40.654 23.396,-56.074c16.743,-26.536 39.021,-43.634 70.11,-53.812c25.903,-8.433 58.853,-12.194 106.839,-12.194l0.419,-0.002c25.199,0 45.913,1.779 63.328,5.438c20.536,4.313 36.219,11.359 46.612,20.944c7.754,7.154 12.78,15.906 14.938,26.012c1.085,5.081 1.634,10.78 1.632,16.939c0.002,14.234 -2.899,29.098 -5.23,41.041c-0.342,1.75 -0.673,3.448 -0.985,5.087l-0.093,0.488l-92.817,0l0.069,-0.662c0,0 0.292,-2.807 0.399,-4.054c0.005,-0.052 0.42,-3.828 0.42,-9.229c0,-8.05 -3.771,-14.374 -11.529,-19.33c-6.127,-3.483 -13.964,-4.673 -21.464,-5.592c-8.001,-0.957 -16.971,-1.093 -25.472,-1.097c-15.613,0.01 -27.399,1.244 -37.089,3.886c-7.737,2.108 -14.151,5.155 -19.608,9.314c-7.689,5.843 -13.67,14.227 -18.285,25.633c-4.312,10.629 -7.422,23.262 -10.767,38.958l-12.722,59.85c-4.081,19.28 -6.971,33.9 -6.995,46.469c0.005,7.259 0.995,13.002 3.117,18.073c3.292,8.089 10.331,14.398 19.822,17.769c9.137,3.324 20.702,4.816 37.502,4.838c11.232,-0.003 20.427,-0.212 28.794,-1.231c14.522,-1.745 24.922,-6.097 32.729,-13.695c8.463,-8.238 14.179,-20.413 17.988,-38.313l1.296,-6.099l91.784,0l-0.027,0.627c-0.032,0.715 -5.171,24.812 -7.858,34.469c-2.797,10.053 -5.845,18.631 -9.315,26.22c-8.916,19.449 -21.348,34.412 -39.122,47.091c-17.19,12.034 -35.502,19.442 -57.632,23.318c-19.043,3.325 -38.493,3.595 -60.118,3.595l-0.271,0c-0.445,0 -8.098,0.002 -9.194,0.006Z" style="fill:#0767af;fill-rule:nonzero;"/><path d="M1174.78,376.777l-0.14,0c-38.84,0 -78.99,-0.944 -105.44,-12.233c-13.67,-5.805 -23.18,-13.606 -29.91,-24.548c-7.38,-12.046 -10.971,-27.587 -10.99,-47.513c0,-15.191 2.17,-33.041 6.45,-53.115c0.97,-4.555 23.89,-111.598 25.43,-117.272c6.05,-22.312 13.7,-40.654 23.39,-56.074c16.75,-26.536 39.02,-43.634 70.11,-53.812c25.91,-8.433 58.86,-12.194 106.84,-12.194l0.42,-0.002c25.2,0 45.92,1.779 63.33,5.438c20.54,4.313 36.22,11.359 46.61,20.944c7.76,7.156 12.78,15.907 14.94,26.012c1.08,5.078 1.63,10.777 1.63,16.938c0,14.24 -2.9,29.107 -5.23,41.053c-0.34,1.746 -0.67,3.441 -0.98,5.076l-0.1,0.488l-92.81,0l0.07,-0.662c0,0 0.29,-2.807 0.4,-4.054c0,-0.052 0.41,-3.828 0.41,-9.229c0,-8.05 -3.77,-14.374 -11.52,-19.33c-6.13,-3.483 -13.97,-4.673 -21.47,-5.592c-8,-0.957 -16.97,-1.093 -25.47,-1.097c-15.61,0.01 -27.4,1.244 -37.09,3.886c-7.74,2.107 -14.15,5.155 -19.61,9.314c-7.69,5.842 -13.67,14.227 -18.28,25.633c-4.32,10.632 -7.43,23.264 -10.77,38.958l-12.72,59.85c-4.08,19.281 -6.97,33.901 -7,46.469c0.01,7.26 1,13.003 3.12,18.073c3.29,8.089 10.33,14.398 19.82,17.769c9.14,3.324 20.7,4.816 37.5,4.838c11.24,-0.003 20.43,-0.212 28.8,-1.231c14.52,-1.745 24.92,-6.097 32.73,-13.695c8.46,-8.239 14.18,-20.413 17.99,-38.313l1.29,-6.099l91.79,0l-0.03,0.627c-0.03,0.719 -5.18,24.825 -7.86,34.469c-2.8,10.053 -5.84,18.63 -9.31,26.218c-8.92,19.452 -21.35,34.416 -39.13,47.093c-17.19,12.034 -35.5,19.442 -57.63,23.318c-19.04,3.325 -38.49,3.595 -60.12,3.595l-0.27,0c-0.44,0 -8.09,0.002 -9.19,0.006Z" style="fill:#0767af;fill-rule:nonzero;"/><path d="M975.611,373.703l-267.005,0l0.154,-0.725l74.676,-351.357c1.303,-6.466 3.726,-10.898 7.621,-13.941c3.976,-3.084 9.457,-4.587 16.759,-4.598l225.284,0c5.56,0.02 9.589,1.277 12,3.735c1.81,1.856 2.78,4.599 2.81,7.932l-0.01,0.296c-0.02,1.353 -0.191,2.747 -0.52,4.141l-11.65,54.843l-174.423,0.002l-15.124,72.663l163.687,0l-14.887,68.513l-163.687,0l-18.645,87.702l178.009,0l-15.049,70.794Z" style="fill:#0767af;fill-rule:nonzero;"/><path d="M1454.42,373.706l-89.01,0l0.15,-0.725l74.44,-350.146c1.77,-7.607 4.64,-12.84 8.76,-16.011c3.28,-2.505 7.5,-3.728 12.91,-3.742l52.68,0c5.68,0.019 9.92,1.338 12.59,3.918c2.11,2.036 3.23,4.971 3.25,8.487c0,1.06 -0.11,2.162 -0.31,3.28l-75.46,354.939Z" style="fill:#0767af;fill-rule:nonzero;"/><path d="M1699.48,373.701l-112.16,0l-0.15,-0.361l-83.06,-192.219l0.26,-0.287l143.68,-156.009c8.86,-9.714 14.13,-14.622 18.77,-17.499c5.03,-3.085 9.37,-4.195 16.61,-4.244l72.4,0c3.39,0.019 5.51,1.137 6.7,2.071c0.73,0.617 1.2,1.182 1.52,1.792c0.22,0.414 0.37,0.944 0.45,1.506l0.14,-0.002l-0.13,1.159c-0.14,1.515 -0.93,3.996 -3.9,7.334l-155.06,166.722l93.93,190.037Z" style="fill:#0767af;fill-rule:nonzero;"/><path d="M573.866,373.705l-0.741,0l0.154,-0.724l31.72,-149.661l-146.767,0l-31.965,150.383l-89.002,0.002l0.154,-0.724c3.01,-14.209 73.747,-347.994 74.179,-349.857c2.614,-10.993 6.973,-14.762 10.478,-16.819c3.789,-2.195 9.072,-3.22 16.627,-3.225l48.133,0.002c2.479,0.033 6.554,1.082 9.662,3.309c1.665,1.17 2.962,2.554 3.848,4.11c1.015,1.787 1.51,3.795 1.514,6.138c0,1.007 -0.098,2.096 -0.293,3.238c-0.368,2.132 -24.806,116.19 -27.22,127.458l146.759,0c11.941,-56.327 26.161,-123.385 26.352,-124.21c2.614,-10.994 6.973,-14.763 10.479,-16.82c3.786,-2.194 9.069,-3.218 16.627,-3.223l48.132,0c2.479,0.033 6.554,1.082 9.662,3.309c1.665,1.17 2.962,2.554 3.849,4.11c1.015,1.787 1.509,3.795 1.514,6.138c0,1.007 -0.099,2.096 -0.294,3.238c-0.378,2.195 -72.144,339.015 -75.198,353.351l-0.101,0.475l-88.262,0.002Z" style="fill:#0767af;fill-rule:nonzero;"/><path d="M1962.01,75.543c6.87,1.751 12.32,5.176 15.24,10.877c1.95,3.758 2.76,8.223 2.76,13.456c0,5.39 -0.86,11.659 -2.44,19.128c-2.06,9.694 -4.1,17.672 -7.17,24.552c-3.07,6.873 -7.28,12.623 -13.37,17.4c-12.23,9.554 -31.24,15.436 -64.91,22.988c-44.58,9.906 -75.34,18.15 -97,28.908c-21.66,10.802 -34.29,23.742 -43.78,44.125c-6.3,13.603 -11.08,30.579 -15.66,52.147l-12.58,63.993l288.72,0l13.48,-64.846l-200.9,0c0,0 3.11,-15.575 5.66,-21.282c3.29,-7.381 7.58,-12.923 13.18,-17.041c5.61,-4.129 12.36,-6.823 20.6,-9.119c16.48,-4.576 39.25,-7.676 72.77,-16.232c41.32,-10.687 69.19,-22.365 88.85,-41.315c19.66,-18.933 31.66,-45.546 40.53,-87.232c3.28,-15.433 5.11,-30.599 5.11,-42.084c-0.01,-16.531 -3.181,-29.16 -8.87,-38.891c-5.7,-9.728 -13.94,-16.722 -24.67,-21.876c-21.44,-10.319 -52.89,-12.705 -90.21,-12.674c-47.51,-0.019 -84.88,4.922 -112.69,21.973c-27.78,17.03 -47.12,48.04 -57.89,98.5l-3.04,14.261l87.79,0l3.35,-15.756c3.43,-15.11 6.62,-25.395 12.31,-32.715c5.73,-7.372 13.96,-10.865 25.22,-12.291c7.56,-0.988 16.68,-1.2 28.05,-1.2c1.78,-0.024 3.51,-0.035 5.19,-0.035c10.83,0.006 19.46,0.484 26.37,2.281Z" style="fill:#0767af;fill-rule:nonzero;"/><path d="M2241.78,233.827l-128.5,0l152.87,-158.411l9.31,0l-33.68,158.411Zm-37.59,-193.964c-10.2,10.598 -95.89,100.248 -130.96,137.002c-7,7.5 -14.5,15.833 -17.841,22.666c-2.659,5 -6.199,18.923 -7.999,28.834c-3.74,20.681 -6.53,39.567 -8.25,47.324c-0.45,2.011 -0.64,3.848 -0.64,5.533c0.03,6.36 2.69,10.637 6.25,13.661c3.54,3.001 8.28,4.396 13.05,4.396c4.28,0 170.07,0 170.07,0l-15.66,73.941l89.53,-8.453l13.92,-65.488l31.97,0l13.92,-65.452l-32,0c0,0 31.96,-149.425 32.97,-154.971c10.99,-60.478 -14.11,-78.166 -70.65,-78.166c-14.43,0 -47.1,-2.983 -87.68,39.173Z" style="fill:#0767af;fill-rule:nonzero;"/><path d="M2003.8,580c-57.8,-0.005 -113.3,-15.425 -160.5,-44.595c-46.36,-28.644 -73.43,-62.416 -86.21,-81.511l-16.9,43.516c-1.52,3.984 -5.75,6.497 -10.21,5.756c-4.44,-0.785 -7.65,-4.555 -7.69,-8.973l-0.92,-85.25l0.01,-0.068c0.03,-2.397 1,-4.652 2.7,-6.348c1.77,-1.743 4.09,-2.696 6.55,-2.696l86.76,-0.037l0.08,0.002c4.29,0.129 8,3.262 8.81,7.452c0.11,0.564 0.17,1.149 0.17,1.737c0,3.763 -2.38,7.205 -5.91,8.565l-42.34,16.426c37.12,33.052 113.59,86.27 220.99,86.278c9.18,0 18.5,-0.396 27.73,-1.179c45.29,-3.847 91,-14.975 132.18,-32.178c36.07,-15.071 67.9,-34.3 92.25,-55.713l-43.7,-12.897c-3.89,-1.107 -6.65,-4.739 -6.65,-8.817c0,-0.28 0.01,-0.582 0.04,-0.894c0.43,-4.388 3.96,-7.864 8.39,-8.262l84.74,-7.732c0.38,-0.046 0.69,-0.051 0.94,-0.051c2.16,0.008 4.26,0.763 5.91,2.125c1.94,1.614 3.11,3.853 3.31,6.322c7.04,83.281 7.04,83.306 7.04,83.607c0,4.138 -2.81,7.784 -6.84,8.867c-0.77,0.206 -1.56,0.313 -2.36,0.324c-3.58,-0.011 -6.83,-2.022 -8.37,-5.124l-20.45,-39.207c-16.44,22.176 -45.05,53.543 -89.79,80.735c-45.41,27.607 -96.131,43.954 -150.74,48.587l-5.46,0.462l0,-0.049c-7.91,0.545 -15.82,0.82 -23.56,0.82Z" style="fill:#0767af;fill-rule:nonzero;"/></g></svg>