<?xml version="1.0" encoding="UTF-8" standalone="no"?><!DOCTYPE svg PUBLIC "-//W3C//DTD SVG 1.1//EN" "http://www.w3.org/Graphics/SVG/1.1/DTD/svg11.dtd"><svg width="100%" height="100%" viewBox="0 0 178 47" version="1.1" xmlns="http://www.w3.org/2000/svg" xmlns:xlink="http://www.w3.org/1999/xlink" xml:space="preserve" xmlns:serif="http://www.serif.com/" style="fill-rule:evenodd;clip-rule:evenodd;stroke-linejoin:round;stroke-miterlimit:1.41421;"><clipPath id="_clip1"><rect x="0" y="0" width="178.921" height="46.913" clip-rule="nonzero"/></clipPath><g clip-path="url(#_clip1)"><path d="M74.436,0.732l-7.868,7.752l15.461,14.828l-15.461,14.704l7.868,7.784l22.804,-22.535l-0.697,-0.718l-22.107,-21.815Zm104.055,10.521l0,-9.879l-32.367,0l0,43.929l32.367,0l0,-9.881l-20.982,0l0,-7.441l20.519,0l0,-9.879l-20.519,0l0,-6.849l20.982,0Zm-61.411,24.169l-3.669,0l0,-24.169l3.735,0c8.075,0 12.179,5.269 12.179,12.052c0,6.521 -4.501,12.117 -12.245,12.117Zm0,-34.048l-15.054,0l0,43.929l15.12,0c13.834,0 23.828,-8.365 23.828,-21.998c0,-13.632 -9.994,-21.931 -23.894,-21.931Zm-61.084,-0.595l-22.109,21.816l-0.701,0.717l22.81,22.535l7.888,-7.784l-15.483,-14.702l15.483,-14.829l-7.888,-7.753Zm-32.908,34.935c-6.211,0 -11.247,-5.54 -11.247,-12.376c0,-6.835 5.036,-12.377 11.247,-12.377c3.034,0 5.78,1.326 7.802,3.472l7.943,-7.839c-4.119,-4.221 -9.784,-6.832 -16.04,-6.832c-12.588,0 -22.793,10.556 -22.793,23.576c0,13.02 10.205,23.575 22.793,23.575c6.268,0 11.945,-2.62 16.066,-6.857l-7.944,-7.838c-2.024,2.161 -4.781,3.496 -7.827,3.496"/></g></svg>