<?xml version="1.0" encoding="UTF-8" standalone="no"?><!DOCTYPE svg PUBLIC "-//W3C//DTD SVG 1.1//EN" "http://www.w3.org/Graphics/SVG/1.1/DTD/svg11.dtd"><svg width="100%" height="100%" viewBox="0 0 76 41" version="1.1" xmlns="http://www.w3.org/2000/svg" xmlns:xlink="http://www.w3.org/1999/xlink" xml:space="preserve" xmlns:serif="http://www.serif.com/" style="fill-rule:evenodd;clip-rule:evenodd;stroke-linejoin:round;stroke-miterlimit:1.41421;"><rect id="eco" x="0" y="0" width="76.224" height="41" style="fill:none;"/><clipPath id="_clip1"><rect x="0" y="0" width="76.224" height="41"/></clipPath><g clip-path="url(#_clip1)"><rect id="Artboard1" x="0" y="0" width="75.886" height="41.036" style="fill:none;"/><g><rect x="-16.756" y="-19.168" width="144.847" height="72.674" style="fill:#fff;"/><path d="M7.278,32.081c0.072,-0.062 1.734,-0.477 3.567,-0.477c1.83,0 3.494,0.403 3.567,0.477c0.074,0.07 0.476,1.725 0.476,3.565c0,1.845 -0.411,3.492 -0.476,3.569c-0.064,0.081 -1.726,0.474 -3.567,0.474c-1.845,0 -3.504,-0.393 -3.567,-0.474c-0.066,-0.077 -0.477,-1.724 -0.477,-3.569c0,-1.84 0.402,-3.505 0.477,-3.565" style="fill:#ed1c24;fill-rule:nonzero;"/><path d="M33.675,32.081c0.072,-0.062 1.735,-0.477 3.568,-0.477c1.83,0 3.494,0.403 3.567,0.477c0.075,0.07 0.476,1.725 0.476,3.565c0,1.845 -0.41,3.492 -0.476,3.569c-0.066,0.081 -1.725,0.474 -3.567,0.474c-1.845,0 -3.504,-0.393 -3.568,-0.474c-0.066,-0.077 -0.474,-1.724 -0.474,-3.569c0,-1.84 0.399,-3.505 0.474,-3.565" style="fill:#bbbdc0;fill-rule:nonzero;"/><path d="M60.071,32.081c0.074,-0.062 1.736,-0.477 3.569,-0.477c1.83,0 3.493,0.403 3.568,0.477c0.074,0.07 0.474,1.725 0.474,3.565c0,1.845 -0.409,3.492 -0.474,3.569c-0.064,0.081 -1.725,0.474 -3.568,0.474c-1.844,0 -3.501,-0.393 -3.569,-0.474c-0.064,-0.077 -0.475,-1.724 -0.475,-3.569c0,-1.84 0.402,-3.505 0.475,-3.565" style="fill:#231f20;fill-rule:nonzero;"/><path d="M63.59,0.837c-6.756,0 -12.068,5.211 -12.068,12.019c0,6.803 5.312,12.017 12.068,12.017c6.757,0 12.067,-5.214 12.067,-12.017c0,-6.808 -5.31,-12.019 -12.067,-12.019m0,4.152c4.294,0 7.725,3.571 7.725,7.867c0,4.245 -3.431,7.866 -7.725,7.866c-4.296,0 -7.722,-3.621 -7.722,-7.866c0,-4.296 3.426,-7.867 7.722,-7.867" style="fill:#231f20;fill-rule:nonzero;"/><path d="M44.151,8.508l3.849,-2.044c-2.104,-3.414 -5.877,-5.627 -10.267,-5.627c-6.759,0 -12.068,5.21 -12.068,12.018c0,6.804 5.309,12.018 12.068,12.018c4.39,0 8.157,-2.211 10.264,-5.622l-3.861,-2.052c-1.38,2.102 -3.718,3.524 -6.403,3.524c-4.296,0 -7.725,-3.621 -7.725,-7.868c0,-4.294 3.429,-7.867 7.725,-7.867c2.694,0 5.038,1.411 6.418,3.52" style="fill:#231f20;fill-rule:nonzero;"/><path d="M4.469,13.53l17.23,0l0,-0.674c0,-6.711 -3.378,-12.019 -10.569,-12.019c-7.29,0 -11.007,5.211 -11.007,12.162c0,6.66 4.199,11.874 11.103,11.874c4.155,0 7.917,-2.036 10.112,-5.562l-3.713,-2.058c-1.536,2.329 -3.292,3.759 -6.351,3.759c-4.152,0 -6.759,-3.621 -6.805,-7.482m0.24,-3.282c0.534,-3.233 3.042,-5.648 6.421,-5.648c3.474,0 5.694,2.27 6.227,5.648l-12.648,0Z" style="fill:#231f20;fill-rule:nonzero;"/></g></g></svg>