<?xml version="1.0" encoding="UTF-8" standalone="no"?><!DOCTYPE svg PUBLIC "-//W3C//DTD SVG 1.1//EN" "http://www.w3.org/Graphics/SVG/1.1/DTD/svg11.dtd"><svg width="100%" height="100%" viewBox="0 0 543 153" version="1.1" xmlns="http://www.w3.org/2000/svg" xmlns:xlink="http://www.w3.org/1999/xlink" xml:space="preserve" xmlns:serif="http://www.serif.com/" style="fill-rule:evenodd;clip-rule:evenodd;stroke-linejoin:round;stroke-miterlimit:1.41421;"><g><path d="M283.4,30.7l18.2,0l0,18.6l-18.2,0l0,45.9c0,8.4 2.1,10.5 10.5,10.5c2.6,0 5.1,-0.2 7.7,-0.7l0,19.4c-4.2,0.7 -9.6,0.9 -14.5,0.9c-15.2,0 -28.6,-3.5 -28.6,-21.6l0,-54.4l-13.7,0l0,-18.6l13.7,0l0,-26.9l24.9,0l0,26.9Z" style="fill-rule:nonzero;"/><path d="M346.2,29.1c28.6,0 47,18.9 47,47.8c0,28.7 -18.4,47.7 -47,47.7c-28.4,0 -46.8,-18.9 -46.8,-47.7c0,-28.9 18.4,-47.8 46.8,-47.8Zm0,76.7c17,0 22.1,-14.5 22.1,-28.9c0,-14.5 -5.1,-29.1 -22.1,-29.1c-16.8,0 -21.9,14.5 -21.9,29.1c0,14.4 5.1,28.9 21.9,28.9Z" style="fill-rule:nonzero;"/><path d="M505.7,133.2c-5.4,14.5 -14,20.5 -31.2,20.5c-5.1,0 -10.2,-0.3 -15.2,-0.9l0,-20.5c4.7,0.3 9.6,1.1 14.5,0.9c8.6,-0.9 11.4,-9.8 8.6,-17l-31.9,-85.5l26.6,0l20.5,62.6l0.3,0l19.8,-62.6l25.8,0l-37.8,102.5Z" style="fill-rule:nonzero;"/><path d="M220.8,63.4c-1.6,-10.2 -8.1,-15.6 -18.4,-15.6c-15.9,0 -21.2,16.1 -21.2,29.4c0,13 5.1,28.6 20.7,28.6c11.6,0 18.2,-7.4 19.8,-18.4l24,0c-3.2,24 -19.8,37.1 -43.6,37.1c-27.3,0 -45.7,-19.3 -45.7,-46.4c0,-28.2 16.8,-49.1 46.3,-49.1c21.4,0 41,11.2 42.6,34.3l-24.5,0l0,0.1Z" style="fill-rule:nonzero;"/><path d="M67.4,59.4c1.4,-23.3 22.2,-30.3 42.6,-30.3c18,0 39.8,4 39.8,25.8l0,47.1c0,8.2 1.3,17.3 3.6,21l-25.4,0c-0.9,-2.8 -1.8,-6.6 -2,-9.6c-7.9,8.2 -19.4,11.2 -30.5,11.2c-17.2,0 -30.8,-8.6 -30.8,-27.2c0,-20.5 15.4,-25.4 30.8,-27.5c15.2,-2.3 29.4,-1.8 29.4,-11.9c0,-10.7 -7.4,-12.3 -16.1,-12.3c-9.5,0 -15.6,3.9 -16.5,13.7l-24.9,0Zm57.5,18.4c-4.2,3.7 -13,3.9 -20.7,5.3c-7.7,1.6 -14.7,4.2 -14.7,13.3c0,9.3 7.2,11.6 15.2,11.6c19.4,0 20.1,-15.4 20.1,-20.8l0,-9.4l0.1,0Z" style="fill-rule:nonzero;"/><path d="M82.8,0l0,23.2l-56.4,0l0,26.3l34.9,0l0,21.5l-35.1,0l0,51.9l-26.2,0l0,-122.9l82.8,0Z" style="fill-rule:nonzero;"/><path d="M446.7,30.7c-11.8,1.6 -20.1,9.4 -24,19.2l-0.4,0l0,-19.2l-23.7,0l0,92.2l24.9,0l0,-40c0,-15.5 6,-28.4 23.1,-29l0,-23.2l0.1,0Z" style="fill-rule:nonzero;"/></g></svg>