<?xml version="1.0" encoding="utf-8"?>
<!-- Generator: Adobe Illustrator 19.0.0, SVG Export Plug-In . SVG Version: 6.00 Build 0)  -->
<svg version="1.1" id="WORDMARK" xmlns="http://www.w3.org/2000/svg" xmlns:xlink="http://www.w3.org/1999/xlink" x="0px" y="0px"
	 viewBox="0 0 543.5 153.7" style="enable-background:new 0 0 543.5 153.7;" xml:space="preserve">
<style type="text/css">
	.st0{fill:#FFFFFF;}
</style>
<g>
	<path class="st0" d="M283.4,30.7h18.2v18.6h-18.2v45.9c0,8.4,2.1,10.5,10.5,10.5c2.6,0,5.1-0.2,7.7-0.7v19.4
		c-4.2,0.7-9.6,0.9-14.5,0.9c-15.2,0-28.6-3.5-28.6-21.6V49.3h-13.7V30.7h13.7V3.8h24.9V30.7z"/>
	<path class="st0" d="M346.2,29.1c28.6,0,47,18.9,47,47.8c0,28.7-18.4,47.7-47,47.7c-28.4,0-46.8-18.9-46.8-47.7
		C299.4,48,317.8,29.1,346.2,29.1z M346.2,105.8c17,0,22.1-14.5,22.1-28.9c0-14.5-5.1-29.1-22.1-29.1c-16.8,0-21.9,14.5-21.9,29.1
		C324.3,91.3,329.4,105.8,346.2,105.8z"/>
	<path class="st0" d="M505.7,133.2c-5.4,14.5-14,20.5-31.2,20.5c-5.1,0-10.2-0.3-15.2-0.9v-20.5c4.7,0.3,9.6,1.1,14.5,0.9
		c8.6-0.9,11.4-9.8,8.6-17l-31.9-85.5h26.6l20.5,62.6h0.3l19.8-62.6h25.8L505.7,133.2z"/>
	<path class="st0" d="M220.8,63.4c-1.6-10.2-8.1-15.6-18.4-15.6c-15.9,0-21.2,16.1-21.2,29.4c0,13,5.1,28.6,20.7,28.6
		c11.6,0,18.2-7.4,19.8-18.4h24c-3.2,24-19.8,37.1-43.6,37.1c-27.3,0-45.7-19.3-45.7-46.4c0-28.2,16.8-49.1,46.3-49.1
		c21.4,0,41,11.2,42.6,34.3H220.8z"/>
	<path class="st0" d="M67.4,59.4c1.4-23.3,22.2-30.3,42.6-30.3c18,0,39.8,4,39.8,25.8V102c0,8.2,1.3,17.3,3.6,21H128
		c-0.9-2.8-1.8-6.6-2-9.6c-7.9,8.2-19.4,11.2-30.5,11.2c-17.2,0-30.8-8.6-30.8-27.2c0-20.5,15.4-25.4,30.8-27.5
		c15.2-2.3,29.4-1.8,29.4-11.9c0-10.7-7.4-12.3-16.1-12.3c-9.5,0-15.6,3.9-16.5,13.7H67.4z M124.9,77.8c-4.2,3.7-13,3.9-20.7,5.3
		c-7.7,1.6-14.7,4.2-14.7,13.3c0,9.3,7.2,11.6,15.2,11.6c19.4,0,20.1-15.4,20.1-20.8V77.8z"/>
	<polygon class="st0" points="82.8,0 82.8,23.2 26.4,23.2 26.4,49.5 61.3,49.5 61.3,71 26.2,71 26.2,122.9 0,122.9 0,0 82.8,0 	"/>
	<path class="st0" d="M446.7,30.7c-11.8,1.6-20.1,9.4-24,19.2h-0.4V30.7h-23.7v92.2h24.9v-40c0-15.5,6-28.4,23.1-29V30.7z"/>
</g>
</svg>
