<?xml version="1.0" encoding="utf-8"?>
<!-- Generator: Adobe Illustrator 21.1.0, SVG Export Plug-In . SVG Version: 6.00 Build 0)  -->
<svg version="1.1" id="Layer_1" xmlns="http://www.w3.org/2000/svg" xmlns:xlink="http://www.w3.org/1999/xlink" x="0px" y="0px"
	 viewBox="0 0 601.1 83.5" style="enable-background:new 0 0 601.1 83.5;" xml:space="preserve">
<style type="text/css">
	.st0{clip-path:url(#SVGID_2_);fill:#EFEFEF;}
	.st1{fill:#86CC00;}
	.st2{fill:#0C0C0C;}
</style>
<g>
	<g>
		<g>
			<defs>
				<rect id="SVGID_1_" x="247" y="-202.8" width="129.8" height="129.8"/>
			</defs>
			<clipPath id="SVGID_2_">
				<use xlink:href="#SVGID_1_"  style="overflow:visible;"/>
			</clipPath>
			<path class="st0" d="M311.9-73c35.9,0,64.9-29.1,64.9-64.9c0-35.9-29.1-64.9-64.9-64.9s-64.9,29-64.9,64.9
				C247-102.1,276.1-73,311.9-73"/>
		</g>
	</g>
</g>
<g>
	<g>
		<path class="st1" d="M18.3,78.5c-0.1-0.1-0.3-0.4-0.3-0.6c-0.1-0.7-0.1-1.5-0.1-2.3c0.1-1.2,0.1-2.3,0.1-3.5
			c0.1-1.4,0.1-2.7,0.1-4.2c0.1-0.9-0.1-1.9-0.1-2.8c0.1-1.4,0.3-11.1,0.4-12.5c0.1-0.2,0.1-0.4,0.1-0.7c-0.3-2.6-0.1-5.4,0.1-8
			c0.1-1.1,0-2.3,0.1-3.5c0-2.6,0-5.3,0.3-7.9c0.1-0.7,0.1-1.5,0.1-2.3c-0.4-0.1-0.7-0.2-1.1-0.3c-1.2-0.2-2.4-0.4-3.7-0.6
			c-0.7-0.1-0.8-0.2-0.4-0.9c0.5-1.1,1.5-1.6,2.6-1.9c1.1-0.2,2.1-0.5,3.3-0.8c0.1-3.5,0.1-6.9,0.1-10.4c-0.6-0.1-1.2-0.4-1.8-0.4
			c-2.8-0.7-5.8-1.2-8.6-1.8c-3.7-0.7-7,4-4.8,7.2c0.6,0.9,1.2,1.9,2.3,2.6c0.9,0.7,2,1.1,3.2,1.2c0.7,0.1,1.5,0.4,2.3,0.6
			c0.6,0.3,0.7,0.8,0.1,1.2c-0.2,0.2-0.6,0.3-0.9,0.4c-1.7,0.3-4,0.7-5.4-0.1C3.8,24.8,1.6,23,1.2,20c-0.2-1.2,0.1-2.4,0.5-3.6
			c1.6-3.7,5.1-6.2,8.7-7.6c1.2-0.4,2.7-0.7,4.1-0.7c1.5,0,3.2,0,4.8,0c2.8,0.1,5.6,0.4,8.3,0.9c1.7,0.3,3.5,0.8,5.1,1.2
			c1.9,0.4,3.9,0.6,5.9,0.5c1.2,0,2.4-0.2,3.7-0.5c1.7-0.3,2.9-1.5,3.9-2.8c0.2-0.3,0.4-0.6,0.5-0.9C46.8,6.2,47,6,47.5,6.1
			c-0.1,0.8,0.2,1.6,0,2.5c-0.3,1.3-1,2.3-1.9,3.4c-0.4,0.4-0.7,0.9-1.2,1.2c-0.6,0.4-1.3,0.9-2,1.2c-4.5,1.5-8.9,2.1-13.6,1.8
			c-0.2,0-0.5,0-0.8,0c-0.1,0-0.1,0.1-0.2,0.1c0,1.2,0.1,2.4,0.1,3.7c0,0.8-0.1,1.7-0.2,2.6c-0.1,0.7-0.1,1.4-0.1,2.2
			c0,0.8,0.1,0.9,0.9,1.1c1,0.2,2.1,0.4,3.2,0.7c0.6,0.1,1.2,0.3,1.8,0.4c0.6,0.1,1.2,0.1,1.8,0.1c0.7,0.1,1.5,0.1,2.3,0.1
			c0.1,0.7,0.2,1.2,0.2,1.8c0,0.6-0.1,0.9-0.8,1c-0.9,0.2-1.8,0.4-2.7,0.4c-1.9,0.1-3.8,0.2-5.7,0.3c-0.8,0-0.9,0.1-0.8,0.9
			c0.1,1.2,0.1,2.4,0.2,3.7c0.1,1.3,0.1,2.7,0.1,4.1c-0.1,1.3-0.2,2.7-0.4,4.1c-0.3,1.6-0.7,3.2-0.9,4.8c-0.1,0.8-0.3,1.6-0.4,2.3
			c-0.1,0.4-0.2,0.8-0.3,1.2c-0.1,0.2-0.2,0.4-0.2,0.7c-0.1,0.9-0.1,10.1-0.8,10.8c0,0.7-0.1,1.5-0.5,2.2c-0.1,0.5,0.1,1.2-0.3,1.7
			c-0.1,0.1,0,0.3,0.1,0.4c0.3,0.5,0.3,0.9,0,1.4c0,0.1-0.1,0.1,0,0.2c0.4,1.2-0.2,2.3-0.3,3.5c-0.1,0.7-0.4,1.5-0.5,2.1
			c-0.2,0.7-0.6,1.4-1,2c-0.3,0.5-0.8,0.9-1.2,1.4c-0.3,0.3-0.5,0.6-0.9,1C19.5,79.3,18.9,78.9,18.3,78.5z"/>
		<path class="st1" d="M59.8,43.3c-0.1,0.2-0.1,0.4-0.3,0.6c-0.6,0.7-1,1.5-1.4,2.4c-0.1,0-0.1,0.2-0.1,0.3c0,0.9-0.7,1.5-0.9,2.2
			c-0.4,0.5-0.7,1.2-1.1,1.8c-2.2,2.7-3.4,6.2-6.4,8.3c-2.3,1.7-4.7,4-7.8,3.8c-1.1-0.1-2.1-0.5-3.3-0.8c-0.1,0-0.1-0.1-0.3-0.1
			c-0.9-0.6-1.7-1.2-2.3-2c-0.9-1.4-1.4-2.9-1.5-4.6c-0.1-1.9-0.1-3.8,0.1-5.7c0.1-1.2,0.3-2.4,0.4-3.7c0-0.3,0.1-0.5,0.1-0.8
			c0.3-1.2,0.5-2.3,0.7-3.7c0.4-1.5,0.9-2.9,1.5-4.5c0.1-0.2,0.2-0.4,0.3-0.6c0.4-0.4,0.7-0.9,0.9-1.5c0-0.1,0.1-0.1,0.1-0.2
			c0.3-1,1-1.9,1.8-2.6c0.1-0.1,0.4-0.3,0.5-0.4c1.2-0.7,2.5-1.2,4-1.4c0.8-0.1,1.5-0.4,2.3-0.2c0.4,0,0.9,0.1,1.2,0.1
			c0.1,0,0.3,0.1,0.4,0.1c4.8,0.1,2.6,8.9,0.1,10.9c-0.4,0.2-0.8,0.4-1.1,0.8c0.2,0.1,0.1,0.1-0.1,0.1c-0.4,0.2-0.7,0.4-1.2,0.6
			c-0.9,0.3-1.7,0.7-2.5,0.8c-1.3,0.2-1.2,0.1-1.5,1.2c-0.1,0.4-0.1,0.7-0.1,0.9c0.1,3.8-2,9.8,0.2,13c0.4,0.5,0.9,0.9,1.5,1.1
			c0.3,0.2,0.6,0.1,0.9,0.1c0.7-0.2,1.3-0.5,1.9-0.9c0.9-0.6,1.7-1.2,2.5-1.8c0.4-0.3,0.7-0.6,0.9-0.9c0.9-1.2,1.8-2.3,2.4-3.7
			c0.1-0.3,0.4-0.5,0.5-0.7c1.2-1.4,2-3.1,2.9-4.6c0.1-0.2,0.3-0.4,0.4-0.7c0.5-1.2,1.2-2.2,1.9-3.3c0.1-0.3,0.4-0.6,0.8-0.6
			C59.4,42.9,59.6,43,59.8,43.3z M49.6,32.9c0-0.1-0.1-0.3-0.2-0.4c-0.7-0.7-1.5-1.2-2.6-1c-0.8,0.1-1.4,0.5-1.7,1.3
			c-0.3,0.8-0.7,1.6-0.8,2.6c0,0.2-0.1,0.5-0.2,0.7c-0.4,0.8-0.4,1.7-0.6,2.5c-0.1,0.7-0.1,1.2-0.4,1.8c-0.1,0.4-0.3,0.8-0.1,1.2
			c1.2-0.1,2.3-0.4,3.5-0.9c0.7-0.4,1.3-0.8,1.8-1.5c0.7-0.9,1.2-1.8,1.8-2.7c0.1-0.1,0.2-0.4,0.1-0.6c-0.1-0.4,0-0.7,0.1-1
			c0.1-0.2,0.1-0.5,0.2-0.7C50,33.8,49.8,33.4,49.6,32.9z"/>
		<path class="st1" d="M107.2,63.1c-0.7,1.1-1.4,2.2-1.9,3.5c-0.5,1-1.1,1.9-2.1,2.6c-1.1,0.8-1.8,1.8-3.3,2.3
			c-0.1,0-0.2,0.1-0.4,0.1c-1.4,0.1-2.7,0-4.1-0.5c-0.9-0.3-1.6-0.8-2.3-1.5c-1.1-1.2-1.7-2.7-2.1-4.3c-0.1-0.4-0.1-0.8-0.1-1.2
			c-0.1-0.9-0.2-1.8-0.4-2.8c0-0.1,0-0.2,0-0.3c0-1.5-0.1-3.1,0-4.6c0.4-6.8,2.6-13.2,5-19.5c0.6-1.5,1.1-2.8,1.7-4.3
			c0.4-1,0.5-2.1,0.8-3.3c-0.1-0.1-0.3-0.1-0.4-0.1c-0.2,0.1-0.4,0.1-0.4,0.2c-3.1,2.4-5.5,5.4-8.3,8c-1.8,1.6-2.8,4-4,6.1
			c-1.3,2.3-2.6,4.7-4.1,6.9c-0.1,0.1-0.2,0.3-0.3,0.4c-0.5,1-1.1,2-1.5,3.2c-0.1,0.1-0.2,0.4-0.3,0.6c-0.3,0.5-0.6,1-0.8,1.6
			c-0.1,0.3-0.1,0.7-0.1,1c-0.1,0.4-0.2,0.7-0.2,0.9c0,0.3,0,0.5,0,0.7c-0.4,0.2-0.9-0.1-1.3,0.3c0.1,0.1,0.1,0.4,0.1,0.7
			c-0.2-0.1-0.3-0.1-0.4-0.1c-0.3,0.1-0.5,0-0.7-0.2c-0.3-0.2-0.6-0.4-0.9-0.6c-0.5-0.2-0.9-0.7-1.2-1.3c-0.3-0.9-0.4-1.9-0.4-2.9
			c-0.1-1.9,0.2-3.8,0.7-5.7c0.1-0.5,0.3-1,0.4-1.5c0.9-2.9,1.8-5.9,2.6-8.8c0.1-0.1,0.1-0.3,0.1-0.4c0.5-1.4,0.8-2.8,1-4.3
			c0.1-0.4,0.3-0.8,0.1-1.3c-0.1,0.1-0.2,0.1-0.2,0.1c-0.2,0.2-0.4,0.4-0.5,0.7c-0.1,0.4-0.4,0.6-0.7,0.8c-1.2,0.7-2.1,2.8-3.1,4
			c-1,1.5-2,2.9-2.8,4.6c-0.8,1.5-1.3,3.4-2.2,4.9c-0.7,1.2-1.1,2.4-1.6,3.7c-0.1,0.3-0.2,0.6-0.2,0.8c0,0.9-0.5,1.6-0.9,2.4
			c-0.2,0.4-0.5,0.9-0.7,1.4c-0.2,0.4-0.5,0.9-0.9,1.2s-0.7,0.7-1,1c-0.4,0.4-0.9,0.8-1.3,1.1c-0.3,0.2-0.6,0.2-0.9,0
			c-0.1-0.1-0.4-0.1-0.5-0.2c-0.3,0-0.5-0.1-0.7-0.4c-0.2-0.2-0.4-0.3-0.7-0.3c-0.1,0-0.1,0-0.1,0c-1-0.1-1.5-0.9-1.5-1.7
			c0-0.6,0-1.2,0-1.8c0-1.6,0.1-3.2,0.1-4.8c0.1-0.7,0.1-1.4,0.2-2.1c0.3-2.6,0.8-5.1,1.2-7.6c0.3-1.8,0.3-3.7,0.7-5.4
			c0.5-2,0.9-4,1.2-6c0.1-0.6,0.1-1.2,0.1-1.8c0-0.3,0.1-0.4,0.4-0.4c0.2-0.1,0.4-0.1,0.7,0c0.3,0,0.5,0.1,0.8,0.1
			c0.5,0.1,0.9,0.2,1.3,0.7c0.1,0.2,0.4,0.4,0.7,0.4c0.3,0.1,0.4,0.4,0.4,0.7c0,0.4,0,0.9,0,1.3c0,0.5,0.1,0.9,0.4,1.4
			c0.8,0.9,0.4,2.2,0.1,3.3c-0.4,1.5-0.3,3.2-0.5,4.8c-0.1,1.8-0.2,3.7-0.3,5.5c0,0.2-0.1,0.5-0.1,0.8c-0.1,0.3-0.1,0.6-0.1,0.9
			c0,0.4-0.1,0.8-0.1,1.3c0.1-0.1,0.2-0.1,0.3-0.2c0.4-0.8,0.7-1.6,1.2-2.3c0.4-0.7,0.8-1.5,1.2-2.1c0.9-1.4,1.7-2.7,2.4-4.3
			c0.3-0.5,0.6-1,0.9-1.5c0.3-0.5,0.7-0.9,0.9-1.5c0.1-0.2,0.3-0.4,0.5-0.7c0.7-0.7,1.3-1.5,2-2.2c0.6-0.7,1.3-1.2,2-1.8
			c0.4-0.2,0.9-0.5,1.2-0.8c0.3-0.2,0.6-0.3,0.9-0.3c0.1,0,0.2,0,0.4,0c0.7,0.1,1.3-0.2,2,0.1c0.6,0.3,1.2,0.6,1.8,0.9
			c0.2,0.1,0.4,0.2,0.7,0.4c0,0.4,0,0.7,0.1,1c0,0.4,0.2,0.7,0.2,1c0.1,0.9,0.1,1.8-0.1,2.6c-0.1,1-0.2,2-0.4,2.9
			c-0.1,0.7-0.2,1.5-0.4,2.1c0,0.1-0.1,0.3-0.1,0.4c-0.2,0.3-0.3,0.7-0.4,1c0,0.2-0.1,0.4-0.1,0.7c0,0.1,0,0.3-0.1,0.4
			c0.2,0,0.3-0.1,0.4-0.2c0.9-1.4,1.7-2.8,2.6-4.3c0.1-0.2,0.2-0.4,0.4-0.6c1.1-1.2,1.9-2.6,2.9-4c0.2-0.1,0.3-0.4,0.4-0.7
			c0.7-1.2,1.6-2.3,2.6-3.5c0.9-0.8,1.7-1.7,2.6-2.5c0.7-0.7,1.5-1.4,2.5-1.8c0.4-0.1,0.7-0.4,0.9-0.5c0.3-0.2,0.7-0.3,1-0.2
			c0.8,0.1,1.6,0.1,2.5,0.2c0.4,0.1,0.8,0.1,1.2,0.4c0.5,0.1,1,0.5,1.6,0.7c0.2,0.1,0.4,0.2,0.6,0.4c0.4,0.5,0.7,1.2,0.6,1.9
			c-0.1,0.5-0.2,1.1,0,1.6c0.1,0.1,0,0.3,0,0.4c-0.1,0.1-0.1,0.4-0.1,0.5c0.1,0.6,0,1.1-0.2,1.6c-0.3,0.7-0.2,1.5-0.4,2.3
			c-0.2,0.8-0.5,1.6-0.9,2.4c-0.8,1.8-1.8,3.6-2.5,5.4c-0.7,1.9-1,4-1.4,5.9c-0.7,3.8-1.8,7.6-1.9,11.4c0,0.8,0.1,1.5-0.1,2.2
			c-0.6,1.8-0.1,4.4,1.6,5.4c0.2,0.1,0.4,0.1,0.7,0c0.2-0.1,0.4-0.3,0.6-0.4c0.6-0.6,1.2-1.2,1.6-2c0.2-0.4,0.4-0.7,0.7-1
			c1.7-2.4,2.6-5.3,4.3-7.7c2-3.1,3.3-6.4,5.1-9.6c0.7-1.2,1.5-2.4,2.3-3.7c0.1-0.1,0.3-0.4,0.4-0.6c0.2-0.5,0.6-0.8,1-1.1
			c0.3,0.1,0.5,0.1,0.8,0.1c0.3,0,0.5-0.1,0.8,0.1c-0.1,0.6-0.4,1.2-0.7,1.7c-0.3,0.4-0.5,0.7-0.7,1.2c-0.4,0.7-1,1.4-1.4,2
			c-0.9,1.8-1.6,3.7-2.6,5.3c-0.8,1.4-0.9,3.2-1.8,4.5c-0.7,1-0.9,2.3-1.4,3.5C107.8,61.9,107.5,62.6,107.2,63.1z"/>
		<path class="st1" d="M122.5,51.7c-0.9,0.8-1.9,1.5-3.3,1.6c-0.9,0.1-1.7,0.4-2.6,0.5c-1.7,0.1-3.3-0.3-4.3-1.8
			c-0.4-0.4-0.6-1-0.7-1.6c-0.4-1.6-0.5-3.3-0.1-5c0.1-0.7,0.2-1.5,0.4-2.2c0.2-0.7,0.4-1.5,0.7-2.2c0.3-0.9,0.7-1.8,0.9-2.6
			c0.5-1.8,1.4-3.5,2.6-4.8c0.4-0.4,0.8-0.9,1.2-1.4c0.6-0.8,1.5-1.2,2.3-1.5c0.6-0.2,1.2-0.4,1.8-0.7c1-0.4,2.1-0.3,3.2-0.5
			c0.2,0,0.4,0,0.7-0.1c0.9-0.3,1.7-0.1,2.6,0c0.7,0.1,1.2,0.6,1.7,1.2c0.3,0.4,0.7,0.9,0.9,1.4c0.4,0.8,0.4,1.5-0.3,2.1
			c-0.1,0.1-0.4,0.2-0.7,0.2c-0.2,0.1-0.4-0.1-0.4-0.4c-0.1-1.2-1-1.9-1.8-2.8c-0.1-0.1-0.1-0.1-0.2-0.2c-0.8-0.3-1.7-0.4-2.5-0.1
			c-1.4,0.3-2.6,0.8-3.5,2c-1,1.8-1.7,4.2-2.4,6.1c-0.4,0.9-0.7,2-1,2.9c-0.7,2.3-1.4,4.6-0.8,7c0.3,1.4,2.3,2.5,3.6,1.9
			c1.7-0.7,3.2-3.5,4.1-5.1c0.2-0.5,0.3-1.1,0.4-1.7c0.1-0.6,0.2-1.2,0.4-1.8c0.2-0.9,0.6-1.8,0.9-2.6c0.3-0.9,0.7-1.8,0.9-2.8
			c0.2-0.7,0.6-1.2,1.2-1.2c0.5-0.1,0.9-0.2,1.4-0.3c0.6-0.1,0.9,0.2,1.1,0.7c0.1,0.1,0.1,0.3,0.2,0.4c0.1,0.7-0.5,1.4-0.1,2.1
			c0.1,0.4,0,0.7,0,1.1c0,1.5-0.6,3.7-0.9,5.3c-0.3,1.8-0.3,2.9-0.6,4.8c-0.1,0.6-0.3,1.1-0.4,1.7c-0.1,1.1-0.3,2.2-0.4,3.5
			c-0.1,0.4-0.1,0.9-0.1,1.4c0,0.6-0.7,4,1.4,3.1c0.6-0.3,2.2-1.8,2.6-2.3c0.7-1.1,2-2.9,2.6-4.3c1.2-2.4,2.8-6.4,4.1-8.8
			c0.2-0.4,0.1-0.9,0.5-0.9c0.3-0.1,0.6-0.1,0.9-0.1c0.4,0,0.5,0.1,0.4,0.4c-0.1,0.4-0.1,0.9-0.3,1.3c-0.7,0.9-2,4.6-2.5,5.6
			c-1.9,4.5-4.7,10.9-9.6,12.5c-1.2,0.4-3.4,0.2-4.3-0.7c-0.3-0.2-0.5-0.5-0.7-0.8c-0.9-1.5-1-3.4-0.9-5.1c0.1-1.4,0.2-2.7,0.4-4.2
			c0-0.1,0-0.4,0-0.7C122.9,51.4,122.6,51.6,122.5,51.7z"/>
		<path class="st1" d="M162.4,44.7c-0.1,1.2-0.6,2.3-1.2,3.5c-0.9,1.8-1.7,3.8-2.6,5.6c-0.7,1.5-1.8,2.9-2.6,4.6
			c-1.3,2.6-2.4,5.1-4.1,7.4c-0.3,0.5-0.6,1.1-0.9,1.5c-0.7,0.7-1.2,1.5-2,2.1c-1.2,1-2.7,1.8-4.4,2c-0.4,0.1-0.9-0.1-1.4-0.3
			c-2.3-1.2-3.1-3.2-3.8-5.7c-0.4-1.8-0.7-3.6-0.9-5.3c-0.1-1.2-0.4-2.4-0.5-3.7c-0.3-3.7,0.1-7.2,0.2-10.9c0.1-2.8,0.2-5.8,0.9-8.6
			c0.7-3.1,1.5-6,1.8-9.2c0.3-2.9,1.5-5.7,2.5-8.5c0.9-2.6,1.8-5.2,2.8-7.8c0.9-2,2-4.3,4-5.7c2.8-2,5.4-3.3,8.8-3.5
			c0.4-0.1,0.9,0.1,1.4,0.1c0.9-0.1,1.6,0.1,2.2,0.9c0.1,0.1,0.4,0.2,0.5,0.3s0.3,0.1,0.4,0.2c0.1,0.8,0.9,1.2,1,2.1
			c0.1,0.8,0.6,1.5,0.7,2.3c0.5,2.7-0.1,5.5-1,8.1c-0.8,2.5-1.7,5-3.1,7.3c-0.4,0.9-0.7,1.9-1.2,2.8c-0.5,1-1.2,2-1.8,3.1
			c-0.8,1.4-1.8,2.8-2.7,4.2c-0.9,1.4-2,2.6-3.4,3.7c-0.7,0.6-1.2,1.2-1.9,1.8c-0.8,0.7-1.6,1.5-2.5,2.1c-0.5,0.4-1.1,0.7-1.6,1.1
			c-0.4,0.2-0.6,0.6-0.6,1c-0.1,1.7-0.4,3.4-0.5,5.1c-0.1,1.4-0.4,2.9-0.2,4.4c0.5,3.2,0.4,6.3,0.5,9.5c0.1,0.5,0.3,0.9,0.4,1.4
			c0.5,1.1,1.3,1.9,2.3,2.6c0.1,0.1,0.6,0.1,0.7-0.1c0.5-0.4,1.1-0.9,1.5-1.5c0.7-1.2,1.3-2.3,2-3.7c2.7-5.2,5.4-10.6,7.8-15.9
			c0.2-0.5,0.4-1.1,0.7-1.7c0.3-0.7,1-1,1.5-1.5c0.1,0,0.1,0,0.2,0.1C162.5,43.2,162.5,43.9,162.4,44.7z M145.8,40.9
			c0.4-0.4,0.9-0.7,1.5-1c1.9-1.5,3.7-3.2,5.2-5.1c1.5-2,2.9-4.1,4.1-6.3c0.7-1.3,1.4-2.6,2-4.1c0.7-1.5,1.2-3.3,1.7-4.9
			c0.3-0.8,0.6-1.7,0.8-2.5c0.1-0.9,0.3-1.8,0.4-2.7c0.1-1.1,0.3-2.3,0.1-3.5c-0.1-0.7-0.4-1.5-0.6-2.1c-0.1-0.6-0.3-1.1-0.7-1.5
			C160.2,7,160,6.7,160,6.4c-0.1-0.4-0.4-0.7-0.7-0.9c-0.3-0.1-0.7-0.3-0.9-0.4c-0.6-0.3-1.1-0.1-1.5,0.3c-0.2,0.2-0.4,0.4-0.6,0.7
			c-0.7,1-1.3,2-1.9,3.2c-1.9,3.2-2.9,6.7-4.1,10.2c-0.7,2.2-1.4,4.5-1.8,6.7c-0.4,2.2-0.7,4.6-0.9,6.8c-0.2,0.9-0.3,2-0.5,2.9
			c-0.1,0.9-0.6,1.6-0.8,2.4C145.9,39.2,146,40.1,145.8,40.9C145.7,40.9,145.7,40.9,145.8,40.9z"/>
		<path class="st1" d="M184.4,43.3c-0.1,0.2-0.1,0.4-0.3,0.6c-0.6,0.7-1,1.5-1.4,2.4c-0.1,0.1-0.1,0.2-0.1,0.3
			c0,0.9-0.7,1.5-0.9,2.2c-0.4,0.5-0.7,1.2-1.1,1.8c-2.2,2.7-3.4,6.2-6.4,8.3c-2.3,1.7-4.7,4-7.8,3.8c-1.1-0.1-2.1-0.5-3.3-0.8
			c-0.1,0-0.1-0.1-0.3-0.1c-0.9-0.6-1.7-1.2-2.3-2c-0.9-1.4-1.4-2.9-1.5-4.6c-0.1-1.9-0.1-3.8,0.1-5.7c0.1-1.2,0.3-2.4,0.4-3.7
			c0-0.3,0.1-0.5,0.1-0.8c0.3-1.2,0.5-2.3,0.7-3.7c0.4-1.5,0.9-2.9,1.5-4.5c0.1-0.2,0.2-0.4,0.3-0.6c0.4-0.4,0.7-0.9,0.9-1.5
			c0-0.1,0.1-0.1,0.1-0.2c0.3-1,1-1.9,1.8-2.6c0.1-0.1,0.4-0.3,0.5-0.4c1.2-0.7,2.5-1.2,4-1.4c0.8-0.1,1.5-0.4,2.3-0.2
			c0.4,0,0.9,0.1,1.2,0.1c0.1,0,0.3,0.1,0.4,0.1c4.8,0.1,2.6,8.9,0.1,10.9c-0.4,0.2-0.8,0.4-1.1,0.8c-0.1,0.1-0.2,0.2-0.4,0.2
			c-0.4,0.2-0.7,0.4-1.2,0.6c-0.9,0.3-1.7,0.7-2.5,0.8c-1.3,0.2-1.2,0.1-1.5,1.2c-0.1,0.4-0.1,0.7-0.1,0.9c0.1,3.8-2,9.8,0.2,13
			c0.4,0.5,0.9,0.9,1.5,1.1c0.3,0.2,0.6,0.1,0.9,0.1c0.7-0.2,1.3-0.5,1.9-0.9c0.9-0.6,1.7-1.2,2.5-1.8c0.4-0.3,0.7-0.6,0.9-0.9
			c0.9-1.2,1.8-2.3,2.4-3.7c0.1-0.3,0.4-0.5,0.5-0.7c1.2-1.4,2-3.1,2.9-4.6c0.1-0.2,0.3-0.4,0.4-0.7c0.5-1.2,1.2-2.2,1.9-3.3
			c0.1-0.3,0.4-0.6,0.8-0.6C184,42.9,184.1,43,184.4,43.3z M174.2,32.9c0-0.1-0.1-0.3-0.2-0.4c-0.7-0.7-1.5-1.2-2.6-1
			c-0.8,0.1-1.4,0.5-1.7,1.3c-0.3,0.8-0.7,1.6-0.8,2.6c0,0.2-0.1,0.5-0.2,0.7c-0.4,0.8-0.4,1.7-0.6,2.5c-0.1,0.7-0.1,1.2-0.4,1.8
			c-0.1,0.4-0.3,0.8-0.1,1.2c1.2-0.1,2.3-0.4,3.5-0.9c0.7-0.4,1.3-0.8,1.8-1.5c0.7-0.9,1.2-1.8,1.8-2.7c0.1-0.1,0.2-0.4,0.1-0.6
			c-0.1-0.4,0-0.7,0.1-1c0.1-0.2,0.1-0.5,0.2-0.7C174.5,33.8,174.3,33.4,174.2,32.9z"/>
	</g>
</g>
<g>
	<path class="st2" d="M196.2,64.9h-3.1v-49h3.1V64.9z"/>
	<path class="st2" d="M232.4,64.9h-2.6V42.2c0-7.4-3.4-11.2-10-11.2c-3.9,0-6.9,1.4-9.3,4.2c-2.3,2.7-3.5,6.2-3.5,10.3v19.4h-2.6
		V29.6h2.6v7.9c0.8-2.5,2.3-4.7,4.7-6.3c2.3-1.6,5-2.4,7.9-2.4c4.2,0,7.3,1.1,9.5,3.3c2.1,2.2,3.3,5.4,3.3,9.7L232.4,64.9
		L232.4,64.9z"/>
	<path class="st2" d="M268,64.9h-2.6V42.2c0-7.4-3.4-11.2-10-11.2c-3.9,0-6.9,1.4-9.3,4.2c-2.3,2.7-3.5,6.2-3.5,10.3v19.4h-2.6V29.6
		h2.6v7.9c0.8-2.5,2.3-4.7,4.7-6.3c2.3-1.6,5-2.4,7.9-2.4c4.2,0,7.3,1.1,9.5,3.3c2.1,2.2,3.3,5.4,3.3,9.7V64.9z"/>
	<path class="st2" d="M306.5,47.3c0,5.6-1.5,10.1-4.5,13.4s-6.9,5.1-11.8,5.1c-4.9,0-8.8-1.7-11.7-5.1c-2.9-3.4-4.4-7.8-4.4-13.4
		s1.5-10.1,4.5-13.4c2.9-3.4,6.9-5.1,11.8-5.1c4.9,0,8.8,1.7,11.7,5.1C305.1,37.2,306.5,41.7,306.5,47.3z M303.9,47.3
		c0-4.8-1.2-8.7-3.8-11.7c-2.5-3.1-5.8-4.5-9.9-4.5c-4.1,0-7.3,1.5-9.9,4.5c-2.5,3.1-3.8,6.9-3.8,11.7s1.2,8.7,3.8,11.7
		c2.5,3.1,5.8,4.5,9.9,4.5c4.1,0,7.3-1.5,9.9-4.5C302.6,56,303.9,52.1,303.9,47.3z"/>
	<path class="st2" d="M339.3,29.6L326,64.9h-3.3l-14.2-35.3h3.1l12.8,32.5l12.1-32.5L339.3,29.6z"/>
	<path class="st2" d="M366.6,57.7c-1.2,2.7-3.1,4.8-5.3,6.2c-2.3,1.4-5.1,2-8.2,2c-3.8,0-6.7-0.8-8.6-2.5c-1.9-1.7-2.9-4.2-2.9-7.3
		c0-7.3,5.1-10.9,15.3-10.9c2.6,0,4.6-0.2,5.8-0.6c2.6-0.9,4.1-2.6,4.1-5.4c0-2.5-0.9-4.6-2.7-6c-1.8-1.4-4.2-2.1-7.1-2.1
		c-3.5,0-6.1,0.9-7.9,2.7c-1.9,1.8-2.8,4.1-2.8,6.7h-2.6c0-3.5,1.1-6.2,3.3-8.3c2.3-2.2,5.8-3.4,10.4-3.4c8.2,0,12.3,3.5,12.3,10.3
		v20.8c0,1.8,0.8,2.7,2.3,2.7l1.8-0.2v2.2l-1.9,0.3c-3.3,0-4.8-1.4-4.8-4.4v-2.9H366.6z M366.6,51.1v-6.4c-1,1.7-4.3,2.6-9.8,2.6
		c-4.5,0-7.7,0.7-9.8,2.1c-2,1.4-3.1,3.6-3.1,6.5c0,2.2,0.8,4.1,2.4,5.6c1.6,1.4,3.9,2.2,6.7,2.2c4.3,0,7.6-1.2,10.1-3.8
		C365.5,57.6,366.6,54.6,366.6,51.1z"/>
	<path class="st2" d="M382.8,56.6c0,2.3,0.4,3.9,1.3,4.8c0.9,0.9,2.4,1.3,4.6,1.3h1.7v2.2h-1.7c-2.9,0-5.2-0.6-6.5-1.9
		c-1.3-1.2-2-3.3-2-5.9V31.8h-6.5v-2.2h6.5v-11h2.6v11h7.7v2.2h-7.7V56.6z"/>
	<path class="st2" d="M395.9,22.9v-7.1h2.6v7.1H395.9z M398.4,64.9h-2.6V29.6h2.6V64.9z"/>
	<path class="st2" d="M437.6,47.3c0,5.6-1.5,10.1-4.5,13.4c-2.9,3.4-6.9,5.1-11.8,5.1c-4.9,0-8.8-1.7-11.7-5.1
		c-2.9-3.4-4.4-7.8-4.4-13.4s1.5-10.1,4.5-13.4c2.9-3.4,6.9-5.1,11.8-5.1c4.9,0,8.8,1.7,11.7,5.1C436.1,37.2,437.6,41.7,437.6,47.3z
		 M434.9,47.3c0-4.8-1.2-8.7-3.8-11.7c-2.5-3.1-5.8-4.5-9.9-4.5c-4.1,0-7.3,1.5-9.9,4.5c-2.5,3.1-3.8,6.9-3.8,11.7s1.2,8.7,3.8,11.7
		c2.5,3.1,5.8,4.5,9.9,4.5c4.1,0,7.3-1.5,9.9-4.5C433.7,56,434.9,52.1,434.9,47.3z"/>
	<path class="st2" d="M471.6,64.9H469V42.2c0-7.4-3.4-11.2-10-11.2c-3.9,0-6.9,1.4-9.3,4.2c-2.3,2.7-3.5,6.2-3.5,10.3v19.4h-2.6
		V29.6h2.6v7.9c0.8-2.5,2.3-4.7,4.7-6.3c2.3-1.6,5-2.4,7.9-2.4c4.2,0,7.3,1.1,9.5,3.3c2.1,2.2,3.3,5.4,3.3,9.7V64.9z"/>
</g>
<g>
	<path class="st2" d="M482,15.7h6.7V36h25.3V15.7h6.7v49.2h-6.7V41.8h-25.3v23.1H482V15.7z"/>
	<path class="st2" d="M536.7,29v23.8c0,1.8,0.3,3.4,0.8,4.5c1,2.1,2.9,3.3,5.8,3.3c4.1,0,6.9-1.8,8.3-5.6c0.8-2,1.2-4.8,1.2-8.2V29
		h6v35.9h-5.6l0.1-5.3c-0.8,1.3-1.7,2.5-2.8,3.5c-2.2,1.8-5,2.8-8.2,2.8c-5,0-8.4-1.7-10.3-5.1c-1-1.8-1.5-4.3-1.5-7.3V29.1h6.2V29z
		"/>
	<path class="st2" d="M568.4,15.5h5.9v17.9c1.3-1.7,2.9-3.1,4.8-4c1.8-0.9,3.9-1.3,6-1.3c4.5,0,8.1,1.5,10.9,4.6s4.2,7.6,4.2,13.6
		c0,5.7-1.4,10.4-4.2,14.1c-2.7,3.8-6.6,5.6-11.5,5.6c-2.7,0-5.1-0.6-6.9-1.9c-1.1-0.8-2.3-2-3.6-3.8v4.6h-5.6L568.4,15.5
		L568.4,15.5z M591.5,56.9c1.6-2.6,2.4-6,2.4-10.3c0-3.8-0.8-6.9-2.4-9.4c-1.6-2.4-4.1-3.8-7.2-3.8c-2.7,0-5.2,1-7.2,3.1
		c-2,2-3.2,5.4-3.2,10.1c0,3.4,0.4,6.1,1.3,8.2c1.6,4,4.6,5.9,8.9,5.9C587.4,60.7,589.8,59.4,591.5,56.9z"/>
</g>
</svg>
