<?xml version="1.0" encoding="UTF-8" standalone="no"?>
<svg width="260px" height="92px" viewBox="0 0 260 92" version="1.1" xmlns="http://www.w3.org/2000/svg" xmlns:xlink="http://www.w3.org/1999/xlink">
    <!-- Generator: Sketch 44 (41411) - http://www.bohemiancoding.com/sketch -->
    <title>matmatch_logo</title>
    <desc>Created with Sketch.</desc>
    <defs></defs>
    <g id="mockups" stroke="none" stroke-width="1" fill="none" fill-rule="evenodd">
        <g id="matmatch_logo">
            <g>
                <g>
                    <g id="logo" transform="translate(22.000000, 20.000000)" fill="#526193">
                        <path d="M10.8227874,26.6209244 L22.0620429,26.6209244 C22.1688511,26.9046779 22.2983666,27.1789076 22.4489074,27.439972 C23.1957241,28.732409 24.4017322,29.6570588 25.8446248,30.0433333 C26.6214375,30.2517367 27.4341334,30.2903922 28.2173939,30.1590196 L33.8277705,39.867423 C33.3214826,40.4803081 32.9489152,41.202437 32.7403448,41.9789076 C32.732215,42.0091597 32.7243656,42.0396919 32.7167965,42.0702241 L17.2253953,42.0702241 L9.4752093,28.6573389 C10.073728,28.0817087 10.5320783,27.3892717 10.8227874,26.6209244 L10.8227874,26.6209244 Z M24.4959253,19.807479 C23.3664491,20.4590196 22.5133848,21.4665826 22.0595198,22.6735854 L10.8227874,22.6735854 C10.5320783,21.9052381 10.0740083,21.2130812 9.47605031,20.6377311 L17.2253953,7.22540616 L32.7198802,7.22540616 C32.8457513,7.73184874 33.0400246,8.21392157 33.300177,8.6635014 C33.4563245,8.93464986 33.6374219,9.19347339 33.8401053,9.43661064 L28.2314107,19.1438936 C26.9443853,18.9220448 25.6321296,19.1520168 24.4959253,19.807479 L24.4959253,19.807479 Z M39.5886879,38.0270868 C39.1135173,37.899916 38.6246103,37.8363305 38.1365442,37.8363305 C37.8413498,37.8363305 37.5464357,37.8595798 37.2554463,37.9063585 L31.6307725,28.1713445 C33.0725437,26.3934734 33.2912062,23.8548179 32.1345374,21.8528571 C31.990164,21.602437 31.8250457,21.3629412 31.6417056,21.1366106 L37.2731075,11.3898319 C38.0729078,11.5156022 38.8903694,11.4637815 39.6775546,11.2377311 L47.4266192,24.6480952 L39.6809186,38.0528571 C39.6500816,38.0438936 39.6195249,38.0352101 39.5886879,38.0270868 L39.5886879,38.0270868 Z M50.5588202,24.6478151 L42.0281771,9.88366947 C42.7595753,9.18142857 43.2798801,8.30243697 43.5439572,7.31616246 C43.9305413,5.87386555 43.732063,4.36826331 42.9855266,3.07666667 C42.2384295,1.78394958 41.0327018,0.85929972 39.5895289,0.47302521 C38.1460757,0.0864705882 36.6395467,0.284789916 35.3466343,1.03156863 C34.0528808,1.77778711 33.1274896,2.98254902 32.7417465,4.42344538 C32.7336167,4.45341737 32.7257673,4.48394958 32.7181982,4.5147619 L15.659435,4.5147619 L7.12795085,19.2791877 C6.6253073,19.1335294 6.11060928,19.0595798 5.59198654,19.0595798 C2.50856414,19.0595798 0.000112134645,21.5663025 0.000112134645,24.6472549 C0.000112134645,27.7282073 2.50856414,30.2346499 5.59198654,30.2346499 C6.1100486,30.2346499 6.62474663,30.1609804 7.12739017,30.0153221 L15.659435,44.7811485 L32.7190392,44.7811485 C32.845471,45.2873109 33.0394639,45.7688235 33.2990556,46.2178431 C34.294531,47.9405322 36.1528824,49.0108403 38.1497201,49.0108403 C39.1252915,49.0108403 40.0893691,48.7522969 40.9376677,48.2629412 C43.6075936,46.7228852 44.5262566,43.2993557 42.9849659,40.6307283 C42.7250939,40.1811485 42.4046692,39.772465 42.0292984,39.4105602 L50.3213751,25.0595798 L50.5588202,24.6478151 Z" id="Fill-1"></path>
                        <path d="M83.935993,27.8730157 L91.1625271,13.6611991 L95.4761121,13.6611991 L95.5335059,35.8378706 L91.5012356,35.8378706 L91.5498648,19.9705937 L85.6863636,32.0274867 L83.9006519,32.0274867 L82.1856223,32.0273737 L76.3221211,19.9707632 L76.3707504,35.8380401 L72.33848,35.8380401 L72.3958738,13.6610861 L76.7094588,13.6610861 L83.935993,27.8729027 L83.935993,27.8730157 Z M117.131174,23.3128439 L115.068106,23.3128439 L115.068106,20.1581466 L117.22504,20.1581466 L117.22504,15.5666453 L121.100961,15.5666453 L121.100961,20.1581466 L124.727234,20.1581466 L124.727234,23.3128439 L121.100961,23.3128439 L121.100961,29.4973726 C121.100961,32.1209665 123.164029,32.4958464 124.25847,32.4958464 C124.695851,32.4958464 124.977448,32.4334135 124.977448,32.4334135 L124.977448,35.9005577 C124.977448,35.9005577 124.508685,35.9940658 123.758041,35.9940658 C121.538907,35.9940658 117.131174,35.3380967 117.131174,29.9971182 L117.131174,23.3128439 Z M128.414887,20.0331678 L131.353281,20.0331678 L131.353281,22.1259409 C131.353281,22.7505523 131.290798,23.2816557 131.290798,23.2816557 L131.353281,23.2816557 C132.103642,21.4386141 134.322776,19.658288 136.792408,19.658288 C139.449488,19.658288 141.012975,20.8764356 141.544221,23.250298 L141.606421,23.250298 C142.481748,21.345106 144.670065,19.658288 147.233562,19.658288 C150.796786,19.658288 152.453856,21.6886282 152.453856,25.7179509 L152.453856,35.8380118 L149.421879,35.8380118 L149.421879,26.3736375 C149.421879,24.1559986 148.983933,22.4070302 146.60845,22.4070302 C144.388467,22.4070302 142.731963,24.2811469 142.169051,26.4363529 C142.012985,27.0920395 141.950502,27.810724 141.950502,28.6226341 L141.950502,35.8380118 L138.918241,35.8380118 L138.918241,26.3736375 C138.918241,24.3122221 138.605827,22.4070302 136.167295,22.4070302 C133.854013,22.4070302 132.228325,24.3122221 131.634879,26.5612187 C131.47853,27.1858301 131.447147,27.9042321 131.447147,28.6226341 L131.447147,35.8380118 L128.414887,35.8380118 L128.414887,20.0331678 Z M165.23699,25.9678237 L165.924303,25.9678237 L165.924303,25.6867345 C165.924303,23.0942157 164.455529,22.2195903 162.454944,22.2195903 C160.016413,22.2195903 158.047211,23.7501849 158.047211,23.7501849 L156.796421,21.532546 C156.796421,21.532546 159.078886,19.6581467 162.705159,19.6581467 C166.706329,19.6581467 168.956563,21.8447104 168.956563,25.842958 L168.956563,35.8378706 L166.1437,35.8378706 L166.1437,34.3386337 C166.1437,33.6202317 166.206183,33.0891284 166.206183,33.0891284 L166.1437,33.0891284 C166.1437,33.0891284 164.862093,36.2127504 161.079471,36.2127504 C158.359908,36.2127504 155.702545,34.5572901 155.702545,31.4025928 C155.702545,26.1864801 162.579627,25.9678237 165.23699,25.9678237 Z M161.735966,33.7764552 C164.299181,33.7764552 165.955968,31.0901458 165.955968,28.7476412 L165.955968,28.2478955 L165.174507,28.2478955 C162.892325,28.2478955 158.766189,28.404119 158.766189,31.2463693 C158.766189,32.5272323 159.766199,33.7764552 161.735966,33.7764552 Z M174.051213,22.6881195 L171.988145,22.6881195 L171.988145,20.2518242 L174.145079,20.2518242 L174.145079,15.6913981 L177.083474,15.6913981 L177.083474,20.2518242 L180.897478,20.2518242 L180.897478,22.6881195 L177.083474,22.6881195 L177.083474,29.715916 C177.083474,32.8706132 179.303173,33.2765683 180.459532,33.2765683 C180.897478,33.2765683 181.17851,33.2141354 181.17851,33.2141354 L181.17851,35.9004447 C181.17851,35.9004447 180.741129,35.9628776 180.116017,35.9628776 C178.084049,35.9628776 174.051213,35.3382662 174.051213,30.0594381 L174.051213,22.6881195 Z M191.931005,19.6582597 C195.900792,19.6582597 197.87056,21.9696892 197.87056,21.9696892 L196.432604,24.0935375 C196.432604,24.0935375 194.744433,22.2821362 192.055688,22.2821362 C188.867361,22.2821362 186.554079,24.655716 186.554079,27.9042039 C186.554079,31.1216165 188.867361,33.5892695 192.149553,33.5892695 C195.087948,33.5892695 197.02605,31.4651387 197.02605,31.4651387 L198.245457,33.6827776 C198.245457,33.6827776 196.057141,36.2128634 191.931005,36.2128634 C186.960642,36.2128634 183.459618,32.6832863 183.459618,27.9355616 C183.459618,23.2502697 186.960642,19.6582597 191.931005,19.6582597 Z M201.682924,13.7861497 L204.715184,13.7861497 L204.715184,21.8758704 C204.715184,22.6256301 204.652702,23.1878086 204.652702,23.1878086 L204.715184,23.1878086 C205.403062,21.657214 207.403647,19.6582315 210.560591,19.6582315 C214.281012,19.6582315 216,21.6885717 216,25.7178944 L216,35.8379553 L212.967739,35.8379553 L212.967739,26.4049387 C212.967739,24.1872998 212.498976,22.4380489 209.967145,22.4380489 C207.590814,22.4380489 205.621894,24.0624341 204.965116,26.3425058 C204.777385,26.9673998 204.715184,27.6858018 204.715184,28.435279 L204.715184,35.8379553 L201.682924,35.8379553 L201.682924,13.7861497 Z M108.100268,25.7177532 L108.631797,25.7177532 L108.631797,25.4990968 C108.631797,23.4066062 107.318807,22.6882042 105.568436,22.6882042 C103.285971,22.6882042 101.192086,24.2185163 101.192086,24.2185163 L99.6910814,21.376266 C99.6910814,21.376266 102.160713,19.4083587 105.943334,19.4083587 C110.132236,19.4083587 112.570202,21.7197881 112.570202,25.7491109 L112.570202,35.7129483 L108.913112,35.7129483 L108.913112,34.4012926 C108.913112,33.7763987 108.975312,33.276653 108.975312,33.276653 L108.913112,33.276653 C108.944494,33.276653 107.693705,36.0878282 104.067998,36.0878282 C101.222903,36.0878282 98.6596888,34.307502 98.6596888,31.121447 C98.6596888,26.0615578 105.505953,25.7177532 108.100268,25.7177532 Z M105.068007,32.9955638 C107.162458,32.9955638 108.662897,30.7465672 108.662897,28.8100176 L108.662897,28.4351377 L107.975302,28.4351377 C105.943334,28.4351377 102.660859,28.7165095 102.660859,30.9341484 C102.660859,31.9960725 103.44232,32.9955638 105.068007,32.9955638 Z" id="Combined-Shape"></path>
                    </g>
                    <polygon id="Stroke-22" points="0 92 260 92 260 0 0 0"></polygon>
                </g>
            </g>
        </g>
    </g>
</svg>