<?xml version="1.0" encoding="UTF-8" standalone="no"?><!DOCTYPE svg PUBLIC "-//W3C//DTD SVG 1.1//EN" "http://www.w3.org/Graphics/SVG/1.1/DTD/svg11.dtd"><svg width="100%" height="100%" viewBox="0 0 2550 572" version="1.1" xmlns="http://www.w3.org/2000/svg" xmlns:xlink="http://www.w3.org/1999/xlink" xml:space="preserve" xmlns:serif="http://www.serif.com/" style="fill-rule:evenodd;clip-rule:evenodd;stroke-linejoin:round;stroke-miterlimit:1.41421;"><g><clipPath id="_clip1"><path d="M-410.895,1983.31l3431.24,0l0,-3431.24l-3431.24,0l0,3431.24Z" clip-rule="nonzero"/></clipPath><g clip-path="url(#_clip1)"><clipPath id="_clip2"><path d="M-410.895,-1447.93l0,3433.85l3433.9,0c0,0 0,-3433.85 -3433.9,-3433.85Z"/></clipPath><g clip-path="url(#_clip2)"><path d="M2265.55,462.369c-46.328,0 -90.082,-18.016 -122.897,-50.831c-32.815,-32.815 -51.175,-76.568 -51.175,-123.238c0,-46.327 18.36,-90.08 51.175,-122.938c32.815,-33.115 76.569,-51.132 122.897,-51.132c46.67,0 90.767,18.017 123.583,51.132c33.115,32.514 51.131,76.268 51.131,122.595c0,96.214 -78.156,174.412 -174.714,174.412Zm-976.868,-132.589c-3.861,-14.799 -6.134,-29.898 -6.134,-45.341c0,-46.67 18.359,-90.423 51.175,-123.581c33.158,-32.815 76.912,-51.132 123.583,-51.132c40.536,0 79.143,14.156 110.328,39.55l-278.952,180.504Zm-450.793,0c-3.86,-14.799 -5.791,-29.898 -5.791,-45.341c0,-46.67 18.017,-90.423 51.175,-123.581c32.815,-32.815 76.569,-51.132 123.197,-51.132c40.88,0 79.486,14.156 110.371,39.55l-278.952,180.504Zm624.221,130.959c-28.955,0 -53.749,-6.734 -72.408,-14.798l-0.301,0c-27.024,-11.883 -42.466,-26.038 -42.466,-26.038l288.303,-185.994l165.363,315.023c5.791,10.939 14.156,9.952 20.59,9.952l72.752,0c6.434,0 14.456,1.287 20.59,-9.952l6.434,-12.225l78.156,-147.689c40.58,107.153 146.747,183.078 268.057,183.078c64.987,0 124.526,-21.877 175.358,-58.895l0,37.018c0,4.805 3.86,8.665 8.708,8.665l90.081,0c4.804,0 8.665,-3.86 8.665,-8.665l0,-265.78c-0.944,-141.597 -108.741,-260.632 -247.766,-278.348c-12.226,-1.587 -25.095,-2.574 -37.32,-2.574c-92.012,0 -173.428,43.454 -225.546,110.713c-28.655,32.815 -53.105,71.421 -75.283,111.957l-102.006,198.52l-107.454,-198.82c-23.85,-44.439 -47.657,-85.619 -76.612,-120.665c-52.119,-64.042 -131.605,-105.222 -220.699,-105.222c-92.055,0 -173.471,43.753 -225.59,111.314c-51.775,-67.561 -133.535,-111.014 -225.246,-111.014c-117.106,0 -217.482,70.821 -260.935,171.839c-20.29,-96.514 -107.798,-169.565 -209.804,-169.565c-63.357,0 -121.31,27.667 -160.86,71.764c-39.249,-43.796 -96.859,-71.764 -159.615,-71.764c-116.806,0 -214.934,93.941 -215.256,210.445l0,337.2c0,4.804 3.861,8.665 8.691,8.665l90.102,0c4.805,0 8.665,-3.861 8.665,-8.665l0,-337.2c0,-26.724 11.926,-52.161 31.872,-71.464c20.247,-19.603 47.958,-30.542 75.926,-30.542c27.668,0 55.035,10.939 74.982,30.885c19.946,19.603 31.528,45.34 31.528,72.407l0,335.914c0,4.804 3.861,8.665 8.708,8.665l90.081,0c4.805,0 8.665,-3.861 8.665,-8.665l0,-337.2c0,-26.724 11.282,-52.161 31.229,-71.464c20.289,-19.603 47.314,-30.542 75.625,-30.542c27.668,0 57.609,10.939 77.556,30.885c19.946,19.603 34.402,45.34 34.402,72.407l0,335.914c0,4.804 3.861,8.665 8.708,8.665l89.781,0c4.804,0 8.665,-3.861 8.665,-8.665l0,-128.085c53.105,88.192 144.473,148.032 253.558,148.032c74.638,0 143.186,-28.011 194.361,-73.695c9.008,-8.021 9.008,-13.169 0,-23.807c-17.073,-22.863 -30.585,-46.67 -41.524,-76.911c-2.573,-7.721 -8.707,-6.091 -11.581,-2.231c0,0 -7.421,9.008 -13.212,14.799c-33.759,33.115 -78.5,51.775 -126.457,51.775c-42.467,0 -82.36,-14.155 -114.189,-40.193l280.582,-180.847c-2.274,14.799 -3.561,31.871 -3.561,47.314c0,1.287 0,6.434 0,6.434c1.287,150.263 129.675,279.292 288.003,279.292c87.165,0 183.08,-42.467 237.772,-126.155c2.874,-4.805 4.804,-10.596 0.3,-18.96l-51.475,-96.558c-2.573,-5.447 -11.582,-4.504 -13.169,2.617c-19.003,73.651 -90.124,127.699 -170.854,127.699l-1.63,0Z" style="fill:#ba1d2e;fill-rule:nonzero;"/></g></g></g></svg>