<?xml version="1.0" encoding="UTF-8" standalone="no"?><!DOCTYPE svg PUBLIC "-//W3C//DTD SVG 1.1//EN" "http://www.w3.org/Graphics/SVG/1.1/DTD/svg11.dtd"><svg width="100%" height="100%" viewBox="0 0 873 273" version="1.1" xmlns="http://www.w3.org/2000/svg" xmlns:xlink="http://www.w3.org/1999/xlink" xml:space="preserve" xmlns:serif="http://www.serif.com/" style="fill-rule:evenodd;clip-rule:evenodd;stroke-linejoin:round;stroke-miterlimit:1.41421;"><g id="mint-zukunft"><path d="M110.437,78.039l0,116.88l-24.198,0l0,-116.88l-49.109,0c-3.409,0 -6.296,1.135 -8.666,3.396c-2.37,2.262 -3.556,5.02 -3.556,8.272l0,105.212l-24.696,0l0,-105.21c0,-9.753 3.593,-18.058 10.788,-24.918c7.19,-6.858 15.903,-10.287 26.136,-10.287l122.569,0c10.231,0 18.944,3.429 26.139,10.287c7.189,6.86 10.789,15.165 10.789,24.918l0,105.21l-24.531,0l0,-105.212c0,-3.252 -1.227,-6.01 -3.674,-8.272c-2.45,-2.261 -5.38,-3.396 -8.792,-3.396l-49.199,0Z" style="fill:#189f94;fill-rule:nonzero;"/><path d="M434.81,194.919l0,-105.212c0,-3.252 -1.185,-6.01 -3.562,-8.272c-2.369,-2.261 -5.254,-3.396 -8.665,-3.396l-73.347,0c-3.409,0 -6.3,1.135 -8.667,3.396c-2.373,2.262 -3.557,5.02 -3.557,8.272l0,105.212l-24.697,0l0,-105.21c0,-9.753 3.594,-18.058 10.782,-24.918c7.189,-6.858 15.896,-10.287 26.127,-10.287l73.372,0c10.23,0 18.936,3.429 26.126,10.287c7.186,6.86 10.785,15.165 10.785,24.918l0,105.21l-24.697,0Z" style="fill:#189f94;fill-rule:nonzero;"/><path d="M573.637,194.919l-24.695,0l0,-117.872l-61.336,0l0,-22.543l147.274,0l0,22.543l-61.243,0l0,117.872Z" style="fill:#189f94;fill-rule:nonzero;"/><path d="M275.438,70.41c0,9.87 -8.012,17.882 -17.861,17.882c-9.869,0 -17.881,-8.012 -17.881,-17.882c0,-9.85 8.012,-17.861 17.881,-17.861c9.849,0 17.861,8.011 17.861,17.861" style="fill:#231f20;fill-rule:nonzero;"/><path d="M238.142,123.563c0,-9.866 8.004,-17.87 17.867,-17.87c9.863,0 17.867,8.004 17.867,17.87c0,9.861 -8.004,17.874 -17.867,17.874c-9.863,0 -17.867,-8.013 -17.867,-17.874" style="fill:#ef3f35;"/><path d="M238.398,176.735c0,-9.863 8.004,-17.866 17.869,-17.866c9.863,0 17.868,8.003 17.868,17.866c0,9.864 -8.005,17.867 -17.868,17.867c-9.865,0 -17.869,-8.003 -17.869,-17.867" style="fill:#ffc424;"/><path d="M275.183,18.036c0,9.865 -8.005,17.87 -17.87,17.87c-9.863,0 -17.868,-8.005 -17.868,-17.87c0,-9.86 8.005,-17.865 17.868,-17.865c9.865,0 17.87,8.005 17.87,17.865" style="fill:#189f94;"/><path d="M266.768,236.93l-18.195,31.192l17.869,0l0,3.875l-22.939,0l0,-3.118l18.113,-31.245l-17.327,0l0,-3.876l22.479,0l0,3.172Z" style="fill:#231f20;fill-rule:nonzero;"/><path d="M308.442,259.964c0,4.427 -0.899,7.661 -2.698,9.703c-1.799,2.041 -4.533,3.061 -8.202,3.061c-7.394,0 -11.09,-4.218 -11.09,-12.655l0,-26.315l4.447,0l0,25.909c0,6.105 2.214,9.159 6.643,9.159c2.224,0 3.855,-0.723 4.894,-2.168c1.04,-1.446 1.56,-3.794 1.56,-7.046l0,-25.854l4.446,0l0,26.206Z" style="fill:#231f20;fill-rule:nonzero;"/><path d="M355.703,271.997l-5.613,0l-12.934,-18.753l-4.04,4.389l0,14.364l-4.447,0l0,-38.239l4.447,0l0,18.321l16.974,-18.321l5.125,0l-14.941,16.153l15.429,22.086Z" style="fill:#231f20;fill-rule:nonzero;"/><path d="M392.877,259.964c0,4.427 -0.899,7.661 -2.698,9.703c-1.799,2.041 -4.533,3.061 -8.202,3.061c-7.394,0 -11.09,-4.218 -11.09,-12.655l0,-26.315l4.446,0l0,25.909c0,6.105 2.215,9.159 6.644,9.159c2.223,0 3.855,-0.723 4.894,-2.168c1.039,-1.446 1.559,-3.794 1.559,-7.046l0,-25.854l4.447,0l0,26.206Z" style="fill:#231f20;fill-rule:nonzero;"/><path d="M435.637,271.997l-4.935,0l-13.721,-30.19l0,30.19l-4.446,0l0,-38.239l4.962,0l13.774,29.918l0,-29.918l4.366,0l0,38.239Z" style="fill:#231f20;fill-rule:nonzero;"/><path d="M476.878,237.634l-15.836,0l0,12.493l14.426,0l0,3.875l-14.426,0l0,17.995l-4.446,0l0,-38.239l20.282,0l0,3.876Z" style="fill:#231f20;fill-rule:nonzero;"/><path d="M520.372,237.364l-11.795,0l0,34.633l-4.42,0l0,-34.633l-11.849,0l0,-3.606l28.064,0l0,3.606Z" style="fill:#231f20;fill-rule:nonzero;"/><path d="M573.341,237.987c-2.278,-0.778 -4.438,-1.166 -6.481,-1.166c-2.313,0 -4.197,0.529 -5.652,1.586c-1.455,1.056 -2.184,2.56 -2.184,4.511c0,2.313 1.908,4.346 5.722,6.098c2.819,1.301 4.687,2.204 5.599,2.71c0.913,0.506 1.84,1.202 2.779,2.087c0.939,0.885 1.695,1.929 2.264,3.13c0.57,1.201 0.855,2.552 0.855,4.052c0,3.72 -1.252,6.607 -3.756,8.658c-2.504,2.051 -5.455,3.075 -8.853,3.075c-3.289,0 -6.173,-0.65 -8.65,-1.951l0.923,-3.821c2.91,1.319 5.449,1.978 7.619,1.978c2.53,0 4.559,-0.654 6.086,-1.965c1.528,-1.308 2.292,-3.111 2.292,-5.406c0,-1.698 -0.497,-3.139 -1.491,-4.322c-0.994,-1.184 -2.829,-2.389 -5.504,-3.617c-2.748,-1.266 -4.524,-2.127 -5.328,-2.588c-0.805,-0.461 -1.605,-1.098 -2.4,-1.911c-0.795,-0.814 -1.411,-1.726 -1.844,-2.738c-0.434,-1.011 -0.651,-2.113 -0.651,-3.306c0,-3.161 1.139,-5.627 3.417,-7.398c2.277,-1.77 5.16,-2.655 8.65,-2.655c2.549,0 5.079,0.389 7.592,1.164l-1.004,3.795Z" style="fill:#231f20;fill-rule:nonzero;"/><path d="M619.789,269.612c-3.001,2.078 -6.48,3.116 -10.439,3.116c-4.954,0 -8.718,-1.698 -11.294,-5.095c-2.577,-3.396 -3.864,-8.31 -3.864,-14.742c0,-6.215 1.247,-11.079 3.743,-14.593c2.494,-3.513 6.298,-5.27 11.415,-5.27c1.843,0 3.669,0.234 5.477,0.704c1.808,0.47 3.263,1.093 4.365,1.87l-1.464,3.496c-2.548,-1.445 -5.341,-2.168 -8.378,-2.168c-3.525,0 -6.146,1.278 -7.864,3.834c-1.717,2.557 -2.575,6.599 -2.575,12.127c0,10.623 3.479,15.935 10.439,15.935c2.946,0 5.965,-0.904 9.056,-2.71l1.383,3.496Z" style="fill:#231f20;fill-rule:nonzero;"/><path d="M660.624,271.997l-4.447,0l0,-18.97l-13.096,0l0,18.97l-4.447,0l0,-38.239l4.447,0l0,15.367l13.096,0l0,-15.367l4.447,0l0,38.239Z" style="fill:#231f20;fill-rule:nonzero;"/><path d="M696.903,254.734l-5.015,-15.826l-4.99,15.826l10.005,0Zm10.168,17.263l-4.664,0l-4.228,-13.387l-12.555,0l-4.284,13.387l-4.611,0l12.5,-38.239l5.342,0l12.5,38.239Z" style="fill:#231f20;fill-rule:nonzero;"/><path d="M744.626,237.634l-15.836,0l0,12.493l14.426,0l0,3.875l-14.426,0l0,17.995l-4.446,0l0,-38.239l20.282,0l0,3.876Z" style="fill:#231f20;fill-rule:nonzero;"/><path d="M786.843,237.634l-15.834,0l0,12.493l14.425,0l0,3.875l-14.425,0l0,17.995l-4.448,0l0,-38.239l20.282,0l0,3.876Z" style="fill:#231f20;fill-rule:nonzero;"/><path d="M828.763,271.997l-19.984,0l0,-38.239l19.822,0l0,3.876l-15.375,0l0,11.843l14.778,0l0,3.875l-14.778,0l0,14.77l15.537,0l0,3.875Z" style="fill:#231f20;fill-rule:nonzero;"/><path d="M872.255,271.997l-4.935,0l-13.719,-30.19l0,30.19l-4.448,0l0,-38.239l4.962,0l13.775,29.918l0,-29.918l4.365,0l0,38.239Z" style="fill:#231f20;fill-rule:nonzero;"/></g></svg>