<?xml version="1.0" encoding="UTF-8" standalone="no"?><!DOCTYPE svg PUBLIC "-//W3C//DTD SVG 1.1//EN" "http://www.w3.org/Graphics/SVG/1.1/DTD/svg11.dtd"><svg width="100%" height="100%" viewBox="0 0 125 28" version="1.1" xmlns="http://www.w3.org/2000/svg" xmlns:xlink="http://www.w3.org/1999/xlink" xml:space="preserve" xmlns:serif="http://www.serif.com/" style="fill-rule:evenodd;clip-rule:evenodd;stroke-linejoin:round;stroke-miterlimit:1.41421;"><path d="M63.326,17.051c0,1.161 0.951,2.103 2.124,2.103l15.104,0c1.173,0 2.124,-0.942 2.124,-2.103l0,-14.949c0,-1.161 -0.951,-2.102 -2.124,-2.102l-15.104,0c-1.173,0 -2.124,0.941 -2.124,2.102l0,14.949Z" style="fill:#00527d;fill-rule:nonzero;"/><path d="M84.426,17.051c0,1.161 0.951,2.103 2.124,2.103l15.104,0c1.173,0 2.124,-0.942 2.124,-2.103l0,-14.949c0,-1.161 -0.951,-2.102 -2.124,-2.102l-15.104,0c-1.173,0 -2.124,0.941 -2.124,2.102l0,14.949Z" style="fill:#00527d;fill-rule:nonzero;"/><path d="M105.557,17.051c0,1.161 0.951,2.103 2.124,2.103l15.104,0c1.173,0 2.124,-0.942 2.124,-2.103l0,-14.949c0,-1.161 -0.951,-2.102 -2.124,-2.102l-15.104,0c-1.173,0 -2.124,0.941 -2.124,2.102l0,14.949Z" style="fill:#00527d;fill-rule:nonzero;"/><path d="M42.211,17.051c0,1.161 0.951,2.103 2.124,2.103l15.104,0c1.173,0 2.124,-0.942 2.124,-2.103l0,-14.949c0,-1.161 -0.951,-2.102 -2.124,-2.102l-15.104,0c-1.173,0 -2.124,0.941 -2.124,2.102l0,14.949Z" style="fill:#00527d;fill-rule:nonzero;"/><path d="M58.934,5.326l-3.524,8.712l-1.754,0l-1.759,-5.215l-1.77,5.215l-1.749,0l-3.523,-8.712l1.987,0l2.408,6.315l1.991,-6.315l1.32,0l1.976,6.317l2.41,-6.317l1.987,0Z" style="fill:#fff;fill-rule:nonzero;"/><path d="M75.647,7.071l-5.293,0l0,1.721l5.293,0l0,-1.721Zm1.754,6.959l-1.754,0l0,-3.486l-5.293,0l0,3.486l-1.754,0l0,-6.959c0,-0.509 0.162,-0.928 0.487,-1.257c0.325,-0.329 0.747,-0.494 1.267,-0.494l5.293,0c0.416,0 0.812,0.187 1.189,0.561c0.376,0.374 0.565,0.771 0.565,1.19l0,6.959Z" style="fill:#fff;fill-rule:nonzero;"/><path d="M96.494,7.071l-4.994,0l0,1.721l4.994,0l0,-1.721Zm2.054,6.959l-2.655,0l-4.123,-3.486l-0.27,0l0,3.486l-1.754,0l0,-8.71l6.748,0c0.485,0 0.898,0.17 1.241,0.509c0.342,0.34 0.512,0.754 0.512,1.242l0,1.721c0,1.169 -0.585,1.752 -1.753,1.752l-2.162,0l4.216,3.486Z" style="fill:#fff;fill-rule:nonzero;"/><path d="M118.742,14.03l-7.032,0l0,-8.71l7.032,0l0,1.751l-5.279,0l0,1.721l5.279,0l0,1.752l-5.279,0l0,1.736l5.279,0l0,1.75Z" style="fill:#fff;fill-rule:nonzero;"/><path d="M21.126,17.051c0,1.161 0.95,2.103 2.123,2.103l15.105,0c1.173,0 2.124,-0.942 2.124,-2.103l0,-14.949c0,-1.161 -0.951,-2.102 -2.124,-2.102l-15.105,0c-1.173,0 -2.123,0.941 -2.123,2.102l0,14.949Z" style="fill-rule:nonzero;"/><path d="M0,17.051c0,1.161 0.951,2.103 2.124,2.103l15.104,0c1.173,0 2.124,-0.942 2.124,-2.103l0,-14.949c0,-1.161 -0.951,-2.102 -2.124,-2.102l-15.104,0c-1.173,0 -2.124,0.941 -2.124,2.102l0,14.949Z" style="fill-rule:nonzero;"/><path d="M33.446,7.074l-5.293,0l0,1.721l5.293,0l0,-1.721Zm1.754,6.959l-1.754,0l0,-3.487l-5.293,0l0,3.487l-1.754,0l0,-6.959c0,-0.509 0.162,-0.928 0.487,-1.257c0.325,-0.33 0.747,-0.494 1.267,-0.494l5.293,0c0.416,0 0.812,0.186 1.188,0.561c0.377,0.374 0.566,0.771 0.566,1.19l0,6.959Z" style="fill:#fff;fill-rule:nonzero;"/><path d="M12.516,9.696c0,-0.759 -0.272,-1.41 -0.818,-1.953c-0.544,-0.543 -1.202,-0.814 -1.971,-0.814c-0.77,0 -1.429,0.271 -1.979,0.814c-0.549,0.543 -0.824,1.194 -0.824,1.953c0,0.75 0.275,1.397 0.824,1.939c0.55,0.542 1.209,0.814 1.979,0.814c0.769,0 1.427,-0.272 1.971,-0.814c0.546,-0.542 0.818,-1.189 0.818,-1.939m1.754,-0.008c0,1.07 -0.345,2.022 -1.034,2.857c-0.689,0.836 -1.57,1.359 -2.64,1.565l0,1.662l-1.754,0l0,-1.662c-1.069,-0.206 -1.949,-0.729 -2.638,-1.565c-0.689,-0.835 -1.034,-1.787 -1.034,-2.857c0,-1.246 0.444,-2.309 1.333,-3.19c0.891,-0.88 1.964,-1.32 3.224,-1.32c1.25,0 2.319,0.44 3.21,1.32c0.889,0.881 1.333,1.944 1.333,3.19" style="fill:#fff;fill-rule:nonzero;"/><path d="M42.961,26.672c0.17,0.177 0.409,0.265 0.716,0.265c0.422,0 0.73,-0.085 0.922,-0.254c0.194,-0.171 0.292,-0.357 0.297,-0.559l0,-0.02c0,-0.024 -0.002,-0.045 -0.003,-0.066c-0.003,-0.021 -0.006,-0.041 -0.011,-0.059c-0.024,-0.142 -0.083,-0.278 -0.181,-0.407c-0.097,-0.128 -0.222,-0.219 -0.377,-0.275c-0.054,-0.018 -0.112,-0.037 -0.169,-0.055c-0.059,-0.018 -0.118,-0.037 -0.179,-0.056c-0.037,-0.013 -0.072,-0.025 -0.107,-0.034c-0.035,-0.009 -0.071,-0.021 -0.109,-0.035c-0.356,-0.11 -0.686,-0.258 -0.989,-0.447c-0.3,-0.188 -0.452,-0.508 -0.452,-0.959c0,-0.298 0.132,-0.57 0.396,-0.815c0.265,-0.247 0.602,-0.37 1.011,-0.37c0.423,0 0.781,0.094 1.076,0.282c0.295,0.189 0.454,0.456 0.476,0.801l-0.459,-0.007c0,-0.171 -0.096,-0.327 -0.285,-0.469c-0.19,-0.143 -0.459,-0.214 -0.808,-0.214c-0.279,0.014 -0.501,0.101 -0.666,0.262c-0.164,0.161 -0.254,0.335 -0.267,0.524l0,0.017l0,0.024c0,0.019 0.001,0.04 0.003,0.062c0.003,0.023 0.006,0.043 0.01,0.062c0.024,0.11 0.077,0.218 0.16,0.324c0.085,0.106 0.2,0.196 0.35,0.269c0.083,0.041 0.168,0.078 0.254,0.11c0.084,0.033 0.171,0.064 0.254,0.097c0.051,0.018 0.101,0.035 0.152,0.051c0.052,0.016 0.1,0.034 0.147,0.052c0.334,0.11 0.628,0.244 0.88,0.403c0.254,0.158 0.379,0.434 0.379,0.825c0,0.509 -0.17,0.856 -0.514,1.039c-0.344,0.184 -0.719,0.281 -1.127,0.291l-0.037,0l-0.027,0c-0.408,0 -0.741,-0.105 -0.999,-0.315c-0.257,-0.209 -0.412,-0.547 -0.463,-1.015l0.452,-0.008c0.024,0.275 0.121,0.501 0.294,0.679" style="fill-rule:nonzero;"/><path d="M46.783,24.897c0,0.551 0.13,1.021 0.39,1.41c0.26,0.388 0.666,0.582 1.218,0.582c0.554,0 0.959,-0.18 1.219,-0.538c0.26,-0.358 0.39,-0.824 0.39,-1.399c0,-0.547 -0.136,-1.022 -0.407,-1.427c-0.272,-0.404 -0.673,-0.606 -1.202,-0.606c-0.446,0 -0.805,0.163 -1.082,0.489c-0.277,0.327 -0.445,0.688 -0.505,1.083c-0.009,0.05 -0.017,0.103 -0.021,0.158c-0.005,0.056 -0.006,0.108 -0.006,0.159l0,0.021c0,0.008 0.001,0.018 0.006,0.026l0,0.028l0,0.02l0,-0.006Zm-0.446,0c0,-0.666 0.167,-1.228 0.502,-1.684c0.334,-0.458 0.852,-0.687 1.552,-0.687c0.637,0 1.128,0.218 1.477,0.655c0.348,0.437 0.552,0.915 0.613,1.434c0.009,0.06 0.015,0.116 0.017,0.172c0.002,0.055 0.004,0.11 0.004,0.165l0,0.041l0,0.035c-0.014,0.565 -0.185,1.082 -0.513,1.547c-0.326,0.467 -0.86,0.7 -1.598,0.7c-0.751,0 -1.276,-0.227 -1.574,-0.682c-0.296,-0.455 -0.456,-1.018 -0.48,-1.69l0,-0.006Z" style="fill-rule:nonzero;"/><path d="M54.324,22.664l0,0.4l-2.172,0l0,1.633l2.062,0l0,0.399l-2.062,0l0,2.131l-0.445,0l0,-4.563l2.617,0Z" style="fill-rule:nonzero;"/><path d="M58.322,22.713l0,0.351l-1.512,0l0,4.163l-0.46,0l0,-4.163l-1.448,0l0,-0.351l3.42,0Z" style="fill-rule:nonzero;"/><path d="M59.025,22.664l1.093,4.073l1.309,-4.073l0.564,0l1.407,4.073l0.996,-4.073l0.446,0l-1.142,4.563l-0.613,0l-1.407,-4.115l-1.247,4.115l-0.605,0l-1.247,-4.563l0.446,0Z" style="fill-rule:nonzero;"/><path d="M67.207,23.064l-1.01,2.522l1.957,0l-0.947,-2.522Zm0.251,-0.4l1.859,4.563l-0.501,0l-0.494,-1.234l-2.271,0l-0.446,1.234l-0.501,0l1.86,-4.563l0.494,0Z" style="fill-rule:nonzero;"/><path d="M70.668,24.649l1.115,0c0.301,0.004 0.545,-0.056 0.73,-0.183c0.186,-0.126 0.28,-0.33 0.28,-0.61c0,-0.273 -0.085,-0.473 -0.251,-0.601c-0.168,-0.128 -0.439,-0.191 -0.815,-0.191l-1.059,0l0,1.585Zm1.31,-1.936c0.431,0.004 0.75,0.12 0.954,0.347c0.204,0.227 0.305,0.477 0.305,0.748c0,0.327 -0.062,0.564 -0.187,0.711c-0.126,0.148 -0.316,0.26 -0.572,0.339c0.116,0.014 0.204,0.038 0.265,0.072c0.06,0.035 0.11,0.071 0.146,0.107c0.009,0.015 0.02,0.027 0.032,0.039c0.011,0.012 0.021,0.023 0.032,0.037c0.004,0.01 0.009,0.018 0.017,0.025c0.007,0.006 0.013,0.012 0.018,0.017c0.078,0.088 0.13,0.231 0.155,0.428c0.026,0.198 0.049,0.408 0.067,0.628l0,0.028l0,0.028c0.014,0.197 0.032,0.386 0.056,0.566c0.023,0.18 0.062,0.315 0.118,0.408l-0.446,-0.007c-0.065,-0.074 -0.108,-0.187 -0.129,-0.339c-0.021,-0.153 -0.038,-0.316 -0.051,-0.49c0,-0.033 -0.002,-0.066 -0.005,-0.101c-0.001,-0.035 -0.006,-0.07 -0.01,-0.108c-0.023,-0.286 -0.076,-0.547 -0.16,-0.784c-0.084,-0.238 -0.27,-0.356 -0.557,-0.356l-1.358,0l0,2.178l-0.446,0l0,-4.521l1.756,0Z" style="fill-rule:nonzero;"/><path d="M77.443,22.664l0,0.4l-2.312,0l0,1.633l2.214,0l0,0.399l-2.214,0l0,1.738l2.417,0l0,0.393l-2.87,0l0,-4.563l2.765,0Z" style="fill-rule:nonzero;"/><path d="M84.881,22.664l0,0.4l-2.312,0l0,1.633l2.215,0l0,0.399l-2.215,0l0,1.738l2.416,0l0,0.393l-2.868,0l0,-4.563l2.764,0Z" style="fill-rule:nonzero;"/><path d="M86.574,22.664l2.569,3.97l0,-3.97l0.446,0l0,4.563l-0.551,0l-2.514,-3.922l0,3.922l-0.445,0l0,-4.563l0.495,0Z" style="fill-rule:nonzero;"/><path d="M94.31,24.897l0,2.137c-0.112,0.064 -0.231,0.114 -0.358,0.152c-0.128,0.036 -0.26,0.066 -0.394,0.089c-0.131,0.018 -0.261,0.032 -0.391,0.042c-0.13,0.008 -0.249,0.014 -0.361,0.014c-0.677,0 -1.208,-0.223 -1.588,-0.669c-0.38,-0.446 -0.571,-1.016 -0.571,-1.71c0,-0.123 0.009,-0.255 0.027,-0.393c0.02,-0.138 0.052,-0.278 0.099,-0.42c0.111,-0.377 0.315,-0.724 0.612,-1.04c0.298,-0.317 0.72,-0.476 1.268,-0.476c0.454,0 0.83,0.111 1.128,0.334c0.296,0.223 0.457,0.507 0.479,0.851l-0.5,-0.007c-0.033,-0.202 -0.119,-0.362 -0.262,-0.479c-0.142,-0.117 -0.293,-0.201 -0.456,-0.252c-0.07,-0.017 -0.136,-0.031 -0.201,-0.041c-0.065,-0.009 -0.129,-0.014 -0.188,-0.014c-0.479,0 -0.849,0.187 -1.111,0.559c-0.263,0.372 -0.393,0.831 -0.393,1.378c0,0.704 0.138,1.192 0.414,1.469c0.275,0.275 0.579,0.438 0.909,0.489c0.056,0.009 0.11,0.016 0.166,0.02c0.056,0.005 0.112,0.007 0.168,0.007c0.074,0 0.157,-0.003 0.251,-0.01c0.092,-0.007 0.184,-0.017 0.278,-0.031c0.092,-0.014 0.186,-0.034 0.278,-0.059c0.094,-0.025 0.177,-0.056 0.251,-0.093l0,-1.454l-1.162,0l0,-0.393l1.608,0Z" style="fill-rule:nonzero;"/><rect x="95.682" y="22.664" width="0.445" height="4.564"/><path d="M97.993,22.664l2.571,3.97l0,-3.97l0.444,0l0,4.563l-0.549,0l-2.514,-3.922l0,3.922l-0.446,0l0,-4.563l0.494,0Z" style="fill-rule:nonzero;"/><path d="M105.116,22.664l0,0.4l-2.311,0l0,1.633l2.214,0l0,0.399l-2.214,0l0,1.738l2.416,0l0,0.393l-2.869,0l0,-4.563l2.764,0Z" style="fill-rule:nonzero;"/><path d="M109.164,22.664l0,0.4l-2.312,0l0,1.633l2.213,0l0,0.399l-2.213,0l0,1.738l2.416,0l0,0.393l-2.87,0l0,-4.563l2.766,0Z" style="fill-rule:nonzero;"/><path d="M110.904,24.649l1.114,0c0.303,0.004 0.546,-0.056 0.732,-0.183c0.186,-0.126 0.278,-0.33 0.278,-0.61c0,-0.273 -0.083,-0.473 -0.251,-0.601c-0.166,-0.128 -0.438,-0.191 -0.815,-0.191l-1.058,0l0,1.585Zm1.309,-1.936c0.432,0.004 0.75,0.12 0.954,0.347c0.204,0.227 0.307,0.477 0.307,0.748c0,0.327 -0.063,0.564 -0.187,0.711c-0.126,0.148 -0.316,0.26 -0.572,0.339c0.117,0.014 0.204,0.038 0.265,0.072c0.06,0.035 0.109,0.071 0.146,0.107c0.009,0.015 0.02,0.027 0.031,0.039c0.012,0.012 0.022,0.023 0.031,0.037c0.005,0.01 0.011,0.018 0.018,0.025c0.006,0.006 0.013,0.012 0.017,0.017c0.079,0.088 0.132,0.231 0.157,0.428c0.026,0.198 0.047,0.408 0.067,0.628l0,0.028l0,0.028c0.013,0.197 0.032,0.386 0.054,0.566c0.024,0.18 0.064,0.315 0.12,0.408l-0.446,-0.007c-0.065,-0.074 -0.109,-0.187 -0.129,-0.339c-0.021,-0.153 -0.039,-0.316 -0.053,-0.49c0,-0.033 -0.001,-0.066 -0.003,-0.101c-0.003,-0.035 -0.006,-0.07 -0.01,-0.108c-0.023,-0.286 -0.078,-0.547 -0.161,-0.784c-0.083,-0.238 -0.269,-0.356 -0.556,-0.356l-1.359,0l0,2.178l-0.445,0l0,-4.521l1.754,0Z" style="fill-rule:nonzero;"/><rect x="114.895" y="22.664" width="0.445" height="4.564"/><path d="M117.207,22.664l2.569,3.97l0,-3.97l0.446,0l0,4.563l-0.55,0l-2.515,-3.922l0,3.922l-0.444,0l0,-4.563l0.494,0Z" style="fill-rule:nonzero;"/><path d="M124.942,24.897l0,2.137c-0.11,0.064 -0.231,0.114 -0.358,0.152c-0.127,0.036 -0.259,0.066 -0.393,0.089c-0.13,0.018 -0.26,0.032 -0.39,0.042c-0.13,0.008 -0.251,0.014 -0.363,0.014c-0.678,0 -1.207,-0.223 -1.588,-0.669c-0.381,-0.446 -0.57,-1.016 -0.57,-1.71c0,-0.123 0.009,-0.255 0.027,-0.393c0.019,-0.138 0.052,-0.278 0.097,-0.42c0.112,-0.377 0.316,-0.724 0.614,-1.04c0.296,-0.317 0.72,-0.476 1.267,-0.476c0.455,0 0.831,0.111 1.128,0.334c0.298,0.223 0.458,0.507 0.481,0.851l-0.502,-0.007c-0.032,-0.202 -0.12,-0.362 -0.26,-0.479c-0.142,-0.117 -0.295,-0.201 -0.457,-0.252c-0.069,-0.017 -0.138,-0.031 -0.203,-0.041c-0.065,-0.009 -0.127,-0.014 -0.187,-0.014c-0.478,0 -0.848,0.187 -1.111,0.559c-0.262,0.372 -0.393,0.831 -0.393,1.378c0,0.704 0.137,1.192 0.414,1.469c0.276,0.275 0.579,0.438 0.909,0.489c0.055,0.009 0.111,0.016 0.167,0.02c0.056,0.005 0.112,0.007 0.167,0.007c0.074,0 0.159,-0.003 0.251,-0.01c0.093,-0.007 0.186,-0.017 0.278,-0.031c0.094,-0.014 0.186,-0.034 0.28,-0.059c0.092,-0.025 0.175,-0.056 0.249,-0.093l0,-1.454l-1.163,0l0,-0.393l1.609,0Z" style="fill-rule:nonzero;"/></svg>