<?xml version="1.0" encoding="UTF-8" standalone="no"?><!DOCTYPE svg PUBLIC "-//W3C//DTD SVG 1.1//EN" "http://www.w3.org/Graphics/SVG/1.1/DTD/svg11.dtd"><svg width="100%" height="100%" viewBox="0 0 219 50" version="1.1" xmlns="http://www.w3.org/2000/svg" xmlns:xlink="http://www.w3.org/1999/xlink" xml:space="preserve" xmlns:serif="http://www.serif.com/" style="fill-rule:evenodd;clip-rule:evenodd;stroke-linejoin:round;stroke-miterlimit:1.41421;"><path d="M0,15.512l1.887,-2.243c1.71,1.478 3.419,2.318 5.641,2.318c1.938,0 3.166,-0.89 3.166,-2.24l0,-0.053c0,-1.275 -0.719,-1.966 -4.035,-2.732c-3.8,-0.918 -5.943,-2.04 -5.943,-5.331l0,-0.053c0,-3.059 2.55,-5.178 6.1,-5.178c2.6,0 4.668,0.791 6.478,2.244l-1.685,2.375c-1.606,-1.2 -3.212,-1.838 -4.847,-1.838c-1.837,0 -2.909,0.944 -2.909,2.119l0,0.05c0,1.378 0.816,1.991 4.238,2.806c3.775,0.919 5.74,2.272 5.74,5.228l0,0.054c0,3.34 -2.628,5.334 -6.378,5.334c-2.731,0 -5.309,-0.947 -7.453,-2.86" style="fill:#24282a;fill-rule:nonzero;"/><path d="M28.918,0.126l2.913,0l7.856,17.99l-3.315,0l-1.813,-4.312l-8.444,0l-1.837,4.312l-3.219,0l7.859,-17.99Zm4.491,10.896l-3.087,-7.143l-3.06,7.143l6.147,0Z" style="fill:#24282a;fill-rule:nonzero;"/><path d="M47.598,0.254l7.044,0c4.159,0 6.787,2.375 6.787,5.972l0,0.05c0,4.006 -3.218,6.1 -7.143,6.1l-3.547,0l0,5.74l-3.141,0l0,-17.862Zm6.788,9.29c2.375,0 3.853,-1.328 3.853,-3.19l0,-0.05c0,-2.094 -1.503,-3.191 -3.853,-3.191l-3.647,0l0,6.431l3.647,0Z" style="fill:#24282a;fill-rule:nonzero;"/><rect x="70.097" y="0.254" width="3.141" height="17.862" style="fill:#24282a;"/><path d="M83.279,0.254l13.244,0l0,2.806l-10.103,0l0,4.647l8.956,0l0,2.803l-8.956,0l0,4.797l10.231,0l0,2.809l-13.372,0l0,-17.862Z" style="fill:#24282a;fill-rule:nonzero;"/><path d="M106.503,0.254l2.909,0l9.566,12.35l0,-12.35l3.088,0l0,17.862l-2.625,0l-9.854,-12.709l0,12.709l-3.084,0l0,-17.862Z" style="fill:#24282a;fill-rule:nonzero;"/><path d="M136.749,3.162l-5.662,0l0,-2.91l14.49,0l0,2.91l-5.662,0l0,14.953l-3.166,0l0,-14.953Z" style="fill:#24282a;fill-rule:nonzero;"/><path d="M0.18,29.175l7.959,0c2.247,0 4.007,0.663 5.154,1.785c0.946,0.972 1.481,2.3 1.481,3.856l0,0.047c0,2.937 -1.763,4.697 -4.26,5.412l4.822,6.763l-3.7,0l-4.387,-6.228l-3.931,0l0,6.228l-3.138,0l0,-17.863Zm7.731,8.853c2.244,0 3.672,-1.175 3.672,-2.984l0,-0.053c0,-1.913 -1.375,-2.959 -3.697,-2.959l-4.568,0l0,5.996l4.593,0Z" style="fill:#24282a;fill-rule:nonzero;"/><path d="M28.87,29.047l2.909,0l7.856,17.99l-3.315,0l-1.813,-4.312l-8.444,0l-1.837,4.312l-3.219,0l7.863,-17.99Zm4.49,10.894l-3.087,-7.144l-3.063,7.144l6.15,0Z" style="fill:#24282a;fill-rule:nonzero;"/><path d="M46.908,44.715l10.541,-12.76l-10.209,0l0,-2.781l14.29,0l0,2.325l-10.537,12.756l10.537,0l0,2.782l-14.622,0l0,-2.322Z" style="fill:#24282a;fill-rule:nonzero;"/><path d="M69,38.157l0,-0.054c0,-5.025 3.878,-9.237 9.366,-9.237c5.484,0 9.312,4.159 9.312,9.187l0,0.05c0,5.029 -3.881,9.238 -9.365,9.238c-5.485,0 -9.313,-4.159 -9.313,-9.184m15.388,0l0,-0.054c0,-3.468 -2.528,-6.353 -6.075,-6.353c-3.544,0 -6.022,2.832 -6.022,6.303l0,0.05c0,3.472 2.525,6.357 6.075,6.357c3.547,0 6.022,-2.835 6.022,-6.303" style="fill:#24282a;fill-rule:nonzero;"/><path d="M95.477,29.175l7.963,0c2.247,0 4.006,0.663 5.153,1.785c0.944,0.972 1.481,2.3 1.481,3.856l0,0.047c0,2.937 -1.762,4.697 -4.259,5.412l4.822,6.763l-3.7,0l-4.391,-6.228l-3.928,0l0,6.228l-3.141,0l0,-17.863Zm7.735,8.853c2.243,0 3.671,-1.175 3.671,-2.984l0,-0.053c0,-1.913 -1.378,-2.959 -3.7,-2.959l-4.565,0l0,5.996l4.594,0Z" style="fill:#24282a;fill-rule:nonzero;"/><path d="M120.053,29.175l13.294,0l0,2.857l-10.156,0l0,4.875l9.009,0l0,2.859l-9.009,0l0,7.272l-3.138,0l0,-17.863Z" style="fill:#24282a;fill-rule:nonzero;"/><rect x="143.094" y="29.176" width="3.141" height="17.863" style="fill:#24282a;"/><path d="M155.502,44.434l1.888,-2.247c1.709,1.481 3.422,2.322 5.64,2.322c1.938,0 3.166,-0.894 3.166,-2.244l0,-0.053c0,-1.275 -0.716,-1.965 -4.031,-2.728c-3.803,-0.919 -5.947,-2.041 -5.947,-5.334l0,-0.053c0,-3.06 2.553,-5.179 6.1,-5.179c2.603,0 4.669,0.791 6.481,2.247l-1.684,2.372c-1.61,-1.197 -3.216,-1.837 -4.85,-1.837c-1.838,0 -2.91,0.947 -2.91,2.122l0,0.046c0,1.382 0.819,1.991 4.238,2.81c3.775,0.919 5.74,2.269 5.74,5.228l0,0.053c0,3.341 -2.628,5.331 -6.378,5.331c-2.731,0 -5.306,-0.943 -7.453,-2.856" style="fill:#24282a;fill-rule:nonzero;"/><path d="M178.732,29.175l3.141,0l0,7.425l8.519,0l0,-7.425l3.14,0l0,17.863l-3.14,0l0,-7.528l-8.519,0l0,7.528l-3.141,0l0,-17.863Z" style="fill:#24282a;fill-rule:nonzero;"/><rect x="202.857" y="47.038" width="15.597" height="3.119" style="fill:#003da7;"/><path d="M0,15.512l1.887,-2.243c1.71,1.478 3.419,2.318 5.641,2.318c1.938,0 3.166,-0.89 3.166,-2.24l0,-0.053c0,-1.275 -0.719,-1.966 -4.035,-2.732c-3.8,-0.918 -5.943,-2.04 -5.943,-5.331l0,-0.053c0,-3.059 2.55,-5.178 6.1,-5.178c2.6,0 4.668,0.791 6.478,2.244l-1.685,2.375c-1.606,-1.2 -3.212,-1.838 -4.847,-1.838c-1.837,0 -2.909,0.944 -2.909,2.119l0,0.05c0,1.378 0.816,1.991 4.238,2.806c3.775,0.919 5.74,2.272 5.74,5.228l0,0.054c0,3.34 -2.628,5.334 -6.378,5.334c-2.731,0 -5.309,-0.947 -7.453,-2.86" style="fill:#24282a;fill-rule:nonzero;"/><path d="M28.918,0.126l2.913,0l7.856,17.99l-3.315,0l-1.813,-4.312l-8.444,0l-1.837,4.312l-3.219,0l7.859,-17.99Zm4.491,10.896l-3.087,-7.143l-3.06,7.143l6.147,0Z" style="fill:#24282a;fill-rule:nonzero;"/><path d="M47.598,0.254l7.044,0c4.159,0 6.787,2.375 6.787,5.972l0,0.05c0,4.006 -3.218,6.1 -7.143,6.1l-3.547,0l0,5.74l-3.141,0l0,-17.862Zm6.788,9.29c2.375,0 3.853,-1.328 3.853,-3.19l0,-0.05c0,-2.094 -1.503,-3.191 -3.853,-3.191l-3.647,0l0,6.431l3.647,0Z" style="fill:#24282a;fill-rule:nonzero;"/><rect x="70.097" y="0.254" width="3.141" height="17.862" style="fill:#24282a;"/><path d="M83.279,0.254l13.244,0l0,2.806l-10.103,0l0,4.647l8.956,0l0,2.803l-8.956,0l0,4.797l10.231,0l0,2.809l-13.372,0l0,-17.862Z" style="fill:#24282a;fill-rule:nonzero;"/><path d="M106.503,0.254l2.909,0l9.566,12.35l0,-12.35l3.088,0l0,17.862l-2.625,0l-9.854,-12.709l0,12.709l-3.084,0l0,-17.862Z" style="fill:#24282a;fill-rule:nonzero;"/><path d="M136.749,3.162l-5.662,0l0,-2.91l14.49,0l0,2.91l-5.662,0l0,14.953l-3.166,0l0,-14.953Z" style="fill:#24282a;fill-rule:nonzero;"/><path d="M0.18,29.175l7.959,0c2.247,0 4.007,0.663 5.154,1.785c0.946,0.972 1.481,2.3 1.481,3.856l0,0.047c0,2.937 -1.763,4.697 -4.26,5.412l4.822,6.763l-3.7,0l-4.387,-6.228l-3.931,0l0,6.228l-3.138,0l0,-17.863Zm7.731,8.853c2.244,0 3.672,-1.175 3.672,-2.984l0,-0.053c0,-1.913 -1.375,-2.959 -3.697,-2.959l-4.568,0l0,5.996l4.593,0Z" style="fill:#24282a;fill-rule:nonzero;"/><path d="M28.87,29.047l2.909,0l7.856,17.99l-3.315,0l-1.813,-4.312l-8.444,0l-1.837,4.312l-3.219,0l7.863,-17.99Zm4.49,10.894l-3.087,-7.144l-3.063,7.144l6.15,0Z" style="fill:#24282a;fill-rule:nonzero;"/><path d="M46.908,44.715l10.541,-12.76l-10.209,0l0,-2.781l14.29,0l0,2.325l-10.537,12.756l10.537,0l0,2.782l-14.622,0l0,-2.322Z" style="fill:#24282a;fill-rule:nonzero;"/><path d="M69,38.157l0,-0.054c0,-5.025 3.878,-9.237 9.366,-9.237c5.484,0 9.312,4.159 9.312,9.187l0,0.05c0,5.029 -3.881,9.238 -9.365,9.238c-5.485,0 -9.313,-4.159 -9.313,-9.184m15.388,0l0,-0.054c0,-3.468 -2.528,-6.353 -6.075,-6.353c-3.544,0 -6.022,2.832 -6.022,6.303l0,0.05c0,3.472 2.525,6.357 6.075,6.357c3.547,0 6.022,-2.835 6.022,-6.303" style="fill:#24282a;fill-rule:nonzero;"/><path d="M95.477,29.175l7.963,0c2.247,0 4.006,0.663 5.153,1.785c0.944,0.972 1.481,2.3 1.481,3.856l0,0.047c0,2.937 -1.762,4.697 -4.259,5.412l4.822,6.763l-3.7,0l-4.391,-6.228l-3.928,0l0,6.228l-3.141,0l0,-17.863Zm7.735,8.853c2.243,0 3.671,-1.175 3.671,-2.984l0,-0.053c0,-1.913 -1.378,-2.959 -3.7,-2.959l-4.565,0l0,5.996l4.594,0Z" style="fill:#24282a;fill-rule:nonzero;"/><path d="M120.053,29.175l13.294,0l0,2.857l-10.156,0l0,4.875l9.009,0l0,2.859l-9.009,0l0,7.272l-3.138,0l0,-17.863Z" style="fill:#24282a;fill-rule:nonzero;"/><rect x="143.094" y="29.176" width="3.141" height="17.863" style="fill:#24282a;"/><path d="M155.502,44.434l1.888,-2.247c1.709,1.481 3.422,2.322 5.64,2.322c1.938,0 3.166,-0.894 3.166,-2.244l0,-0.053c0,-1.275 -0.716,-1.965 -4.031,-2.728c-3.803,-0.919 -5.947,-2.041 -5.947,-5.334l0,-0.053c0,-3.06 2.553,-5.179 6.1,-5.179c2.603,0 4.669,0.791 6.481,2.247l-1.684,2.372c-1.61,-1.197 -3.216,-1.837 -4.85,-1.837c-1.838,0 -2.91,0.947 -2.91,2.122l0,0.046c0,1.382 0.819,1.991 4.238,2.81c3.775,0.919 5.74,2.269 5.74,5.228l0,0.053c0,3.341 -2.628,5.331 -6.378,5.331c-2.731,0 -5.306,-0.943 -7.453,-2.856" style="fill:#24282a;fill-rule:nonzero;"/><path d="M178.732,29.175l3.141,0l0,7.425l8.519,0l0,-7.425l3.14,0l0,17.863l-3.14,0l0,-7.528l-8.519,0l0,7.528l-3.141,0l0,-17.863Z" style="fill:#24282a;fill-rule:nonzero;"/><rect x="202.857" y="47.038" width="15.597" height="3.119" style="fill:#3d57a7;"/></svg>