<?xml version="1.0" encoding="UTF-8" standalone="no"?><!DOCTYPE svg PUBLIC "-//W3C//DTD SVG 1.1//EN" "http://www.w3.org/Graphics/SVG/1.1/DTD/svg11.dtd"><svg width="100%" height="100%" viewBox="0 0 1760 533" version="1.1" xmlns="http://www.w3.org/2000/svg" xmlns:xlink="http://www.w3.org/1999/xlink" xml:space="preserve" xmlns:serif="http://www.serif.com/" style="fill-rule:evenodd;clip-rule:evenodd;stroke-linejoin:round;stroke-miterlimit:1.41421;"><g><path d="M1757.59,73.426c0.27,-1.041 0.54,-2.081 0.74,-3.143c5.76,-25.639 -6.29,-51.551 -28.62,-63.946c-0.27,-0.175 -0.57,-0.338 -0.86,-0.513c-0.57,-0.307 -1.18,-0.569 -1.77,-0.865c-2.26,-1.177 -4.63,-2.146 -7.12,-2.903c-0.83,-0.283 -1.65,-0.618 -2.5,-0.854l0.1,0.176c-3.15,-0.755 -6.38,-1.287 -9.77,-1.287l-276.01,0c-23.13,0 -41.9,18.763 -41.9,41.876c0,23.137 18.77,41.888 41.9,41.888l212.27,0l-0.02,0.01c4.96,1.9 7.44,7.484 5.57,12.465l0.02,-0.022l-106.29,184.97c-11.51,20.049 -4.59,45.647 15.47,57.171c20.07,11.536 45.66,4.611 57.17,-15.444l137.52,-239.309c1.85,-3.225 3.11,-6.608 4.03,-10.039l0.02,0.021c0.02,-0.084 0.02,-0.164 0.05,-0.252Z" style="fill:#0c0c17;fill-rule:nonzero;"/><path d="M1450.13,127.832c-1.51,-3.997 0.49,-8.487 4.49,-10.007l131.41,0c4.01,1.52 6.01,6.01 4.48,10.007l-64.67,112.538c-2.99,3.011 -7.93,3.011 -10.94,0l-64.77,-112.538Z" style="fill:#75a93a;fill-rule:nonzero;"/><path d="M116.524,264.931c0,17.836 -4.391,30.757 -13.177,38.782c-8.787,8.026 -25.026,12.032 -48.715,12.032c-21.149,0 -39.351,-3.186 -54.632,-9.547l3.816,-17.957c16.554,5.098 32.985,7.643 49.288,7.643c16.813,0 27.888,-2.036 33.243,-6.116c5.342,-4.067 8.021,-12.094 8.021,-24.07c0,-7.639 -0.192,-13.047 -0.574,-16.234c-0.385,-3.182 -2.169,-6.369 -5.356,-9.555c-3.18,-3.184 -7.32,-5.537 -12.411,-7.066c-5.096,-1.528 -13.375,-3.685 -24.833,-6.498c-15.543,-3.559 -26.877,-7.7 -34.003,-12.412c-7.134,-4.715 -11.657,-10.129 -13.567,-16.242c-1.906,-6.11 -2.862,-15.407 -2.862,-27.889c0,-16.047 4.582,-28.02 13.757,-35.915c9.166,-7.887 24.834,-11.846 46.994,-11.846c20.115,0 37.689,2.167 52.722,6.498l-2.294,18.718c-17.327,-3.558 -34.638,-5.344 -51.959,-5.344c-15.539,0 -25.6,2.037 -30.188,6.109c-4.584,4.08 -6.871,11.597 -6.871,22.545c0,12.986 1.713,21.336 5.157,25.025c3.439,3.696 13.687,7.703 30.751,12.035c14.01,3.563 24.707,6.75 32.1,9.552c7.384,2.805 13.045,6.624 16.999,11.466c3.945,4.834 6.361,9.612 7.258,14.321c0.887,4.72 1.336,12.034 1.336,21.965Z" style="fill:#0c0c17;fill-rule:nonzero;"/><path d="M184.531,188.908l0,16.808l93.223,0l0,-16.808c0,-16.304 -3.439,-28.338 -10.314,-36.11c-6.878,-7.765 -18.723,-11.651 -35.53,-11.651c-16.813,0 -28.917,3.953 -36.298,11.847c-7.391,7.895 -11.081,19.861 -11.081,35.914Zm0,59.982c0,17.065 3.568,29.223 10.698,36.482c7.128,7.26 19.736,10.888 37.824,10.888c17.58,0 37.19,-2.921 58.836,-8.786l3.822,17.958c-19.36,6.875 -40.753,10.313 -64.185,10.313c-24.965,0 -42.735,-5.856 -53.297,-17.573c-10.571,-11.711 -15.86,-28.392 -15.86,-50.049l0,-58.454c0,-45.083 23.18,-67.628 69.541,-67.628c45.078,0 67.622,22.545 67.622,67.628l0,35.914l-115.001,0l0,23.307Z" style="fill:#0c0c17;fill-rule:nonzero;"/><path d="M487.501,125.866l-63.04,186.058l-34.005,0l-63.035,-186.058l22.538,0l57.314,170.394l57.684,-170.394l22.544,0Z" style="fill:#0c0c17;fill-rule:nonzero;"/><path d="M538.318,188.908l0,16.808l93.217,0l0,-16.808c0,-16.304 -3.438,-28.338 -10.315,-36.11c-6.882,-7.765 -18.724,-11.651 -35.536,-11.651c-16.808,0 -28.906,3.953 -36.292,11.847c-7.39,7.895 -11.074,19.861 -11.074,35.914Zm0,59.982c0,17.065 3.558,29.223 10.692,36.482c7.133,7.26 19.735,10.888 37.824,10.888c17.574,0 37.185,-2.921 58.836,-8.786l3.822,17.958c-19.364,6.875 -40.757,10.313 -64.186,10.313c-24.963,0 -42.729,-5.856 -53.295,-17.573c-10.579,-11.711 -15.855,-28.392 -15.855,-50.049l0,-58.454c0,-45.083 23.17,-67.628 69.528,-67.628c45.09,0 67.625,22.545 67.625,67.628l0,35.914l-114.991,0l0,23.307Z" style="fill:#0c0c17;fill-rule:nonzero;"/><path d="M844.719,311.924l-22.155,0l0,-150.53c0,-12.473 -6.755,-18.72 -20.251,-18.72c-7.9,0 -18.982,2.109 -33.237,6.301c-14.271,4.206 -27.001,9.243 -38.214,15.096l0,147.853l-22.156,0l0,-186.058l19.485,0l1.531,16.808c11.204,-5.348 24.002,-10.122 38.39,-14.328c14.388,-4.203 26.81,-6.305 37.254,-6.305c26.232,0 39.353,14.014 39.353,42.03l0,147.853Z" style="fill:#0c0c17;fill-rule:nonzero;"/><path d="M1041.11,125.866l-63.054,186.058l-33.998,0l-63.046,-186.058l22.543,0l57.311,170.394l57.694,-170.394l22.55,0Z" style="fill:#0c0c17;fill-rule:nonzero;"/><path d="M1179.41,276.779l0,-44.702l-54.26,0c-12.74,0 -21.46,2.295 -26.17,6.875c-4.72,4.582 -7.07,12.991 -7.07,25.223c0,11.715 1.97,19.928 5.92,24.64c3.95,4.714 12.16,7.069 24.65,7.069c19.86,0 38.84,-6.367 56.93,-19.105Zm22.15,-100.861l0,136.006l-19.1,0l-1.53,-14.512c-19.87,12.225 -40.88,18.333 -63.04,18.333c-32.09,0 -48.14,-17.316 -48.14,-51.954c0,-19.107 4.33,-32.476 12.99,-40.118c8.65,-7.642 22.54,-11.465 41.64,-11.465l55.03,0l0,-36.29c0,-12.478 -3.44,-21.27 -10.32,-26.367c-6.88,-5.087 -18.09,-7.638 -33.63,-7.638c-16.3,0 -34.64,2.037 -55.02,6.109l-3.43,-18.722c17.06,-4.83 36.16,-7.259 57.31,-7.259c23.43,0 40.5,4.527 51.19,13.565c10.7,9.045 16.05,22.484 16.05,40.312Z" style="fill:#0c0c17;fill-rule:nonzero;"/><path d="M1284.85,311.924l-22.16,0l0,-262.091l22.16,-3.052l0,265.143Z" style="fill:#0c0c17;fill-rule:nonzero;"/><path d="M372.079,531.815l0,-69.805l-23.584,0l0,-9.126l57.361,0l0,9.126l-23.585,0l0,69.805l-10.192,0Z" style="fill:#0c0c17;fill-rule:nonzero;"/><path d="M443.778,531.815l0,-78.931l46.458,0l0,9.126l-36.265,0l0,24.77l33.658,0l0,9.125l-33.658,0l0,26.785l36.383,0l0,9.125l-46.576,0Z" style="fill:#0c0c17;fill-rule:nonzero;"/><path d="M541.67,475.52l0,33.658c0,5.531 1.244,9.345 3.733,11.439c2.489,2.092 6.972,3.139 13.451,3.139c6.083,0 12.247,-0.551 18.489,-1.659l1.067,8.77c-6.243,1.422 -12.88,2.133 -19.911,2.133c-9.403,0 -16.257,-1.956 -20.563,-5.867c-4.307,-3.911 -6.459,-9.697 -6.459,-17.362l0,-34.843c0,-7.663 2.152,-13.452 6.459,-17.362c4.306,-3.911 11.16,-5.867 20.563,-5.867c7.031,0 13.668,0.711 19.911,2.134l-1.067,8.769c-6.242,-1.105 -12.406,-1.659 -18.489,-1.659c-6.479,0 -10.962,1.049 -13.451,3.14c-2.489,2.095 -3.733,5.908 -3.733,11.437Z" style="fill:#0c0c17;fill-rule:nonzero;"/><path d="M675.234,531.815l-10.192,0l0,-35.791l-34.962,0l0,35.791l-10.192,0l0,-78.931l10.192,0l0,34.014l34.962,0l0,-34.014l10.192,0l0,78.931Z" style="fill:#0c0c17;fill-rule:nonzero;"/><path d="M764.948,531.815l-34.369,-67.198l0,67.198l-9.718,0l0,-78.931l13.985,0l34.369,67.554l0,-67.554l9.718,0l0,78.931l-13.985,0Z" style="fill:#0c0c17;fill-rule:nonzero;"/><path d="M832.974,475.876l0,32.947c0,10.115 6.122,15.17 18.369,15.17c12.246,0 18.37,-5.055 18.37,-15.17l0,-32.947c0,-10.113 -6.124,-15.169 -18.37,-15.169c-12.247,0 -18.369,5.056 -18.369,15.169Zm46.931,-0.237l0,33.421c0,7.112 -2.351,12.88 -7.051,17.303c-4.702,4.426 -11.872,6.637 -21.511,6.637c-9.64,0 -16.81,-2.211 -21.51,-6.637c-4.702,-4.423 -7.052,-10.191 -7.052,-17.303l0,-33.421c0,-7.111 2.35,-12.878 7.052,-17.304c4.7,-4.423 11.87,-6.636 21.51,-6.636c9.639,0 16.809,2.213 21.511,6.636c4.7,4.426 7.051,10.193 7.051,17.304Z" style="fill:#0c0c17;fill-rule:nonzero;"/><path d="M933.947,452.884l0,69.806l34.25,0l0,9.125l-44.442,0l0,-78.931l10.192,0Z" style="fill:#0c0c17;fill-rule:nonzero;"/><path d="M1016.91,475.876l0,32.947c0,10.115 6.12,15.17 18.37,15.17c12.24,0 18.37,-5.055 18.37,-15.17l0,-32.947c0,-10.113 -6.13,-15.169 -18.37,-15.169c-12.25,0 -18.37,5.056 -18.37,15.169Zm46.93,-0.237l0,33.421c0,7.112 -2.35,12.88 -7.05,17.303c-4.71,4.426 -11.87,6.637 -21.51,6.637c-9.64,0 -16.81,-2.211 -21.51,-6.637c-4.71,-4.423 -7.06,-10.191 -7.06,-17.303l0,-33.421c0,-7.111 2.35,-12.878 7.06,-17.304c4.7,-4.423 11.87,-6.636 21.51,-6.636c9.64,0 16.8,2.213 21.51,6.636c4.7,4.426 7.05,10.193 7.05,17.304Z" style="fill:#0c0c17;fill-rule:nonzero;"/><path d="M1116.1,475.52l0,33.658c0,5.296 1.13,9.048 3.38,11.26c2.25,2.213 6.62,3.318 13.1,3.318c5.05,0 9.99,-0.474 14.81,-1.423l0,-26.784l9.84,0l0,34.014c-7.82,2.291 -16.16,3.437 -25.01,3.437c-9.64,0 -16.43,-1.935 -20.38,-5.807c-3.96,-3.87 -5.93,-9.678 -5.93,-17.422l0,-34.725c0,-8.058 2.17,-13.963 6.52,-17.717c4.34,-3.752 11.38,-5.63 21.09,-5.63c7.27,0 14.58,0.83 21.93,2.489l-1.19,8.77c-7.82,-1.342 -14.89,-2.015 -21.21,-2.015c-6.4,0 -10.83,1.087 -13.27,3.26c-2.45,2.173 -3.68,5.946 -3.68,11.317Z" style="fill:#0c0c17;fill-rule:nonzero;"/><rect x="1202.26" y="452.884" width="10.19" height="78.931" style="fill:#0c0c17;fill-rule:nonzero;"/><path d="M1258.67,531.815l0,-78.931l46.46,0l0,9.126l-36.27,0l0,24.77l33.66,0l0,9.125l-33.66,0l0,26.785l36.39,0l0,9.125l-46.58,0Z" style="fill:#0c0c17;fill-rule:nonzero;"/><path d="M1394.37,511.43c0,3.716 -0.34,6.796 -1.01,9.244c-0.67,2.451 -1.91,4.663 -3.73,6.637c-1.82,1.977 -4.44,3.419 -7.88,4.326c-3.44,0.907 -7.8,1.363 -13.1,1.363c-8.77,0 -16.59,-1.381 -23.46,-4.148l1.66,-8.295c7.34,2.292 14.69,3.436 22.04,3.436c6.16,0 10.25,-0.889 12.27,-2.665c2.01,-1.78 3.02,-4.997 3.02,-9.661c0,-3.081 -0.06,-5.233 -0.18,-6.459c-0.12,-1.224 -0.77,-2.468 -1.96,-3.733c-1.18,-1.263 -2.74,-2.172 -4.68,-2.725c-1.93,-0.552 -5.11,-1.343 -9.54,-2.371c-4.97,-1.105 -8.79,-2.172 -11.43,-3.2c-2.65,-1.026 -4.76,-2.508 -6.34,-4.444c-1.59,-1.936 -2.57,-4.089 -2.97,-6.459c-0.39,-2.37 -0.59,-5.767 -0.59,-10.193c0,-7.188 1.84,-12.384 5.51,-15.584c3.68,-3.2 10.25,-4.8 19.73,-4.8c7.67,0 14.78,0.871 21.34,2.607l-0.83,8.652c-6.64,-1.5 -13.4,-2.251 -20.27,-2.251c-6.32,0 -10.45,0.79 -12.38,2.37c-1.94,1.581 -2.91,4.701 -2.91,9.362c0,2.213 0,3.774 0,4.682c0,0.909 0.2,1.975 0.6,3.2c0.39,1.225 0.83,2.034 1.3,2.429c0.47,0.396 1.4,0.948 2.78,1.659c1.39,0.712 2.81,1.265 4.27,1.659c1.46,0.396 3.69,0.948 6.7,1.659c5.45,1.345 9.56,2.549 12.32,3.615c2.77,1.067 4.94,2.569 6.52,4.504c1.58,1.937 2.51,3.931 2.79,5.985c0.27,2.055 0.41,5.255 0.41,9.599Z" style="fill:#0c0c17;fill-rule:nonzero;"/></g></svg>