<?xml version="1.0" encoding="UTF-8" standalone="no"?><!DOCTYPE svg PUBLIC "-//W3C//DTD SVG 1.1//EN" "http://www.w3.org/Graphics/SVG/1.1/DTD/svg11.dtd"><svg width="100%" height="100%" viewBox="0 0 288 141" version="1.1" xmlns="http://www.w3.org/2000/svg" xmlns:xlink="http://www.w3.org/1999/xlink" xml:space="preserve" xmlns:serif="http://www.serif.com/" style="fill-rule:evenodd;clip-rule:evenodd;stroke-linejoin:round;stroke-miterlimit:1.41421;"><path id="path108" d="M260.085,65.288l28.824,0l0,28.824l-28.824,0l0,-28.824Zm-86.47,0l28.82,0l0,28.824l-28.82,0l0,-28.824Zm-86.474,0l28.825,0l0,28.824l-28.825,0l0,-28.824Zm-18.348,46.248c0,9.145 1.334,15.08 4.013,17.817c2.265,2.331 6.124,3.767 11.534,4.302c1.604,0.135 4.355,0.197 8.238,0.197l0,8.012l-69.453,0l0,-8.012c5.579,0 9.689,-0.265 12.348,-0.8c5.382,-1.132 8.773,-4.268 10.166,-9.409c0.727,-2.664 1.098,-6.701 1.098,-12.107l0,-104.724c-11.784,0.333 -21,4.235 -27.654,11.712c-6.321,7.155 -10.175,18.106 -11.577,32.858l-7.506,-1.296l1.397,-50.086l112.909,0l1.402,50.086l-7.515,1.296c-1.397,-14.752 -5.285,-25.703 -11.63,-32.858c-6.687,-7.477 -15.947,-11.379 -27.77,-11.712l0,104.724Zm-68.656,-46.248l28.825,0l0,28.824l-28.825,0l0,-28.824Z" style="fill:#e2007a;fill-rule:nonzero;"/></svg>