<?xml version="1.0" encoding="UTF-8" standalone="no"?><!DOCTYPE svg PUBLIC "-//W3C//DTD SVG 1.1//EN" "http://www.w3.org/Graphics/SVG/1.1/DTD/svg11.dtd"><svg width="100%" height="100%" viewBox="0 0 118 45" version="1.1" xmlns="http://www.w3.org/2000/svg" xmlns:xlink="http://www.w3.org/1999/xlink" xml:space="preserve" xmlns:serif="http://www.serif.com/" style="fill-rule:evenodd;clip-rule:evenodd;stroke-linejoin:round;stroke-miterlimit:1.41421;"><g><rect x="3.184" y="28.33" width="111.26" height="13.851" style="fill:#ed1c24;fill-rule:nonzero;"/><path d="M12.291,39.269l0,-8.544l-0.648,0l0,7.404l-4.932,-7.404l-0.648,0l0,8.544l0.648,0l0,-7.428l4.932,7.428l0.648,0Z" style="fill:#fff;fill-rule:nonzero;"/><path d="M18.975,36.377c0,-0.828 -0.108,-1.716 -0.72,-2.328c-0.42,-0.42 -0.96,-0.636 -1.608,-0.636c-0.648,0 -1.188,0.216 -1.608,0.636c-0.612,0.612 -0.72,1.5 -0.72,2.328c0,0.828 0.108,1.716 0.72,2.328c0.42,0.42 0.96,0.636 1.608,0.636c0.648,0 1.188,-0.216 1.608,-0.636c0.612,-0.612 0.72,-1.5 0.72,-2.328Zm-0.612,0c0,0.672 -0.036,1.452 -0.516,1.932c-0.324,0.324 -0.732,0.492 -1.2,0.492c-0.468,0 -0.876,-0.168 -1.2,-0.492c-0.48,-0.48 -0.516,-1.26 -0.516,-1.932c0,-0.672 0.036,-1.452 0.516,-1.932c0.324,-0.324 0.732,-0.492 1.2,-0.492c0.468,0 0.876,0.168 1.2,0.492c0.48,0.48 0.516,1.26 0.516,1.932Z" style="fill:#fff;fill-rule:nonzero;"/><path d="M24.111,34.409l0.444,-0.444c-0.42,-0.42 -0.828,-0.552 -1.392,-0.552c-0.684,0 -1.356,0.3 -1.692,0.84l0,-0.768l-0.612,0l0,5.784l0.612,0l0,-3.564c0,-0.924 0.552,-1.752 1.548,-1.752c0.48,0 0.744,0.108 1.092,0.456Z" style="fill:#fff;fill-rule:nonzero;"/><path d="M29.379,39.269l0,-8.544l-0.612,0l0,3.504c-0.516,-0.672 -1.056,-0.816 -1.716,-0.816c-0.612,0 -1.116,0.204 -1.416,0.504c-0.588,0.588 -0.744,1.548 -0.744,2.46c0,0.912 0.156,1.872 0.744,2.46c0.3,0.3 0.804,0.504 1.416,0.504c0.66,0 1.2,-0.144 1.716,-0.816l0,0.744l0.612,0Zm-0.612,-2.892c0,1.2 -0.216,2.424 -1.632,2.424c-1.416,0 -1.632,-1.224 -1.632,-2.424c0,-1.2 0.216,-2.424 1.632,-2.424c1.416,0 1.632,1.224 1.632,2.424Z" style="fill:#fff;fill-rule:nonzero;"/><path d="M34.851,34.409l0.444,-0.444c-0.42,-0.42 -0.828,-0.552 -1.392,-0.552c-0.684,0 -1.356,0.3 -1.692,0.84l0,-0.768l-0.612,0l0,5.784l0.612,0l0,-3.564c0,-0.924 0.552,-1.752 1.548,-1.752c0.48,0 0.744,0.108 1.092,0.456Z" style="fill:#fff;fill-rule:nonzero;"/><path d="M40.839,39.269l0,-3.696c0,-1.344 -0.804,-2.16 -2.136,-2.16c-0.708,0 -1.272,0.252 -1.704,0.756l0,-3.444l-0.612,0l0,8.544l0.612,0l0,-3.588c0,-1.116 0.588,-1.728 1.632,-1.728c1.044,0 1.596,0.612 1.596,1.728l0,3.588l0.612,0Z" style="fill:#fff;fill-rule:nonzero;"/><path d="M47.283,36.509l0,-0.276c0,-1.776 -0.864,-2.82 -2.316,-2.82c-1.452,0 -2.316,1.092 -2.316,2.964c0,1.932 0.864,2.964 2.46,2.964c0.96,0 1.5,-0.3 2.088,-0.888l-0.456,-0.36c-0.492,0.492 -0.912,0.696 -1.596,0.696c-1.236,0 -1.884,-0.804 -1.884,-2.28l4.02,0Zm-0.612,-0.492l-3.408,0c0.036,-0.552 0.048,-0.744 0.204,-1.092c0.276,-0.6 0.828,-0.972 1.5,-0.972c0.672,0 1.248,0.36 1.5,0.972c0.156,0.348 0.168,0.54 0.204,1.092Z" style="fill:#fff;fill-rule:nonzero;"/><path d="M49.767,39.269l0,-5.784l-0.612,0l0,5.784l0.612,0Zm0.072,-7.788l0,-0.756l-0.756,0l0,0.756l0.756,0Z" style="fill:#fff;fill-rule:nonzero;"/><path d="M56.439,39.269l0,-3.696c0,-0.684 -0.204,-1.224 -0.6,-1.608c-0.384,-0.372 -0.9,-0.552 -1.536,-0.552c-0.708,0 -1.272,0.252 -1.704,0.756l0,-0.684l-0.612,0l0,5.784l0.612,0l0,-3.588c0,-1.104 0.588,-1.728 1.632,-1.728c1.044,0 1.596,0.612 1.596,1.728l0,3.588l0.612,0Z" style="fill:#fff;fill-rule:nonzero;"/><rect x="58.407" y="35.825" width="3.144" height="0.564" style="fill:#fff;fill-rule:nonzero;"/><path d="M72.279,30.725l-0.684,0l-1.8,7.428l-1.992,-7.428l-0.672,0l-1.992,7.428l-1.8,-7.428l-0.684,0l2.136,8.544l0.66,0l2.016,-7.44l2.016,7.44l0.66,0l2.136,-8.544Z" style="fill:#fff;fill-rule:nonzero;"/><path d="M77.391,36.509l0,-0.276c0,-1.776 -0.864,-2.82 -2.316,-2.82c-1.452,0 -2.316,1.092 -2.316,2.964c0,1.932 0.864,2.964 2.46,2.964c0.96,0 1.5,-0.3 2.088,-0.888l-0.456,-0.36c-0.492,0.492 -0.912,0.696 -1.596,0.696c-1.236,0 -1.884,-0.804 -1.884,-2.28l4.02,0Zm-0.612,-0.492l-3.408,0c0.036,-0.552 0.048,-0.744 0.204,-1.092c0.276,-0.6 0.828,-0.972 1.5,-0.972c0.672,0 1.248,0.36 1.5,0.972c0.156,0.348 0.168,0.54 0.204,1.092Z" style="fill:#fff;fill-rule:nonzero;"/><path d="M83.343,37.625c0,-1.128 -0.732,-1.416 -1.692,-1.512l-0.936,-0.084c-0.816,-0.084 -1.176,-0.36 -1.176,-0.972c0,-0.72 0.516,-1.116 1.476,-1.116c0.636,0 1.176,0.168 1.62,0.492l0.408,-0.408c-0.516,-0.384 -1.224,-0.612 -2.028,-0.612c-1.26,0 -2.076,0.636 -2.076,1.644c0,0.912 0.576,1.416 1.74,1.512l0.96,0.084c0.768,0.072 1.104,0.36 1.104,0.972c0,0.78 -0.6,1.176 -1.74,1.176c-0.816,0 -1.452,-0.24 -1.896,-0.708l-0.42,0.42c0.588,0.564 1.332,0.828 2.34,0.828c1.428,0 2.316,-0.66 2.316,-1.716Z" style="fill:#fff;fill-rule:nonzero;"/><path d="M87.014,39.269l0,-0.54l-0.42,0c-0.612,0 -0.888,-0.348 -0.888,-0.96l0,-3.828l1.308,0l0,-0.456l-1.308,0l0,-1.848l-0.612,0l0,1.848l-0.792,0l0,0.456l0.792,0l0,3.816c0,0.876 0.48,1.512 1.392,1.512l0.528,0Z" style="fill:#fff;fill-rule:nonzero;"/><path d="M90.843,33.941l0,-0.456l-1.308,0l0,-1.26c0,-0.612 0.276,-0.96 0.888,-0.96l0.42,0l0,-0.54l-0.528,0c-0.912,0 -1.392,0.636 -1.392,1.512l0,1.248l-0.792,0l0,0.456l0.792,0l0,5.328l0.612,0l0,-5.328l1.308,0Z" style="fill:#fff;fill-rule:nonzero;"/><path d="M96.05,39.269l0,-3.96c0,-1.212 -0.708,-1.896 -2.244,-1.896c-0.948,0 -1.548,0.204 -2.04,0.888l0.444,0.384c0.372,-0.528 0.78,-0.732 1.596,-0.732c1.188,0 1.632,0.492 1.632,1.416l0,0.648l-1.872,0c-1.26,0 -2.016,0.612 -2.016,1.668c0,0.432 0.144,0.852 0.42,1.128c0.372,0.384 0.84,0.528 1.704,0.528c0.816,0 1.272,-0.156 1.764,-0.648l0,0.576l0.612,0Zm-0.612,-2.016c0,0.528 -0.108,0.9 -0.324,1.104c-0.42,0.396 -0.912,0.444 -1.44,0.444c-1.056,0 -1.512,-0.36 -1.512,-1.128c0,-0.78 0.492,-1.164 1.476,-1.164l1.8,0l0,0.744Z" style="fill:#fff;fill-rule:nonzero;"/><path d="M100.119,39.269l0,-0.54l-0.42,0c-0.684,0 -0.888,-0.312 -0.888,-0.972l0,-7.032l-0.612,0l0,7.044c0,0.912 0.444,1.5 1.392,1.5l0.528,0Z" style="fill:#fff;fill-rule:nonzero;"/><path d="M105.555,36.509l0,-0.276c0,-1.776 -0.864,-2.82 -2.316,-2.82c-1.452,0 -2.316,1.092 -2.316,2.964c0,1.932 0.864,2.964 2.46,2.964c0.96,0 1.5,-0.3 2.088,-0.888l-0.456,-0.36c-0.492,0.492 -0.912,0.696 -1.596,0.696c-1.236,0 -1.884,-0.804 -1.884,-2.28l4.02,0Zm-0.612,-0.492l-3.408,0c0.036,-0.552 0.048,-0.744 0.204,-1.092c0.276,-0.6 0.828,-0.972 1.5,-0.972c0.672,0 1.248,0.36 1.5,0.972c0.156,0.348 0.168,0.54 0.204,1.092Z" style="fill:#fff;fill-rule:nonzero;"/><path d="M111.879,39.269l0,-3.696c0,-0.684 -0.204,-1.224 -0.6,-1.608c-0.384,-0.372 -0.9,-0.552 -1.536,-0.552c-0.708,0 -1.272,0.252 -1.704,0.756l0,-0.684l-0.612,0l0,5.784l0.612,0l0,-3.588c0,-1.104 0.588,-1.728 1.632,-1.728c1.044,0 1.596,0.612 1.596,1.728l0,3.588l0.612,0Z" style="fill:#fff;fill-rule:nonzero;"/><path d="M50.214,12.155l0,-0.576l-4.536,0l4.536,-7.392l0,-0.576l-5.016,0l0,0.576l4.32,0l-4.5,7.284l0,0.684l5.196,0Z" style="fill:#231f20;fill-rule:nonzero;"/><path d="M56.37,9.395l0,-0.276c0,-1.776 -0.864,-2.82 -2.316,-2.82c-1.452,0 -2.316,1.092 -2.316,2.964c0,1.932 0.864,2.964 2.46,2.964c0.96,0 1.5,-0.3 2.088,-0.888l-0.456,-0.36c-0.492,0.492 -0.912,0.696 -1.596,0.696c-1.236,0 -1.884,-0.804 -1.884,-2.28l4.02,0Zm-0.612,-0.492l-3.408,0c0.036,-0.552 0.048,-0.744 0.204,-1.092c0.276,-0.6 0.828,-0.972 1.5,-0.972c0.672,0 1.248,0.36 1.5,0.972c0.156,0.348 0.168,0.54 0.204,1.092Z" style="fill:#231f20;fill-rule:nonzero;"/><path d="M62.741,12.155l0,-3.696c0,-0.684 -0.204,-1.224 -0.6,-1.608c-0.384,-0.372 -0.9,-0.552 -1.536,-0.552c-0.708,0 -1.272,0.252 -1.704,0.756l0,-0.684l-0.612,0l0,5.784l0.612,0l0,-3.588c0,-1.104 0.588,-1.728 1.632,-1.728c1.044,0 1.596,0.612 1.596,1.728l0,3.588l0.612,0Z" style="fill:#231f20;fill-rule:nonzero;"/><path d="M67.001,12.155l0,-0.54l-0.42,0c-0.612,0 -0.888,-0.348 -0.888,-0.96l0,-3.828l1.308,0l0,-0.456l-1.308,0l0,-1.848l-0.612,0l0,1.848l-0.792,0l0,0.456l0.792,0l0,3.816c0,0.876 0.48,1.512 1.392,1.512l0.528,0Z" style="fill:#231f20;fill-rule:nonzero;"/><path d="M72.03,7.295l0.444,-0.444c-0.42,-0.42 -0.828,-0.552 -1.392,-0.552c-0.684,0 -1.356,0.3 -1.692,0.84l0,-0.768l-0.612,0l0,5.784l0.612,0l0,-3.564c0,-0.924 0.552,-1.752 1.548,-1.752c0.48,0 0.744,0.108 1.092,0.456Z" style="fill:#231f20;fill-rule:nonzero;"/><path d="M78.005,12.155l0,-5.784l-0.612,0l0,3.588c0,1.104 -0.588,1.728 -1.632,1.728c-1.044,0 -1.596,-0.612 -1.596,-1.728l0,-3.588l-0.612,0l0,3.696c0,0.684 0.204,1.224 0.6,1.608c0.384,0.372 0.9,0.552 1.536,0.552c0.708,0 1.272,-0.252 1.704,-0.756l0,0.684l0.612,0Z" style="fill:#231f20;fill-rule:nonzero;"/><path d="M88.565,12.155l0,-3.696c0,-0.684 -0.216,-1.224 -0.612,-1.608c-0.372,-0.348 -0.888,-0.552 -1.524,-0.552c-0.864,0 -1.536,0.372 -1.968,1.056c-0.348,-0.684 -0.996,-1.056 -1.86,-1.056c-0.708,0 -1.284,0.252 -1.716,0.756l0,-0.684l-0.612,0l0,5.784l0.612,0l0,-3.588c0,-1.104 0.588,-1.728 1.632,-1.728c1.044,0 1.596,0.612 1.596,1.728l0,3.588l0.612,0l0,-3.696c0,-0.996 0.624,-1.62 1.632,-1.62c1.044,0 1.596,0.612 1.596,1.728l0,3.588l0.612,0Z" style="fill:#231f20;fill-rule:nonzero;"/><path d="M51.786,25.138l-3.084,-5.28l2.64,-3.264l-0.78,0l-4.332,5.34l0,-5.34l-0.648,0l0,8.544l0.648,0l0,-2.316l2.04,-2.472l2.748,4.788l0.768,0Z" style="fill:#231f20;fill-rule:nonzero;"/><path d="M57.438,22.246c0,-0.828 -0.108,-1.716 -0.72,-2.328c-0.42,-0.42 -0.96,-0.636 -1.608,-0.636c-0.648,0 -1.188,0.216 -1.608,0.636c-0.612,0.612 -0.72,1.5 -0.72,2.328c0,0.828 0.108,1.716 0.72,2.328c0.42,0.42 0.96,0.636 1.608,0.636c0.648,0 1.188,-0.216 1.608,-0.636c0.612,-0.612 0.72,-1.5 0.72,-2.328Zm-0.612,0c0,0.672 -0.036,1.452 -0.516,1.932c-0.324,0.324 -0.732,0.492 -1.2,0.492c-0.468,0 -0.876,-0.168 -1.2,-0.492c-0.48,-0.48 -0.516,-1.26 -0.516,-1.932c0,-0.672 0.036,-1.452 0.516,-1.932c0.324,-0.324 0.732,-0.492 1.2,-0.492c0.468,0 0.876,0.168 1.2,0.492c0.48,0.48 0.516,1.26 0.516,1.932Zm-2.616,-4.308l0,-0.924l-0.696,0l0,0.924l0.696,0Zm2.496,0l0,-0.924l-0.696,0l0,0.924l0.696,0Z" style="fill:#231f20;fill-rule:nonzero;"/><path d="M61.277,25.138l0,-0.54l-0.42,0c-0.684,0 -0.888,-0.312 -0.888,-0.972l0,-7.032l-0.612,0l0,7.044c0,0.912 0.444,1.5 1.392,1.5l0.528,0Z" style="fill:#231f20;fill-rule:nonzero;"/><path d="M67.253,25.138l0,-3.696c0,-0.684 -0.204,-1.224 -0.6,-1.608c-0.384,-0.372 -0.9,-0.552 -1.536,-0.552c-0.708,0 -1.272,0.252 -1.704,0.756l0,-0.684l-0.612,0l0,5.784l0.612,0l0,-3.588c0,-1.104 0.588,-1.728 1.632,-1.728c1.044,0 1.596,0.612 1.596,1.728l0,3.588l0.612,0Z" style="fill:#231f20;fill-rule:nonzero;"/><path d="M15.302,25.127l0,-3.53l-7.059,0l7.059,-9.201l0,-2.987l-11.585,0l0,3.53l6.577,0l-6.969,9.201l0,2.987l11.977,0Z" style="fill:#808285;fill-rule:nonzero;"/><path d="M30.899,25.127l0,-21.48l-3.922,0l0,7.15c-1.026,-1.146 -2.232,-1.569 -3.831,-1.569c-1.539,0 -2.957,0.543 -3.832,1.418c-1.568,1.569 -1.599,4.254 -1.599,6.607c0,2.353 0.031,5.068 1.599,6.637c0.875,0.875 2.323,1.418 3.862,1.418c1.659,0 2.806,-0.452 3.892,-1.659l0,1.478l3.831,0Zm-3.922,-7.874c0,2.564 -0.332,4.525 -2.685,4.525c-2.353,0 -2.655,-1.961 -2.655,-4.525c0,-2.564 0.302,-4.495 2.655,-4.495c2.353,0 2.685,1.931 2.685,4.495Z" style="fill:#808285;fill-rule:nonzero;"/><rect x="34.791" y="3.527" width="4.011" height="3.685" style="fill:#ed1c24;fill-rule:nonzero;"/><rect x="34.851" y="9.479" width="3.921" height="15.648" style="fill:#808285;fill-rule:nonzero;"/></g></svg>