<?xml version="1.0" encoding="utf-8"?>
<!-- Generator: Adobe Illustrator 16.0.0, SVG Export Plug-In . SVG Version: 6.00 Build 0)  -->
<!DOCTYPE svg PUBLIC "-//W3C//DTD SVG 1.1//EN" "http://www.w3.org/Graphics/SVG/1.1/DTD/svg11.dtd">
<svg version="1.1" id="svg2" xmlns:svg="http://www.w3.org/2000/svg"
	 xmlns="http://www.w3.org/2000/svg" xmlns:xlink="http://www.w3.org/1999/xlink" x="0px" y="0px" width="1042.14px"
	 height="259.096px" viewBox="-624.681 213.525 1042.14 259.096" enable-background="new -624.681 213.525 1042.14 259.096"
	 xml:space="preserve">
<g>
	<g>
		<g id="g2570" transform="matrix(8.3985946,0,0,-8.3985946,-279.77609,213.52424)">
			<path id="path2572" fill="#64A104" d="M0,0h13.464c1.857,0,3.887-1.488,3.887-4.908c0-4.408-3.367-4.463-3.367-4.463
				s3.267-0.613,3.267-4.033v-6.085h-4.687l-0.007,5.776c0,1.727-0.916,2.475-2.176,2.47l-5.694-0.01v-8.236H0V0z M4.68-3.364
				v-4.582h5.949c1.205,0,2.027,0.787,2.047,2.327c0.017,1.403-0.788,2.255-2.047,2.255H4.68"/>
		</g>
		<g id="g2574" transform="matrix(8.3985946,0,0,-8.3985946,272.78424,213.52424)">
			<path id="path2576" fill="#64A104" d="M0,0h13.463c1.857,0,3.887-1.488,3.887-4.908c0-4.408-3.367-4.463-3.367-4.463
				s3.267-0.613,3.267-4.033v-6.085h-4.687l-0.006,5.776c0,1.727-0.916,2.475-2.176,2.47l-5.695-0.01v-8.236H0V0z M4.679-3.364
				v-4.582h5.949c1.206,0,2.028,0.787,2.047,2.327c0.017,1.403-0.787,2.255-2.047,2.255H4.679"/>
		</g>
		<g id="g2578" transform="matrix(8.3985946,0,0,-8.3985946,112.23671,213.52424)">
			<path id="path2580" fill="#64A104" d="M0,0h15.337v-3.322H4.693v-4.582h10.644v-3.349H4.693v-4.83h10.644v-3.406H0V0"/>
		</g>
		<g id="g2582" transform="matrix(8.3985946,0,0,-8.3985946,-407.85466,213.56632)">
			<path id="path2584" fill="#64A104" d="M0,0l-7.517-19.484h4.744l1.818,5.111h7.614l1.798-5.111l4.995,0.005L6.55,0.005L0,0z
				 M0.129-11.238L2.91-3.531l2.684-7.707H0.129"/>
		</g>
		<g id="g2586" transform="matrix(8.3985946,0,0,-8.3985946,80.590723,377.20445)">
			<path id="path2588" fill="#64A104" d="M0,0h-4.522l0.015,14.902h-0.035L-8.918,0.004l-4.25-0.001l-4.135,14.899h-0.024
				l-0.012-14.899h-4.522v19.402h7.278l3.679-12.897h0.047l3.85,12.901h7.003L0,0"/>
		</g>
		<g id="g2590" transform="matrix(8.3985946,0,0,-8.3985946,-624.24445,213.56632)">
			<path id="path2592" fill="#64A104" d="M0,0l14.088-0.007c1.973,0,3.62-2.322,3.62-4.754c0-4.159-2.866-4.582-2.866-4.582
				s2.866-0.458,2.866-4.899c0-3.63-2.619-5.237-4.302-5.237L0-19.484V0z M4.826-3.319v-4.583l6.236,0.004
				c1.206,0,2.016,0.423,2.016,2.362c0,1.727-0.756,2.22-2.016,2.22L4.826-3.319z M4.826-11.25v-4.829l6.236,0.004
				c1.206,0,2.016,0.423,2.016,2.361c0,1.728-0.756,2.468-2.016,2.468L4.826-11.25"/>
		</g>
		<g id="g2594" transform="matrix(8.3985946,0,0,-8.3985946,-591.17919,438.26223)">
			<path id="path2596" d="M0,0c0,1.601-0.92,2.441-2.491,2.441h-1.498v-4.874h1.279C-1.103-2.433,0-1.695,0,0z M-0.833,0
				c0-1.293-0.701-1.841-1.958-1.841h-0.402v3.69h0.621C-1.432,1.849-0.833,1.111-0.833,0"/>
		</g>
		<g id="g2598" transform="matrix(8.3985946,0,0,-8.3985946,-556.80374,444.94743)">
			<path id="path2600" d="M0,0v0.22c0,1.029-0.438,1.87-1.527,1.87c-1.016,0-1.651-0.884-1.651-1.885c0-1.14,0.57-1.922,1.768-1.922
				c0.395,0,0.855,0.059,1.22,0.197l-0.044,0.57c-0.292-0.161-0.731-0.256-1.059-0.256c-0.709,0-1.133,0.534-1.133,1.206H0z
				 M-0.701,0.453h-1.732c0,0.467,0.293,1.132,0.913,1.132C-0.899,1.585-0.701,0.972-0.701,0.453"/>
		</g>
		<g id="g2602" transform="matrix(8.3985946,0,0,-8.3985946,-520.72329,458.69601)">
			<path id="path2604" d="M0,0c-0.029,0.278-0.036,0.563-0.036,0.841v2.813h-0.731V1.666c0-0.577-0.204-1.169-0.884-1.169
				c-0.628,0-0.723,0.497-0.723,1.009v2.148h-0.731V1.352c0-0.84,0.314-1.432,1.22-1.432c0.526,0,0.928,0.241,1.177,0.701L-0.687,0
				H0"/>
		</g>
		<g id="g2606" transform="matrix(8.3985946,0,0,-8.3985946,-492.92394,458.32648)">
			<path id="path2608" d="M0,0l-0.037,0.541C-0.168,0.482-0.3,0.453-0.439,0.453c-0.372,0-0.453,0.27-0.453,0.585v2.046h0.819V3.61
				h-0.819v1.03l-0.737-0.242V3.61h-0.673V3.084h0.673V1.125c0-0.708,0.146-1.249,0.927-1.249C-0.475-0.124-0.219-0.08,0,0"/>
		</g>
		<g id="g2610" transform="matrix(8.3985946,0,0,-8.3985946,-463.48704,450.04546)">
			<path id="path2612" d="M0,0c0,1.235-1.797,1.045-1.797,1.681c0,0.409,0.394,0.497,0.716,0.497c0.285,0,0.621-0.066,0.884-0.175
				l0.043,0.533C-0.46,2.638-0.811,2.697-1.14,2.697c-0.635,0-1.38-0.286-1.38-1.038c0-1.147,1.797-0.877,1.797-1.702
				c0-0.38-0.344-0.548-0.738-0.548c-0.344,0-0.709,0.08-1.016,0.241L-2.52-0.934C-2.162-1.059-1.782-1.11-1.403-1.11
				C-0.723-1.11,0-0.767,0,0"/>
		</g>
		<g id="g2614" transform="matrix(8.3985946,0,0,-8.3985946,-431.63948,458.14162)">
			<path id="path2616" d="M0,0l-0.037,0.577c-0.248-0.11-0.518-0.168-0.796-0.168c-0.782,0-1.206,0.636-1.206,1.367
				c0,0.767,0.431,1.336,1.235,1.336c0.263,0,0.526-0.08,0.76-0.189L0,3.507c-0.307,0.102-0.636,0.154-0.957,0.154
				c-1.133,0-1.871-0.76-1.871-1.885c0-1.118,0.68-1.922,1.834-1.922C-0.651-0.146-0.322-0.109,0,0"/>
		</g>
		<g id="g2618" transform="matrix(8.3985946,0,0,-8.3985946,-395.92866,458.69601)">
			<path id="path2620" d="M0,0v2.309c0,0.833-0.344,1.418-1.22,1.418c-0.512,0-0.907-0.227-1.133-0.68v2.221h-0.731V0h0.731v1.995
				c0,0.57,0.219,1.162,0.891,1.162c0.629,0,0.723-0.483,0.723-1.001V0H0"/>
		</g>
		<path id="path2622" d="M-383.852,414.451h6.14v44.244h-6.14V414.451z"/>
		<g id="g2624" transform="matrix(8.3985946,0,0,-8.3985946,-341.89202,458.69601)">
			<path id="path2626" d="M0,0c-0.029,0.249-0.044,0.497-0.044,0.811v1.527c0,0.979-0.541,1.389-1.483,1.389
				c-0.366,0-0.848-0.103-1.184-0.241l0.044-0.563c0.329,0.205,0.701,0.292,1.074,0.292c0.57,0,0.833-0.292,0.833-0.825V2.236
				c-0.11,0.008-0.263,0.008-0.358,0.008c-1.074,0-1.98-0.33-1.98-1.279c0-0.716,0.555-1.045,1.213-1.045
				c0.46,0,0.928,0.249,1.147,0.658L-0.716,0H0z M-0.76,1.594c0-0.614-0.234-1.163-0.935-1.163c-0.358,0-0.68,0.183-0.68,0.578
				c0,0.73,0.906,0.781,1.498,0.781h0.117V1.594"/>
		</g>
		<g id="g2628" transform="matrix(8.3985946,0,0,-8.3985946,-304.35047,458.69601)">
			<path id="path2630" d="M0,0v2.309c0,0.84-0.321,1.418-1.227,1.418c-0.526,0-0.936-0.241-1.184-0.702l-0.022,0.629H-3.12
				c0.03-0.278,0.037-0.563,0.037-0.841V0h0.73v1.988c0,0.577,0.213,1.169,0.892,1.169c0.628,0,0.723-0.49,0.723-1.001V0H0"/>
		</g>
		<g id="g2632" transform="matrix(8.3985946,0,0,-8.3985946,-265.70005,458.69601)">
			<path id="path2634" d="M0,0c-0.022,0.344-0.037,0.695-0.037,1.097v4.171h-0.73V3.047c-0.183,0.431-0.65,0.68-1.103,0.68
				c-1.103,0-1.513-0.914-1.513-1.885c0-0.965,0.41-1.922,1.513-1.922c0.504,0,0.92,0.226,1.147,0.687L-0.679,0H0z M-0.745,1.834
				c0-0.577-0.219-1.351-0.928-1.351c-0.745,0-0.92,0.752-0.92,1.351c0,0.614,0.16,1.33,0.913,1.33
				C-0.972,3.164-0.745,2.419-0.745,1.834"/>
		</g>
		<g id="g2636" transform="matrix(8.3985946,0,0,-8.3985946,-234.8269,450.04546)">
			<path id="path2638" d="M0,0c0,1.235-1.798,1.045-1.798,1.681c0,0.409,0.395,0.497,0.716,0.497c0.285,0,0.621-0.066,0.884-0.175
				l0.044,0.533C-0.461,2.638-0.811,2.697-1.14,2.697c-0.636,0-1.381-0.286-1.381-1.038c0-1.147,1.798-0.877,1.798-1.702
				c0-0.38-0.344-0.548-0.739-0.548c-0.343,0-0.708,0.08-1.015,0.241l-0.044-0.584C-2.163-1.059-1.783-1.11-1.403-1.11
				C-0.723-1.11,0-0.767,0,0"/>
		</g>
		<g id="g2640" transform="matrix(8.3985946,0,0,-8.3985946,-177.71637,456.9743)">
			<path id="path2642" d="M0,0v3.449h-0.702V2.842c-0.233,0.461-0.643,0.68-1.147,0.68c-1.081,0-1.497-0.914-1.497-1.885
				c0-0.914,0.416-1.842,1.483-1.842c0.46,0,0.898,0.241,1.132,0.636V0c0-0.774-0.343-1.308-1.191-1.308
				c-0.38,0-0.767,0.095-1.088,0.263l-0.044-0.62c0.402-0.125,0.826-0.198,1.242-0.198C-0.607-1.863,0-1.184,0,0z M-0.709,1.629
				c0-0.555-0.226-1.271-0.935-1.271c-0.738,0-0.913,0.701-0.913,1.271c0,0.614,0.168,1.33,0.92,1.33
				C-0.928,2.959-0.709,2.214-0.709,1.629"/>
		</g>
		<g id="g2644" transform="matrix(8.3985946,0,0,-8.3985946,-149.06037,427.64641)">
			<path id="path2646" d="M0,0c-0.102,0.03-0.204,0.03-0.307,0.03c-0.467,0-0.84-0.388-0.993-0.775l-0.022,0.702h-0.687
				c0.029-0.278,0.037-0.563,0.037-0.841v-2.813h0.73v1.739c0,0.57,0.19,1.308,0.906,1.308c0.102,0,0.205-0.007,0.3-0.044L0,0"/>
		</g>
		<path id="path2648" d="M-125.208,421.692h5.156v-5.954h-5.156V421.692z M-135.698,421.692h5.157v-5.954h-5.157V421.692z
			 M-112.746,443.226c0-9.575-5.4-15.831-15.101-15.831c-9.204,0-15.092,6.508-15.092,15.831c0,9.331,5.274,16.142,15.092,16.142
			C-118.146,459.367-112.746,452.557-112.746,443.226z M-119.379,443.226c0,5.652-2.326,11.479-8.466,11.479
			c-6.132,0-8.466-5.953-8.466-11.479c0-5.4,2.335-11.22,8.466-11.22C-121.521,432.006-119.379,437.766-119.379,443.226"/>
		<g id="g2650" transform="matrix(8.3985946,0,0,-8.3985946,-73.170748,450.28902)">
			<path id="path2652" d="M0,0c0,1.104-1.366,1.14-1.366,1.783c0,0.578,0.643,0.599,1.074,0.614v0.277
				c0,0.987-0.578,1.666-1.593,1.666c-0.979,0-1.6-0.636-1.6-1.607v-3.734h0.731v3.734c0,0.562,0.233,1.074,0.876,1.074
				c0.658,0,0.884-0.504,0.884-1.067c-0.555-0.044-1.118-0.307-1.118-0.95c0-1.03,1.352-0.957,1.352-1.782
				c0-0.388-0.249-0.57-0.614-0.57c-0.255,0-0.496,0.073-0.723,0.19l-0.044-0.541c0.314-0.117,0.607-0.168,0.943-0.168
				C-0.533-1.081,0-0.709,0,0"/>
		</g>
		<g id="g2654" transform="matrix(8.3985946,0,0,-8.3985946,-47.328189,458.32648)">
			<path id="path2656" d="M0,0l-0.037,0.541C-0.169,0.482-0.3,0.453-0.439,0.453c-0.372,0-0.453,0.27-0.453,0.585v2.046h0.819V3.61
				h-0.819v1.03L-1.63,4.398V3.61h-0.672V3.084h0.672V1.125c0-0.708,0.146-1.249,0.928-1.249C-0.475-0.124-0.22-0.08,0,0"/>
		</g>
		<g id="g2658" transform="matrix(8.3985946,0,0,-8.3985946,-13.347559,444.94743)">
			<path id="path2660" d="M0,0v0.22c0,1.029-0.439,1.87-1.527,1.87c-1.016,0-1.651-0.884-1.651-1.885c0-1.14,0.57-1.922,1.768-1.922
				c0.394,0,0.854,0.059,1.22,0.197l-0.044,0.57c-0.292-0.161-0.731-0.256-1.06-0.256c-0.708,0-1.132,0.534-1.132,1.206H0z
				 M-0.702,0.453h-1.731c0,0.467,0.292,1.132,0.913,1.132C-0.899,1.585-0.702,0.972-0.702,0.453"/>
		</g>
		<g id="g2662" transform="matrix(8.3985946,0,0,-8.3985946,51.254515,458.69601)">
			<path id="path2664" d="M0,0l-2.39,2.594l2.199,2.28h-0.964L-3.12,2.719v2.155h-0.797V0h0.797v2.382L-1.024,0H0"/>
		</g>
		<g id="g2666" transform="matrix(8.3985946,0,0,-8.3985946,74.694993,427.64641)">
			<path id="path2668" d="M0,0c-0.102,0.03-0.204,0.03-0.306,0.03c-0.468,0-0.841-0.388-0.994-0.775l-0.022,0.702h-0.687
				c0.03-0.278,0.037-0.563,0.037-0.841v-2.813h0.731v1.739c0,0.57,0.189,1.308,0.905,1.308c0.103,0,0.205-0.007,0.3-0.044L0,0"/>
		</g>
		<g id="g2670" transform="matrix(8.3985946,0,0,-8.3985946,106.40808,458.69601)">
			<path id="path2672" d="M0,0c-0.029,0.249-0.044,0.497-0.044,0.811v1.527c0,0.979-0.541,1.389-1.483,1.389
				c-0.365,0-0.848-0.103-1.184-0.241l0.044-0.563c0.329,0.205,0.702,0.292,1.074,0.292c0.57,0,0.833-0.292,0.833-0.825V2.236
				c-0.11,0.008-0.263,0.008-0.358,0.008c-1.074,0-1.98-0.33-1.98-1.279c0-0.716,0.555-1.045,1.213-1.045
				c0.46,0,0.928,0.249,1.147,0.658L-0.716,0H0z M-0.76,1.594c0-0.614-0.234-1.163-0.935-1.163c-0.358,0-0.68,0.183-0.68,0.578
				c0,0.73,0.906,0.781,1.498,0.781h0.117V1.594"/>
		</g>
		<g id="g2674" transform="matrix(8.3985946,0,0,-8.3985946,143.9498,458.69601)">
			<path id="path2676" d="M0,0v2.309c0,0.84-0.322,1.418-1.228,1.418c-0.525,0-0.935-0.241-1.183-0.702l-0.022,0.629H-3.12
				c0.03-0.278,0.037-0.563,0.037-0.841V0h0.731v1.988c0,0.577,0.211,1.169,0.891,1.169c0.628,0,0.723-0.49,0.723-1.001V0H0"/>
		</g>
		<g id="g2678" transform="matrix(8.3985946,0,0,-8.3985946,183.28042,458.69601)">
			<path id="path2680" d="M0,0l-1.768,2.032l1.6,1.622H-1.06l-1.454-1.506v3.12h-0.731V0h0.731v1.885L-0.921,0H0"/>
		</g>
		<g id="g2682" transform="matrix(8.3985946,0,0,-8.3985946,215.6654,444.94743)">
			<path id="path2684" d="M0,0v0.22c0,1.029-0.439,1.87-1.527,1.87c-1.015,0-1.651-0.884-1.651-1.885c0-1.14,0.57-1.922,1.768-1.922
				c0.395,0,0.855,0.059,1.22,0.197l-0.043,0.57c-0.293-0.161-0.731-0.256-1.06-0.256c-0.708,0-1.133,0.534-1.133,1.206H0z
				 M-0.701,0.453h-1.732c0,0.467,0.292,1.132,0.913,1.132C-0.898,1.585-0.701,0.972-0.701,0.453"/>
		</g>
		<g id="g2686" transform="matrix(8.3985946,0,0,-8.3985946,251.68697,458.69601)">
			<path id="path2688" d="M0,0v2.309c0,0.84-0.322,1.418-1.227,1.418c-0.527,0-0.935-0.241-1.184-0.702l-0.022,0.629H-3.12
				c0.03-0.278,0.036-0.563,0.036-0.841V0h0.731v1.988c0,0.577,0.212,1.169,0.891,1.169c0.629,0,0.724-0.49,0.724-1.001V0H0"/>
		</g>
		<g id="g2690" transform="matrix(8.3985946,0,0,-8.3985946,291.00911,458.69601)">
			<path id="path2692" d="M0,0l-1.768,2.032l1.6,1.622h-0.891l-1.454-1.506v3.12h-0.73V0h0.73v1.885L-0.92,0H0"/>
		</g>
		<g id="g2694" transform="matrix(8.3985946,0,0,-8.3985946,322.90705,458.69601)">
			<path id="path2696" d="M0,0c-0.029,0.249-0.044,0.497-0.044,0.811v1.527c0,0.979-0.54,1.389-1.483,1.389
				c-0.365,0-0.847-0.103-1.183-0.241l0.044-0.563c0.328,0.205,0.701,0.292,1.073,0.292c0.571,0,0.833-0.292,0.833-0.825V2.236
				c-0.109,0.008-0.262,0.008-0.357,0.008c-1.074,0-1.981-0.33-1.981-1.279c0-0.716,0.556-1.045,1.213-1.045
				c0.46,0,0.928,0.249,1.147,0.658L-0.716,0H0z M-0.76,1.594c0-0.614-0.233-1.163-0.935-1.163c-0.357,0-0.679,0.183-0.679,0.578
				c0,0.73,0.906,0.781,1.498,0.781h0.116V1.594"/>
		</g>
		<g id="g2698" transform="matrix(8.3985946,0,0,-8.3985946,353.64591,450.04546)">
			<path id="path2700" d="M0,0c0,1.235-1.797,1.045-1.797,1.681c0,0.409,0.394,0.497,0.716,0.497c0.284,0,0.62-0.066,0.884-0.175
				l0.043,0.533C-0.461,2.638-0.811,2.697-1.14,2.697c-0.636,0-1.381-0.286-1.381-1.038c0-1.147,1.797-0.877,1.797-1.702
				c0-0.38-0.343-0.548-0.738-0.548c-0.343,0-0.708,0.08-1.015,0.241l-0.044-0.584C-2.163-1.059-1.783-1.11-1.403-1.11
				C-0.724-1.11,0-0.767,0,0"/>
		</g>
		<g id="g2702" transform="matrix(8.3985946,0,0,-8.3985946,382.67137,450.04546)">
			<path id="path2704" d="M0,0c0,1.235-1.798,1.045-1.798,1.681c0,0.409,0.395,0.497,0.716,0.497c0.285,0,0.621-0.066,0.885-0.175
				l0.043,0.533C-0.461,2.638-0.811,2.697-1.14,2.697c-0.636,0-1.381-0.286-1.381-1.038c0-1.147,1.797-0.877,1.797-1.702
				c0-0.38-0.343-0.548-0.738-0.548c-0.343,0-0.709,0.08-1.015,0.241l-0.044-0.584C-2.163-1.059-1.783-1.11-1.403-1.11
				C-0.724-1.11,0-0.767,0,0"/>
		</g>
		<g id="g2706" transform="matrix(8.3985946,0,0,-8.3985946,417.45835,444.94743)">
			<path id="path2708" d="M0,0v0.22c0,1.029-0.438,1.87-1.527,1.87c-1.015,0-1.651-0.884-1.651-1.885
				c0-1.14,0.569-1.922,1.768-1.922c0.394,0,0.855,0.059,1.22,0.197l-0.044,0.57c-0.292-0.161-0.731-0.256-1.059-0.256
				c-0.709,0-1.132,0.534-1.132,1.206H0z M-0.701,0.453h-1.732c0,0.467,0.292,1.132,0.913,1.132
				C-0.898,1.585-0.701,0.972-0.701,0.453"/>
		</g>
		<g>
			<g>
				<g>
					<defs>
						<rect id="SVGID_1_" x="-22238.428" y="-26429.135" width="42766.184" height="60447.66"/>
					</defs>
					<clipPath id="SVGID_2_">
						<use xlink:href="#SVGID_1_"  overflow="visible"/>
					</clipPath>
					<g clip-path="url(#SVGID_2_)">
						<g id="g2710" transform="matrix(8.3985946,0,0,-8.3985946,-3353.9178,7326.3021)">
							<g id="g2712">
								<g id="g2718">
									<defs>
										<rect id="SVGID_3_" x="-21096.873" y="-29835.877" width="42789.188" height="60513.793"/>
									</defs>
									<clipPath id="SVGID_4_">
										<use xlink:href="#SVGID_3_"  overflow="visible"/>
									</clipPath>
								</g>
							</g>
						</g>
						<g>
							<defs>
								<rect id="SVGID_5_" x="-2111.266" y="-2776.42" width="5092.063" height="7197.354"/>
							</defs>
							<clipPath id="SVGID_6_">
								<use xlink:href="#SVGID_5_"  overflow="visible"/>
							</clipPath>
							<g clip-path="url(#SVGID_6_)">
								<g>
									<g>
										<defs>
											<rect id="SVGID_7_" x="-20948.326" y="-29401.572" width="42766.184" height="60447.66"/>
										</defs>
										<clipPath id="SVGID_8_">
											<use xlink:href="#SVGID_7_"  overflow="visible"/>
										</clipPath>
										<g clip-path="url(#SVGID_8_)">
											<g id="g2726" transform="matrix(8.3985946,0,0,-8.3985946,-3353.9178,7326.3021)">
												<g id="g2728">
													<g id="g2734">
														<defs>
															<rect id="SVGID_9_" x="-20943.48" y="-29482.469" width="42789.188" height="60513.793"/>
														</defs>
														<clipPath id="SVGID_10_">
															<use xlink:href="#SVGID_9_"  overflow="visible"/>
														</clipPath>
													</g>
												</g>
											</g>
											<g>
												<defs>
													<rect id="SVGID_11_" x="-2092.977" y="-2818.56" width="5092.064" height="7197.354"/>
												</defs>
												<clipPath id="SVGID_12_">
													<use xlink:href="#SVGID_11_"  overflow="visible"/>
												</clipPath>
												<g clip-path="url(#SVGID_12_)">
													<g>
														<g>
															<defs>
																<rect id="SVGID_13_" x="-20930.035" y="-29443.713" width="42766.18" height="60447.66"/>
															</defs>
															<clipPath id="SVGID_14_">
																<use xlink:href="#SVGID_13_"  overflow="visible"/>
															</clipPath>
															<g clip-path="url(#SVGID_14_)">
																<g id="g2742" transform="matrix(8.3985946,0,0,-8.3985946,-3353.9178,7326.3021)">
																	<g id="g2744">
																		<g id="g2750">
																			<defs>
																				<rect id="SVGID_15_" x="-20941.307" y="-29477.461" width="42789.188" height="60513.797"/>
																			</defs>
																			<clipPath id="SVGID_16_">
																				<use xlink:href="#SVGID_15_"  overflow="visible"/>
																			</clipPath>
																		</g>
																	</g>
																</g>
																<g>
																	<defs>
																		<rect id="SVGID_17_" x="-2092.718" y="-2819.158" width="5092.064" height="7197.354"/>
																	</defs>
																	<clipPath id="SVGID_18_">
																		<use xlink:href="#SVGID_17_"  overflow="visible"/>
																	</clipPath>
																	<g clip-path="url(#SVGID_18_)">
																		<g>
																			<g>
																				<defs>
																					<rect id="SVGID_19_" x="-20929.775" y="-29444.312" width="42766.18" height="60447.664"/>
																				</defs>
																				<clipPath id="SVGID_20_">
																					<use xlink:href="#SVGID_19_"  overflow="visible"/>
																				</clipPath>
																				<g clip-path="url(#SVGID_20_)">
																					<g id="g2758" transform="matrix(8.3985946,0,0,-8.3985946,-3353.9178,7326.3021)">
																						<g id="g2760">
																							<g id="g2766">
																								<defs>
																									<rect id="SVGID_21_" x="-20941.275" y="-29477.387" width="42789.188" height="60513.793"/>
																								</defs>
																								<clipPath id="SVGID_22_">
																									<use xlink:href="#SVGID_21_"  overflow="visible"/>
																								</clipPath>
																							</g>
																						</g>
																					</g>
																					<g>
																						<defs>
																							<rect id="SVGID_23_" x="-2092.714" y="-2819.166" width="5092.063" height="7197.354"/>
																						</defs>
																						<clipPath id="SVGID_24_">
																							<use xlink:href="#SVGID_23_"  overflow="visible"/>
																						</clipPath>
																						<g clip-path="url(#SVGID_24_)">
																							<g>
																								<g id="g2774" transform="matrix(8.3985946,0,0,-8.3985946,-3353.9178,7326.3021)">
																									<defs>
																										<rect id="SVGID_25_" x="-20929.773" y="-29444.32" width="42766.184" height="60447.66"/>
																									</defs>
																									<clipPath id="SVGID_26_">
																										<use xlink:href="#SVGID_25_"  overflow="visible"/>
																									</clipPath>
																									<g clip-path="url(#SVGID_26_)">
																										<g>
																											<defs>
																												<rect id="SVGID_27_" x="-20929.773" y="-29444.32" width="42766.184" height="60447.66"/>
																											</defs>
																											<clipPath id="SVGID_28_">
																												<use xlink:href="#SVGID_27_"  overflow="visible"/>
																											</clipPath>
																											
																												<g id="g2790" transform="matrix(8.3985946,0,0,-8.3985946,-3353.9178,7326.3021)" clip-path="url(#SVGID_28_)">
																												<g>
																													<defs>
																														<rect id="SVGID_29_" x="-179134.594" y="-253058.188" width="359175.812" height="507675.406"/>
																													</defs>
																													<clipPath id="SVGID_30_">
																														<use xlink:href="#SVGID_29_"  overflow="visible"/>
																													</clipPath>
																												</g>
																											</g>
																										</g>
																									</g>
																								</g>
																							</g>
																						</g>
																					</g>
																				</g>
																			</g>
																		</g>
																	</g>
																</g>
															</g>
														</g>
														<rect x="-11612333" y="-28042036" fill="none" width="25334972" height="35809600"/>
													</g>
												</g>
											</g>
										</g>
									</g>
								</g>
							</g>
						</g>
					</g>
				</g>
			</g>
		</g>
	</g>
</g>
<rect x="-20940.816" y="-29479.613" fill="none" width="42789.188" height="60513.793"/>
<rect x="-179134.172" y="-253060.406" fill="none" width="359175.812" height="507675.406"/>
</svg>
